<?plantuml 1.2026.1?><svg xmlns="http://www.w3.org/2000/svg" xmlns:xlink="http://www.w3.org/1999/xlink" contentStyleType="text/css" data-diagram-type="CLASS" height="386px" preserveAspectRatio="none" style="width:1008px;height:386px;background:#FFFFFF;" version="1.1" viewBox="0 0 1008 386" width="1008px" zoomAndPan="magnify"><title>Brainstorm poneytoponey design</title><defs/><g><g class="title" data-source-line="2"><text fill="#000000" font-family="sans-serif" font-size="14" font-weight="bold" lengthAdjust="spacing" textLength="263.0742" x="365.5823" y="22.9951">Brainstorm poneytoponey design</text></g><!--class Chat--><g class="entity" data-qualified-name="Chat" data-source-line="6" id="ent0002"><rect fill="#F1F1F1" height="72.5938" rx="2.5" ry="2.5" style="stroke:#181818;stroke-width:0.5;" width="423.9746" x="428.1" y="140.8628"/><ellipse cx="619.4789" cy="156.8628" fill="#B4A7E5" rx="11" ry="11" style="stroke:#181818;stroke-width:1;"/><path d="M615.4008,152.6284 L615.4008,150.4722 L622.7914,150.4722 L622.7914,152.6284 L620.3227,152.6284 L620.3227,160.7065 L622.7914,160.7065 L622.7914,162.8628 L615.4008,162.8628 L615.4008,160.7065 L617.8695,160.7065 L617.8695,152.6284 L615.4008,152.6284 Z " fill="#000000"/><text fill="#000000" font-family="sans-serif" font-size="14" font-style="italic" lengthAdjust="spacing" textLength="32.7168" x="639.9789" y="161.7095">Chat</text><line style="stroke:#181818;stroke-width:0.5;" x1="429.1" x2="851.0746" y1="172.8628" y2="172.8628"/><text fill="#000000" font-family="sans-serif" font-size="14" lengthAdjust="spacing" textLength="411.9746" x="434.1" y="189.8579">sendMessage(text: String, sender_timestamp: Timestamp)</text><text fill="#000000" font-family="sans-serif" font-size="14" lengthAdjust="spacing" textLength="46.9834" x="434.1" y="206.1548">close()</text></g><!--class Remote--><g class="entity" data-qualified-name="Remote" data-source-line="7" id="ent0003"><rect fill="#F1F1F1" height="32" rx="2.5" ry="2.5" style="stroke:#181818;stroke-width:0.5;" width="86.6465" x="426.76" y="47.8628"/><ellipse cx="441.76" cy="63.8628" fill="#B4A7E5" rx="11" ry="11" style="stroke:#181818;stroke-width:1;"/><path d="M437.6819,59.6284 L437.6819,57.4722 L445.0725,57.4722 L445.0725,59.6284 L442.6038,59.6284 L442.6038,67.7065 L445.0725,67.7065 L445.0725,69.8628 L437.6819,69.8628 L437.6819,67.7065 L440.1506,67.7065 L440.1506,59.6284 L437.6819,59.6284 Z " fill="#000000"/><text fill="#000000" font-family="sans-serif" font-size="14" font-style="italic" lengthAdjust="spacing" textLength="54.6465" x="455.76" y="68.7095">Remote</text></g><!--class DirectChat--><g class="entity" data-qualified-name="DirectChat" data-source-line="11" id="ent0005"><rect fill="#F1F1F1" height="56.2969" rx="2.5" ry="2.5" style="stroke:#181818;stroke-width:0.5;" width="106.9424" x="566.61" y="298.9028"/><ellipse cx="581.61" cy="314.9028" fill="#ADD1B2" rx="11" ry="11" style="stroke:#181818;stroke-width:1;"/><path d="M584.5788,320.5434 Q584.0006,320.8403 583.36,320.9809 Q582.7194,321.1372 582.0163,321.1372 Q579.5163,321.1372 578.1881,319.4965 Q576.8756,317.8403 576.8756,314.7153 Q576.8756,311.5903 578.1881,309.934 Q579.5163,308.2778 582.0163,308.2778 Q582.7194,308.2778 583.36,308.434 Q584.0163,308.5903 584.5788,308.8872 L584.5788,311.6059 Q583.9538,311.0278 583.36,310.7622 Q582.7663,310.4809 582.1413,310.4809 Q580.7975,310.4809 580.11,311.559 Q579.4225,312.6215 579.4225,314.7153 Q579.4225,316.809 580.11,317.8872 Q580.7975,318.9497 582.1413,318.9497 Q582.7663,318.9497 583.36,318.684 Q583.9538,318.4028 584.5788,317.8247 L584.5788,320.5434 Z " fill="#000000"/><text fill="#000000" font-family="sans-serif" font-size="14" lengthAdjust="spacing" textLength="74.9424" x="595.61" y="319.7495">DirectChat</text><line style="stroke:#181818;stroke-width:0.5;" x1="567.61" x2="672.5524" y1="330.9028" y2="330.9028"/><text fill="#000000" font-family="sans-serif" font-size="14" lengthAdjust="spacing" textLength="46.9834" x="572.61" y="347.8979">close()</text></g><!--class ChatManager--><g class="entity" data-qualified-name="ChatManager" data-source-line="15" id="ent0007"><rect fill="#F1F1F1" height="72.5938" rx="2.5" ry="2.5" style="stroke:#181818;stroke-width:0.5;" width="386.1719" x="7" y="140.8628"/><ellipse cx="148.7944" cy="156.8628" fill="#B4A7E5" rx="11" ry="11" style="stroke:#181818;stroke-width:1;"/><path d="M144.7163,152.6284 L144.7163,150.4722 L152.1069,150.4722 L152.1069,152.6284 L149.6382,152.6284 L149.6382,160.7065 L152.1069,160.7065 L152.1069,162.8628 L144.7163,162.8628 L144.7163,160.7065 L147.1851,160.7065 L147.1851,152.6284 L144.7163,152.6284 Z " fill="#000000"/><text fill="#000000" font-family="sans-serif" font-size="14" font-style="italic" lengthAdjust="spacing" textLength="94.083" x="169.2944" y="161.7095">ChatManager</text><line style="stroke:#181818;stroke-width:0.5;" x1="8" x2="392.1719" y1="172.8628" y2="172.8628"/><text fill="#000000" font-family="sans-serif" font-size="14" lengthAdjust="spacing" textLength="249.1563" x="13" y="189.8579">askForChat(ourChat: ChatManager)</text><text fill="#000000" font-family="sans-serif" font-size="14" lengthAdjust="spacing" textLength="374.1719" x="13" y="206.1548">approveChat(approvedManager: ChatManager): Chat</text></g><!--class DirectChatManager--><g class="entity" data-qualified-name="DirectChatManager" data-source-line="20" id="ent0009"><rect fill="#F1F1F1" height="80.5938" rx="2.5" ry="2.5" style="stroke:#181818;stroke-width:0.5;" width="259.8369" x="185.17" y="286.7528"/><ellipse cx="242.6842" cy="302.7528" fill="#ADD1B2" rx="11" ry="11" style="stroke:#181818;stroke-width:1;"/><path d="M245.6529,308.3934 Q245.0748,308.6903 244.4342,308.8309 Q243.7935,308.9872 243.0904,308.9872 Q240.5904,308.9872 239.2623,307.3465 Q237.9498,305.6903 237.9498,302.5653 Q237.9498,299.4403 239.2623,297.784 Q240.5904,296.1278 243.0904,296.1278 Q243.7935,296.1278 244.4342,296.284 Q245.0904,296.4403 245.6529,296.7372 L245.6529,299.4559 Q245.0279,298.8778 244.4342,298.6122 Q243.8404,298.3309 243.2154,298.3309 Q241.8717,298.3309 241.1842,299.409 Q240.4967,300.4715 240.4967,302.5653 Q240.4967,304.659 241.1842,305.7372 Q241.8717,306.7997 243.2154,306.7997 Q243.8404,306.7997 244.4342,306.534 Q245.0279,306.2528 245.6529,305.6747 L245.6529,308.3934 Z " fill="#000000"/><text fill="#000000" font-family="sans-serif" font-size="14" lengthAdjust="spacing" textLength="136.3086" x="263.1842" y="307.5995">DirectChatManager</text><line style="stroke:#181818;stroke-width:0.5;" x1="186.17" x2="444.0069" y1="318.7528" y2="318.7528"/><text fill="#000000" font-family="sans-serif" font-size="14" lengthAdjust="spacing" textLength="121.1875" x="191.17" y="335.7479">username: String</text><line style="stroke:#181818;stroke-width:0.5;" x1="186.17" x2="444.0069" y1="343.0497" y2="343.0497"/><text fill="#000000" font-family="sans-serif" font-size="14" lengthAdjust="spacing" textLength="247.8369" x="191.17" y="360.0448">listParticipantsUsername(): String[]</text></g><!--class Message--><g class="entity" data-qualified-name="Message" data-source-line="26" id="ent0012"><rect fill="#F1F1F1" height="105.1875" rx="2.5" ry="2.5" style="stroke:#181818;stroke-width:0.5;" width="230.2988" x="770.94" y="274.4528"/><ellipse cx="851.1597" cy="290.4528" fill="#ADD1B2" rx="11" ry="11" style="stroke:#181818;stroke-width:1;"/><path d="M854.1285,296.0934 Q853.5504,296.3903 852.9097,296.5309 Q852.2691,296.6872 851.566,296.6872 Q849.066,296.6872 847.7379,295.0465 Q846.4254,293.3903 846.4254,290.2653 Q846.4254,287.1403 847.7379,285.484 Q849.066,283.8278 851.566,283.8278 Q852.2691,283.8278 852.9097,283.984 Q853.566,284.1403 854.1285,284.4372 L854.1285,287.1559 Q853.5035,286.5778 852.9097,286.3122 Q852.316,286.0309 851.691,286.0309 Q850.3472,286.0309 849.6597,287.109 Q848.9722,288.1715 848.9722,290.2653 Q848.9722,292.359 849.6597,293.4372 Q850.3472,294.4997 851.691,294.4997 Q852.316,294.4997 852.9097,294.234 Q853.5035,293.9528 854.1285,293.3747 L854.1285,296.0934 Z " fill="#000000"/><text fill="#000000" font-family="sans-serif" font-size="14" lengthAdjust="spacing" textLength="61.3594" x="871.6597" y="295.2995">Message</text><line style="stroke:#181818;stroke-width:0.5;" x1="771.94" x2="1000.2388" y1="306.4528" y2="306.4528"/><text fill="#000000" font-family="sans-serif" font-size="14" lengthAdjust="spacing" textLength="78.8252" x="776.94" y="323.4479">text: String</text><text fill="#000000" font-family="sans-serif" font-size="14" lengthAdjust="spacing" textLength="218.2988" x="776.94" y="339.7448">sender_timestamp: Timestamp</text><text fill="#000000" font-family="sans-serif" font-size="14" lengthAdjust="spacing" textLength="98.0752" x="776.94" y="356.0417">index: Integer</text><text fill="#000000" font-family="sans-serif" font-size="14" lengthAdjust="spacing" textLength="97.084" x="776.94" y="372.3385">author: String</text></g><g class="entity" data-qualified-name="Registry" data-source-line="35" id="ent0014"><rect fill="#F1F1F1" height="20.2969" rx="2.5" ry="2.5" style="stroke:#181818;stroke-width:0.5;" width="71.9414" x="90.12" y="53.7128"/><text fill="#000000" font-family="sans-serif" font-size="14" lengthAdjust="spacing" textLength="57.9414" x="97.12" y="68.7079">Registry</text></g><!--reverse link Remote to Chat--><g class="link" data-entity-1="ent0003" data-entity-2="ent0002" data-link-type="extension" data-source-line="7" id="lnk4"><path d="M508.7797,90.192 C532.4097,105.662 554.53,120.1428 585.5,140.4228" fill="none" id="Remote-backto-Chat" style="stroke:#181818;stroke-width:1;"/><polygon fill="none" points="493.72,80.3328,505.4933,95.2119,512.0661,85.1721,493.72,80.3328" style="stroke:#181818;stroke-width:1;"/></g><!--reverse link Chat to DirectChat--><g class="link" data-entity-1="ent0002" data-entity-2="ent0005" data-link-type="extension" data-source-line="12" id="lnk6"><path d="M632.8853,231.4201 C629.3453,257.5701 627.02,274.7928 623.77,298.7828" fill="none" id="Chat-backto-DirectChat" style="stroke:#181818;stroke-width:1;stroke-dasharray:7,7;"/><polygon fill="none" points="635.3,213.5828,626.9395,230.6152,638.8311,232.225,635.3,213.5828" style="stroke:#181818;stroke-width:1;"/></g><!--reverse link Remote to ChatManager--><g class="link" data-entity-1="ent0003" data-entity-2="ent0007" data-link-type="extension" data-source-line="16" id="lnk8"><path d="M415.8984,87.1925 C378.3684,102.6625 335.97,120.1428 286.78,140.4228" fill="none" id="Remote-backto-ChatManager" style="stroke:#181818;stroke-width:1;"/><polygon fill="none" points="432.54,80.3328,413.6118,81.6453,418.1849,92.7397,432.54,80.3328" style="stroke:#181818;stroke-width:1;"/></g><!--reverse link ChatManager to DirectChatManager--><g class="link" data-entity-1="ent0007" data-entity-2="ent0009" data-link-type="extension" data-source-line="21" id="lnk10"><path d="M238.6809,227.7911 C255.7609,249.7511 266.68,263.7928 284.32,286.4828" fill="none" id="ChatManager-backto-DirectChatManager" style="stroke:#181818;stroke-width:1;stroke-dasharray:7,7;"/><polygon fill="none" points="227.63,213.5828,233.9448,231.4748,243.417,224.1075,227.63,213.5828" style="stroke:#181818;stroke-width:1;"/></g><!--link DirectChatManager to DirectChat--><g class="link" data-entity-1="ent0009" data-entity-2="ent0005" data-link-type="association" data-source-line="25" id="lnk11"><path codeLine="25" d="M445.32,327.0528 C487.74,327.0528 532.51,327.0528 566.12,327.0528" fill="none" id="DirectChatManager-DirectChat" style="stroke:#181818;stroke-width:1;"/><polygon fill="#000000" points="481.81,315.6192,472.7649,312.6803,472.7649,318.5581,481.81,315.6192" style="stroke:#000000;stroke-width:1;"/><text fill="#000000" font-family="sans-serif" font-size="13" lengthAdjust="spacing" textLength="53.0854" x="485.81" y="320.1197">manage</text><text fill="#000000" font-family="sans-serif" font-size="13" lengthAdjust="spacing" textLength="8.271" x="453.0881" y="323.6901">1</text><text fill="#000000" font-family="sans-serif" font-size="13" lengthAdjust="spacing" textLength="6.5" x="552.145" y="323.0746">*</text></g><!--link DirectChat to Message--><g class="link" data-entity-1="ent0005" data-entity-2="ent0012" data-link-type="association" data-source-line="26" id="lnk13"><path codeLine="26" d="M673.91,327.0528 C701.77,327.0528 736.91,327.0528 770.54,327.0528" fill="none" id="DirectChat-Message" style="stroke:#181818;stroke-width:1;"/><polygon fill="#000000" points="700.75,315.6192,691.7049,312.6803,691.7049,318.5581,700.75,315.6192" style="stroke:#000000;stroke-width:1;"/><text fill="#000000" font-family="sans-serif" font-size="13" lengthAdjust="spacing" textLength="48.2549" x="704.75" y="320.1197">contain</text><text fill="#000000" font-family="sans-serif" font-size="13" lengthAdjust="spacing" textLength="8.271" x="681.699" y="323.121">1</text><text fill="#000000" font-family="sans-serif" font-size="13" lengthAdjust="spacing" textLength="6.5" x="756.5918" y="323.6207">*</text></g><!--link Registry to Remote--><g class="link" data-entity-1="ent0014" data-entity-2="ent0003" data-link-type="association" data-source-line="37" id="lnk15"><path codeLine="37" d="M162.25,63.8628 C225.9,63.8628 357.7,63.8628 426.36,63.8628" fill="none" id="Registry-Remote" style="stroke:#181818;stroke-width:1;"/><polygon fill="#000000" points="189.41,52.4292,180.3649,49.4903,180.3649,55.3681,189.41,52.4292" style="stroke:#000000;stroke-width:1;"/><text fill="#000000" font-family="sans-serif" font-size="13" lengthAdjust="spacing" textLength="215.814" x="193.41" y="56.9297">take notes by String of published</text><text fill="#000000" font-family="sans-serif" font-size="13" lengthAdjust="spacing" textLength="24.8066" x="169.9897" y="77.1358">0..1</text><text fill="#000000" font-family="sans-serif" font-size="13" lengthAdjust="spacing" textLength="6.5" x="412.3724" y="59.652">*</text></g><?plantuml-src TP9DJyCm38Rl-HLMJns22QuzS024n64IukE444fRquOr7qfSj6hYl-EbwTIDqKiS-tNy96z9KOUGtNYfJ23hDJXhS20R5wWngCPaGhIgHa3jQ02DkaGVX526q7_A2k6sbGIu8JHrW2VKbX2s0lWBd5fX2BB1d5XHm3DvPPhpM47_GKfZ8AbT0IzJk8YjLMS3vWln8qJLoH3WJdciACvIsdMeqL0OPs-FEmxPLj8mW3-DACFwtlgTBBTzN8jvqmWZdVFs6wCgnNKI7Ah7tIde2UA8VKgFC7r0RwJ6wPrYibE17gKdLIadkUyrYVB597jxtqtyEokxoYwoisn6KO2EDRYUoVUwP5K1bJN4lmIhqZrI9M7EhTpx_8-RiQwul2dWWMrXhl59Usgjtv_2_BRyOY1sf-4B-q68AOBiShbCYADt1P1S8nWE0vH3EWJi9xY-vFTgiMRsNm00?></g></svg>