<?plantuml 1.2026.1?><svg xmlns="http://www.w3.org/2000/svg" xmlns:xlink="http://www.w3.org/1999/xlink" contentStyleType="text/css" data-diagram-type="CLASS" height="386px" preserveAspectRatio="none" style="width:971px;height:386px;background:#FFFFFF;" version="1.1" viewBox="0 0 971 386" width="971px" zoomAndPan="magnify"><title>Brainstorm poneytoponey design</title><defs/><g><g class="title" data-source-line="2"><text fill="#000000" font-family="sans-serif" font-size="14" font-weight="bold" lengthAdjust="spacing" textLength="263.0742" x="346.9723" y="22.9951">Brainstorm poneytoponey design</text></g><!--class Chat--><g class="entity" data-qualified-name="Chat" data-source-line="6" id="ent0002"><rect fill="#F1F1F1" height="72.5938" rx="2.5" ry="2.5" style="stroke:#181818;stroke-width:0.5;" width="423.9746" x="387.88" y="140.8628"/><ellipse cx="579.2589" cy="156.8628" fill="#B4A7E5" rx="11" ry="11" style="stroke:#181818;stroke-width:1;"/><path d="M575.1808,152.6284 L575.1808,150.4722 L582.5714,150.4722 L582.5714,152.6284 L580.1027,152.6284 L580.1027,160.7065 L582.5714,160.7065 L582.5714,162.8628 L575.1808,162.8628 L575.1808,160.7065 L577.6495,160.7065 L577.6495,152.6284 L575.1808,152.6284 Z " fill="#000000"/><text fill="#000000" font-family="sans-serif" font-size="14" font-style="italic" lengthAdjust="spacing" textLength="32.7168" x="599.7589" y="161.7095">Chat</text><line style="stroke:#181818;stroke-width:0.5;" x1="388.88" x2="810.8546" y1="172.8628" y2="172.8628"/><text fill="#000000" font-family="sans-serif" font-size="14" lengthAdjust="spacing" textLength="411.9746" x="393.88" y="189.8579">sendMessage(text: String, sender_timestamp: Timestamp)</text><text fill="#000000" font-family="sans-serif" font-size="14" lengthAdjust="spacing" textLength="46.9834" x="393.88" y="206.1548">close()</text></g><!--class Remote--><g class="entity" data-qualified-name="Remote" data-source-line="7" id="ent0003"><rect fill="#F1F1F1" height="32" rx="2.5" ry="2.5" style="stroke:#181818;stroke-width:0.5;" width="86.6465" x="393.55" y="47.8628"/><ellipse cx="408.55" cy="63.8628" fill="#B4A7E5" rx="11" ry="11" style="stroke:#181818;stroke-width:1;"/><path d="M404.4719,59.6284 L404.4719,57.4722 L411.8625,57.4722 L411.8625,59.6284 L409.3938,59.6284 L409.3938,67.7065 L411.8625,67.7065 L411.8625,69.8628 L404.4719,69.8628 L404.4719,67.7065 L406.9406,67.7065 L406.9406,59.6284 L404.4719,59.6284 Z " fill="#000000"/><text fill="#000000" font-family="sans-serif" font-size="14" font-style="italic" lengthAdjust="spacing" textLength="54.6465" x="422.55" y="68.7095">Remote</text></g><!--class DirectChat--><g class="entity" data-qualified-name="DirectChat" data-source-line="11" id="ent0005"><rect fill="#F1F1F1" height="56.2969" rx="2.5" ry="2.5" style="stroke:#181818;stroke-width:0.5;" width="106.9424" x="529.4" y="298.9028"/><ellipse cx="544.4" cy="314.9028" fill="#ADD1B2" rx="11" ry="11" style="stroke:#181818;stroke-width:1;"/><path d="M547.3688,320.5434 Q546.7906,320.8403 546.15,320.9809 Q545.5094,321.1372 544.8063,321.1372 Q542.3063,321.1372 540.9781,319.4965 Q539.6656,317.8403 539.6656,314.7153 Q539.6656,311.5903 540.9781,309.934 Q542.3063,308.2778 544.8063,308.2778 Q545.5094,308.2778 546.15,308.434 Q546.8063,308.5903 547.3688,308.8872 L547.3688,311.6059 Q546.7438,311.0278 546.15,310.7622 Q545.5563,310.4809 544.9313,310.4809 Q543.5875,310.4809 542.9,311.559 Q542.2125,312.6215 542.2125,314.7153 Q542.2125,316.809 542.9,317.8872 Q543.5875,318.9497 544.9313,318.9497 Q545.5563,318.9497 546.15,318.684 Q546.7438,318.4028 547.3688,317.8247 L547.3688,320.5434 Z " fill="#000000"/><text fill="#000000" font-family="sans-serif" font-size="14" lengthAdjust="spacing" textLength="74.9424" x="558.4" y="319.7495">DirectChat</text><line style="stroke:#181818;stroke-width:0.5;" x1="530.4" x2="635.3424" y1="330.9028" y2="330.9028"/><text fill="#000000" font-family="sans-serif" font-size="14" lengthAdjust="spacing" textLength="46.9834" x="535.4" y="347.8979">close()</text></g><!--class Identity--><g class="entity" data-qualified-name="Identity" data-source-line="15" id="ent0007"><rect fill="#F1F1F1" height="72.5938" rx="2.5" ry="2.5" style="stroke:#181818;stroke-width:0.5;" width="345.7441" x="7" y="140.8628"/><ellipse cx="148.7944" cy="156.8628" fill="#B4A7E5" rx="11" ry="11" style="stroke:#181818;stroke-width:1;"/><path d="M144.7163,152.6284 L144.7163,150.4722 L152.1069,150.4722 L152.1069,152.6284 L149.6382,152.6284 L149.6382,160.7065 L152.1069,160.7065 L152.1069,162.8628 L144.7163,162.8628 L144.7163,160.7065 L147.1851,160.7065 L147.1851,152.6284 L144.7163,152.6284 Z " fill="#000000"/><text fill="#000000" font-family="sans-serif" font-size="14" font-style="italic" lengthAdjust="spacing" textLength="53.6553" x="169.2944" y="161.7095">Identity</text><line style="stroke:#181818;stroke-width:0.5;" x1="8" x2="351.7441" y1="172.8628" y2="172.8628"/><text fill="#000000" font-family="sans-serif" font-size="14" lengthAdjust="spacing" textLength="208.7285" x="13" y="189.8579">askForChat(ourChat: Identity)</text><text fill="#000000" font-family="sans-serif" font-size="14" lengthAdjust="spacing" textLength="333.7441" x="13" y="206.1548">approveChat(approvedManager: Identity): Chat</text></g><!--class HumanIdentity--><g class="entity" data-qualified-name="HumanIdentity" data-source-line="20" id="ent0009"><rect fill="#F1F1F1" height="80.5938" rx="2.5" ry="2.5" style="stroke:#181818;stroke-width:0.5;" width="259.8369" x="149.95" y="286.7528"/><ellipse cx="223.5457" cy="302.7528" fill="#ADD1B2" rx="11" ry="11" style="stroke:#181818;stroke-width:1;"/><path d="M226.5145,308.3934 Q225.9363,308.6903 225.2957,308.8309 Q224.6551,308.9872 223.952,308.9872 Q221.452,308.9872 220.1238,307.3465 Q218.8113,305.6903 218.8113,302.5653 Q218.8113,299.4403 220.1238,297.784 Q221.452,296.1278 223.952,296.1278 Q224.6551,296.1278 225.2957,296.284 Q225.952,296.4403 226.5145,296.7372 L226.5145,299.4559 Q225.8895,298.8778 225.2957,298.6122 Q224.702,298.3309 224.077,298.3309 Q222.7332,298.3309 222.0457,299.409 Q221.3582,300.4715 221.3582,302.5653 Q221.3582,304.659 222.0457,305.7372 Q222.7332,306.7997 224.077,306.7997 Q224.702,306.7997 225.2957,306.534 Q225.8895,306.2528 226.5145,305.6747 L226.5145,308.3934 Z " fill="#000000"/><text fill="#000000" font-family="sans-serif" font-size="14" lengthAdjust="spacing" textLength="104.1455" x="244.0457" y="307.5995">HumanIdentity</text><line style="stroke:#181818;stroke-width:0.5;" x1="150.95" x2="408.7869" y1="318.7528" y2="318.7528"/><text fill="#000000" font-family="sans-serif" font-size="14" lengthAdjust="spacing" textLength="121.1875" x="155.95" y="335.7479">username: String</text><line style="stroke:#181818;stroke-width:0.5;" x1="150.95" x2="408.7869" y1="343.0497" y2="343.0497"/><text fill="#000000" font-family="sans-serif" font-size="14" lengthAdjust="spacing" textLength="247.8369" x="155.95" y="360.0448">listParticipantsUsername(): String[]</text></g><!--class Message--><g class="entity" data-qualified-name="Message" data-source-line="26" id="ent0012"><rect fill="#F1F1F1" height="105.1875" rx="2.5" ry="2.5" style="stroke:#181818;stroke-width:0.5;" width="230.2988" x="733.72" y="274.4528"/><ellipse cx="813.9397" cy="290.4528" fill="#ADD1B2" rx="11" ry="11" style="stroke:#181818;stroke-width:1;"/><path d="M816.9085,296.0934 Q816.3304,296.3903 815.6897,296.5309 Q815.0491,296.6872 814.346,296.6872 Q811.846,296.6872 810.5179,295.0465 Q809.2054,293.3903 809.2054,290.2653 Q809.2054,287.1403 810.5179,285.484 Q811.846,283.8278 814.346,283.8278 Q815.0491,283.8278 815.6897,283.984 Q816.346,284.1403 816.9085,284.4372 L816.9085,287.1559 Q816.2835,286.5778 815.6897,286.3122 Q815.096,286.0309 814.471,286.0309 Q813.1272,286.0309 812.4397,287.109 Q811.7522,288.1715 811.7522,290.2653 Q811.7522,292.359 812.4397,293.4372 Q813.1272,294.4997 814.471,294.4997 Q815.096,294.4997 815.6897,294.234 Q816.2835,293.9528 816.9085,293.3747 L816.9085,296.0934 Z " fill="#000000"/><text fill="#000000" font-family="sans-serif" font-size="14" lengthAdjust="spacing" textLength="61.3594" x="834.4397" y="295.2995">Message</text><line style="stroke:#181818;stroke-width:0.5;" x1="734.72" x2="963.0188" y1="306.4528" y2="306.4528"/><text fill="#000000" font-family="sans-serif" font-size="14" lengthAdjust="spacing" textLength="78.8252" x="739.72" y="323.4479">text: String</text><text fill="#000000" font-family="sans-serif" font-size="14" lengthAdjust="spacing" textLength="218.2988" x="739.72" y="339.7448">sender_timestamp: Timestamp</text><text fill="#000000" font-family="sans-serif" font-size="14" lengthAdjust="spacing" textLength="98.0752" x="739.72" y="356.0417">index: Integer</text><text fill="#000000" font-family="sans-serif" font-size="14" lengthAdjust="spacing" textLength="97.084" x="739.72" y="372.3385">author: String</text></g><g class="entity" data-qualified-name="Registry" data-source-line="35" id="ent0014"><rect fill="#F1F1F1" height="20.2969" rx="2.5" ry="2.5" style="stroke:#181818;stroke-width:0.5;" width="71.9414" x="56.9" y="53.7128"/><text fill="#000000" font-family="sans-serif" font-size="14" lengthAdjust="spacing" textLength="57.9414" x="63.9" y="68.7079">Registry</text></g><!--reverse link Remote to Chat--><g class="link" data-entity-1="ent0003" data-entity-2="ent0002" data-link-type="extension" data-source-line="7" id="lnk4"><path d="M474.4039,90.4849 C497.0539,105.9549 517.84,120.1428 547.53,140.4228" fill="none" id="Remote-backto-Chat" style="stroke:#181818;stroke-width:1;"/><polygon fill="none" points="459.54,80.3328,471.0199,95.4395,477.7879,85.5302,459.54,80.3328" style="stroke:#181818;stroke-width:1;"/></g><!--reverse link Chat to DirectChat--><g class="link" data-entity-1="ent0002" data-entity-2="ent0005" data-link-type="extension" data-source-line="12" id="lnk6"><path d="M593.7417,231.4647 C590.7317,257.6147 588.76,274.7928 586.01,298.7828" fill="none" id="Chat-backto-DirectChat" style="stroke:#181818;stroke-width:1;stroke-dasharray:7,7;"/><polygon fill="none" points="595.8,213.5828,587.7811,230.7786,599.7023,232.1508,595.8,213.5828" style="stroke:#181818;stroke-width:1;"/></g><!--reverse link Remote to Identity--><g class="link" data-entity-1="ent0003" data-entity-2="ent0007" data-link-type="extension" data-source-line="16" id="lnk8"><path d="M384.6225,87.4864 C348.9025,102.9564 309.21,120.1428 262.39,140.4228" fill="none" id="Remote-backto-Identity" style="stroke:#181818;stroke-width:1;"/><polygon fill="none" points="401.14,80.3328,382.238,81.9805,387.0071,92.9922,401.14,80.3328" style="stroke:#181818;stroke-width:1;"/></g><!--reverse link Identity to HumanIdentity--><g class="link" data-entity-1="ent0007" data-entity-2="ent0009" data-link-type="extension" data-source-line="21" id="lnk10"><path d="M213.9031,228.4936 C228.7531,250.4536 237.78,263.7928 253.12,286.4828" fill="none" id="Identity-backto-HumanIdentity" style="stroke:#181818;stroke-width:1;stroke-dasharray:7,7;"/><polygon fill="none" points="203.82,213.5828,208.9328,231.8546,218.8734,225.1325,203.82,213.5828" style="stroke:#181818;stroke-width:1;"/></g><!--link HumanIdentity to DirectChat--><g class="link" data-entity-1="ent0009" data-entity-2="ent0005" data-link-type="association" data-source-line="25" id="lnk11"><path codeLine="25" d="M410.13,327.0528 C451.99,327.0528 496.06,327.0528 529.21,327.0528" fill="none" id="HumanIdentity-DirectChat" style="stroke:#181818;stroke-width:1;"/><polygon fill="#000000" points="445.6,315.6192,436.5549,312.6803,436.5549,318.5581,445.6,315.6192" style="stroke:#000000;stroke-width:1;"/><text fill="#000000" font-family="sans-serif" font-size="13" lengthAdjust="spacing" textLength="53.0854" x="449.6" y="320.1197">manage</text><text fill="#000000" font-family="sans-serif" font-size="13" lengthAdjust="spacing" textLength="8.271" x="417.8998" y="323.6901">1</text><text fill="#000000" font-family="sans-serif" font-size="13" lengthAdjust="spacing" textLength="6.5" x="514.9246" y="323.0281">*</text></g><!--link DirectChat to Message--><g class="link" data-entity-1="ent0005" data-entity-2="ent0012" data-link-type="association" data-source-line="26" id="lnk13"><path codeLine="26" d="M636.7,327.0528 C664.56,327.0528 699.7,327.0528 733.33,327.0528" fill="none" id="DirectChat-Message" style="stroke:#181818;stroke-width:1;"/><polygon fill="#000000" points="663.53,315.6192,654.4849,312.6803,654.4849,318.5581,663.53,315.6192" style="stroke:#000000;stroke-width:1;"/><text fill="#000000" font-family="sans-serif" font-size="13" lengthAdjust="spacing" textLength="48.2549" x="667.53" y="320.1197">contain</text><text fill="#000000" font-family="sans-serif" font-size="13" lengthAdjust="spacing" textLength="8.271" x="644.489" y="323.121">1</text><text fill="#000000" font-family="sans-serif" font-size="13" lengthAdjust="spacing" textLength="6.5" x="719.3824" y="323.6207">*</text></g><!--link Registry to Remote--><g class="link" data-entity-1="ent0014" data-entity-2="ent0003" data-link-type="association" data-source-line="37" id="lnk15"><path codeLine="37" d="M129.04,63.8628 C192.69,63.8628 324.49,63.8628 393.14,63.8628" fill="none" id="Registry-Remote" style="stroke:#181818;stroke-width:1;"/><polygon fill="#000000" points="156.2,52.4292,147.1549,49.4903,147.1549,55.3681,156.2,52.4292" style="stroke:#000000;stroke-width:1;"/><text fill="#000000" font-family="sans-serif" font-size="13" lengthAdjust="spacing" textLength="215.814" x="160.2" y="56.9297">take notes by String of published</text><text fill="#000000" font-family="sans-serif" font-size="13" lengthAdjust="spacing" textLength="24.8066" x="136.7813" y="77.1358">0..1</text><text fill="#000000" font-family="sans-serif" font-size="13" lengthAdjust="spacing" textLength="6.5" x="379.1507" y="59.652">*</text></g><?plantuml-src TP7BJiCm44Nt_efHLYc22hPPi024O549yLWXXDnacfZ63zaJrAZYtvawJXeGP9EHvuxd-5vIr29aLrug4yXw3SuQxCd67rGOL6qo8HfL8Q1sr8D6lKOVX526q6zaYN3TI0BS4Pegm2DgImXx0Vm5FbfX2BB6d5XHm1DvPUhJs47_JafZ8AbT0SzZkOYZPMi3vWln9KJPoX3WHdaiAUvIshMeqL0OTkz_JnpPxYkMAUR-aq-6xQtrXpjosyL_CKqC6D8vRpynIb9ThQJX1_cPj8WSHzQxJaiphPxXJcV3_YwWDrBZw4iyR5MW1-b9bSf97df9edmnobxV3gj-BiakihFi99lPL82Ee70fPjwDkXHB0QKrnF6pAi6dJaASnpPb-azoiQ-ulMDlE08sQJ2neyRwwHPcj-iF1k8mQdwixuKOAyZEbyk4E4HL0CajWk4omBfFbu3TWElMx5M35RD_0m00?></g></svg>