<?plantuml 1.2026.1?><svg xmlns="http://www.w3.org/2000/svg" xmlns:xlink="http://www.w3.org/1999/xlink" contentStyleType="text/css" data-diagram-type="CLASS" height="1210px" preserveAspectRatio="none" style="width:864px;height:1210px;background:#FFFFFF;" version="1.1" viewBox="0 0 864 1210" width="864px" zoomAndPan="magnify"><title>Diagramme de classe poneytoponey</title><defs/><g><g class="title" data-source-line="1"><text fill="#000000" font-family="sans-serif" font-size="14" font-weight="bold" lengthAdjust="spacing" textLength="286.5215" x="281.8149" y="22.9951">Diagramme de classe poneytoponey</text></g><!--class Remote--><g class="entity" data-qualified-name="Remote" data-source-line="5" id="ent0002"><rect fill="#F1F1F1" height="40.2656" rx="2.5" ry="2.5" style="stroke:#181818;stroke-width:0.5;" width="91.5977" x="343.17" y="44.2969"/><ellipse cx="358.17" cy="64.4297" fill="#B4A7E5" rx="11" ry="11" style="stroke:#181818;stroke-width:1;"/><path d="M354.0919,60.1953 L354.0919,58.0391 L361.4825,58.0391 L361.4825,60.1953 L359.0138,60.1953 L359.0138,68.2734 L361.4825,68.2734 L361.4825,70.4297 L354.0919,70.4297 L354.0919,68.2734 L356.5606,68.2734 L356.5606,60.1953 L354.0919,60.1953 Z " fill="#000000"/><text fill="#000000" font-family="sans-serif" font-size="12" font-style="italic" lengthAdjust="spacing" textLength="63.5977" x="370.17" y="60.4355">&#171;java.rmi&#187;</text><text fill="#000000" font-family="sans-serif" font-size="14" font-style="italic" lengthAdjust="spacing" textLength="54.6465" x="374.6456" y="76.2607">Remote</text></g><!--class App--><g class="entity" data-qualified-name="App" data-source-line="7" id="ent0003"><rect fill="#F1F1F1" height="32" rx="2.5" ry="2.5" style="stroke:#181818;stroke-width:0.5;" width="59.3506" x="441.3" y="713.0169"/><ellipse cx="456.3" cy="729.0169" fill="#ADD1B2" rx="11" ry="11" style="stroke:#181818;stroke-width:1;"/><path d="M459.2688,734.6575 Q458.6906,734.9544 458.05,735.095 Q457.4094,735.2513 456.7063,735.2513 Q454.2063,735.2513 452.8781,733.6106 Q451.5656,731.9544 451.5656,728.8294 Q451.5656,725.7044 452.8781,724.0481 Q454.2063,722.3919 456.7063,722.3919 Q457.4094,722.3919 458.05,722.5481 Q458.7063,722.7044 459.2688,723.0013 L459.2688,725.72 Q458.6438,725.1419 458.05,724.8763 Q457.4563,724.595 456.8313,724.595 Q455.4875,724.595 454.8,725.6731 Q454.1125,726.7356 454.1125,728.8294 Q454.1125,730.9231 454.8,732.0013 Q455.4875,733.0638 456.8313,733.0638 Q457.4563,733.0638 458.05,732.7981 Q458.6438,732.5169 459.2688,731.9388 L459.2688,734.6575 Z " fill="#000000"/><text fill="#000000" font-family="sans-serif" font-size="14" lengthAdjust="spacing" textLength="27.3506" x="470.3" y="733.8636">App</text></g><!--class HumanIdentity--><g class="entity" data-qualified-name="HumanIdentity" data-source-line="8" id="ent0004"><rect fill="#F1F1F1" height="194.6719" rx="2.5" ry="2.5" style="stroke:#181818;stroke-width:0.5;" width="325.168" x="226.39" y="404.7569"/><ellipse cx="332.6512" cy="420.7569" fill="#ADD1B2" rx="11" ry="11" style="stroke:#181818;stroke-width:1;"/><path d="M335.62,426.3975 Q335.0419,426.6944 334.4012,426.835 Q333.7606,426.9913 333.0575,426.9913 Q330.5575,426.9913 329.2294,425.3506 Q327.9169,423.6944 327.9169,420.5694 Q327.9169,417.4444 329.2294,415.7881 Q330.5575,414.1319 333.0575,414.1319 Q333.7606,414.1319 334.4012,414.2881 Q335.0575,414.4444 335.62,414.7413 L335.62,417.46 Q334.995,416.8819 334.4012,416.6163 Q333.8075,416.335 333.1825,416.335 Q331.8387,416.335 331.1512,417.4131 Q330.4637,418.4756 330.4637,420.5694 Q330.4637,422.6631 331.1512,423.7413 Q331.8387,424.8038 333.1825,424.8038 Q333.8075,424.8038 334.4012,424.5381 Q334.995,424.2569 335.62,423.6788 L335.62,426.3975 Z " fill="#000000"/><text fill="#000000" font-family="sans-serif" font-size="14" lengthAdjust="spacing" textLength="104.1455" x="353.1512" y="425.6036">HumanIdentity</text><line style="stroke:#181818;stroke-width:0.5;" x1="227.39" x2="550.558" y1="436.7569" y2="436.7569"/><g data-visibility-modifier="PRIVATE_FIELD"><rect fill="none" height="6" style="stroke:#C82930;stroke-width:1;" width="6" x="234.39" y="447.4053"/></g><text fill="#000000" font-family="sans-serif" font-size="14" lengthAdjust="spacing" textLength="121.1875" x="246.39" y="453.752">username: String</text><line style="stroke:#181818;stroke-width:0.5;" x1="227.39" x2="550.558" y1="461.0538" y2="461.0538"/><g data-visibility-modifier="PUBLIC_METHOD"><ellipse cx="237.39" cy="474.7022" fill="#84BE84" rx="3" ry="3" style="stroke:#038048;stroke-width:1;"/></g><text fill="#000000" font-family="sans-serif" font-size="14" lengthAdjust="spacing" textLength="156.4746" x="246.39" y="478.0489">getUsername(): String</text><g data-visibility-modifier="PUBLIC_METHOD"><ellipse cx="237.39" cy="490.9991" fill="#84BE84" rx="3" ry="3" style="stroke:#038048;stroke-width:1;"/></g><text fill="#000000" font-family="sans-serif" font-size="14" lengthAdjust="spacing" textLength="247.8369" x="246.39" y="494.3457">listParticipantsUsername(): String[]</text><g data-visibility-modifier="PUBLIC_METHOD"><ellipse cx="237.39" cy="507.2959" fill="#84BE84" rx="3" ry="3" style="stroke:#038048;stroke-width:1;"/></g><text fill="#000000" font-family="sans-serif" font-size="14" lengthAdjust="spacing" textLength="126.7314" x="246.39" y="510.6426">getChats(): Chat[]</text><g data-visibility-modifier="PUBLIC_METHOD"><ellipse cx="237.39" cy="523.5928" fill="#84BE84" rx="3" ry="3" style="stroke:#038048;stroke-width:1;"/></g><text fill="#000000" font-family="sans-serif" font-size="14" lengthAdjust="spacing" textLength="242.9287" x="246.39" y="526.9395">createChat(recipient: String): Chat</text><g data-visibility-modifier="PUBLIC_METHOD"><ellipse cx="237.39" cy="539.8897" fill="#84BE84" rx="3" ry="3" style="stroke:#038048;stroke-width:1;"/></g><text fill="#000000" font-family="sans-serif" font-size="14" lengthAdjust="spacing" textLength="185.9307" x="246.39" y="543.2364">approveChat(chatId: Uuid)</text><g data-visibility-modifier="PUBLIC_METHOD"><ellipse cx="237.39" cy="556.1866" fill="#84BE84" rx="3" ry="3" style="stroke:#038048;stroke-width:1;"/></g><text fill="#000000" font-family="sans-serif" font-size="14" lengthAdjust="spacing" textLength="299.168" x="246.39" y="559.5332">subscribeViewForChatRequest(view: View)</text><g data-visibility-modifier="PUBLIC_METHOD"><ellipse cx="237.39" cy="572.4834" fill="#84BE84" rx="3" ry="3" style="stroke:#038048;stroke-width:1;"/></g><text fill="#000000" font-family="sans-serif" font-size="14" lengthAdjust="spacing" textLength="278.3936" x="246.39" y="575.8301">sendMessage(chatId: Uuid, text: String)</text><g data-visibility-modifier="PUBLIC_METHOD"><ellipse cx="237.39" cy="588.7803" fill="#84BE84" rx="3" ry="3" style="stroke:#038048;stroke-width:1;"/></g><text fill="#000000" font-family="sans-serif" font-size="14" lengthAdjust="spacing" textLength="164.418" x="246.39" y="592.127">closeChat(chatId: Uuid)</text></g><!--class View--><g class="entity" data-qualified-name="View" data-source-line="9" id="ent0006"><rect fill="#F1F1F1" height="72.5938" rx="2.5" ry="2.5" style="stroke:#181818;stroke-width:0.5;" width="271.335" x="195.3" y="858.6169"/><ellipse cx="309.9523" cy="874.6169" fill="#B4A7E5" rx="11" ry="11" style="stroke:#181818;stroke-width:1;"/><path d="M305.8742,870.3825 L305.8742,868.2263 L313.2648,868.2263 L313.2648,870.3825 L310.7961,870.3825 L310.7961,878.4606 L313.2648,878.4606 L313.2648,880.6169 L305.8742,880.6169 L305.8742,878.4606 L308.343,878.4606 L308.343,870.3825 L305.8742,870.3825 Z " fill="#000000"/><text fill="#000000" font-family="sans-serif" font-size="14" font-style="italic" lengthAdjust="spacing" textLength="33.5303" x="330.4523" y="879.4636">View</text><line style="stroke:#181818;stroke-width:0.5;" x1="196.3" x2="465.635" y1="890.6169" y2="890.6169"/><text fill="#000000" font-family="sans-serif" font-size="14" lengthAdjust="spacing" textLength="259.335" x="201.3" y="907.612">start(humanIdentity: HumanIdentity)</text><text fill="#000000" font-family="sans-serif" font-size="14" lengthAdjust="spacing" textLength="221.1563" x="201.3" y="923.9089">showChatRequest(from: String)</text></g><!--class ShellView--><g class="entity" data-qualified-name="ShellView" data-source-line="16" id="ent0008"><rect fill="#F1F1F1" height="210.9688" rx="2.5" ry="2.5" style="stroke:#181818;stroke-width:0.5;" width="273.3311" x="194.31" y="992.2069"/><ellipse cx="292.8842" cy="1008.2069" fill="#ADD1B2" rx="11" ry="11" style="stroke:#181818;stroke-width:1;"/><path d="M295.853,1013.8475 Q295.2748,1014.1444 294.6342,1014.285 Q293.9936,1014.4413 293.2905,1014.4413 Q290.7905,1014.4413 289.4623,1012.8006 Q288.1498,1011.1444 288.1498,1008.0194 Q288.1498,1004.8944 289.4623,1003.2381 Q290.7905,1001.5819 293.2905,1001.5819 Q293.9936,1001.5819 294.6342,1001.7381 Q295.2905,1001.8944 295.853,1002.1913 L295.853,1004.91 Q295.228,1004.3319 294.6342,1004.0663 Q294.0405,1003.785 293.4155,1003.785 Q292.0717,1003.785 291.3842,1004.8631 Q290.6967,1005.9256 290.6967,1008.0194 Q290.6967,1010.1131 291.3842,1011.1913 Q292.0717,1012.2538 293.4155,1012.2538 Q294.0405,1012.2538 294.6342,1011.9881 Q295.228,1011.7069 295.853,1011.1288 L295.853,1013.8475 Z " fill="#000000"/><text fill="#000000" font-family="sans-serif" font-size="14" lengthAdjust="spacing" textLength="67.6826" x="313.3842" y="1013.0536">ShellView</text><line style="stroke:#181818;stroke-width:0.5;" x1="195.31" x2="466.6411" y1="1024.2069" y2="1024.2069"/><g data-visibility-modifier="PRIVATE_FIELD"><rect fill="none" height="6" style="stroke:#C82930;stroke-width:1;" width="6" x="202.31" y="1034.8553"/></g><text fill="#000000" font-family="sans-serif" font-size="14" lengthAdjust="spacing" textLength="124.8379" x="214.31" y="1041.202">currentChat: Uuid</text><g data-visibility-modifier="PRIVATE_FIELD"><rect fill="none" height="6" style="stroke:#C82930;stroke-width:1;" width="6" x="202.31" y="1051.1522"/></g><text fill="#000000" font-family="sans-serif" font-size="14" lengthAdjust="spacing" textLength="140.2461" x="214.31" y="1057.4989">joinedNetwork: bool</text><line style="stroke:#181818;stroke-width:0.5;" x1="195.31" x2="466.6411" y1="1064.8006" y2="1064.8006"/><g data-visibility-modifier="PRIVATE_METHOD"><rect fill="#F24D5C" height="6" style="stroke:#C82930;stroke-width:1;" width="6" x="202.31" y="1075.4491"/></g><text fill="#000000" font-family="sans-serif" font-size="14" lengthAdjust="spacing" textLength="157.3291" x="214.31" y="1081.7957">join(username: String)</text><g data-visibility-modifier="PRIVATE_METHOD"><rect fill="#F24D5C" height="6" style="stroke:#C82930;stroke-width:1;" width="6" x="202.31" y="1091.7459"/></g><text fill="#000000" font-family="sans-serif" font-size="14" lengthAdjust="spacing" textLength="79.0234" x="214.31" y="1098.0926">showHelp()</text><g data-visibility-modifier="PRIVATE_METHOD"><rect fill="#F24D5C" height="6" style="stroke:#C82930;stroke-width:1;" width="6" x="202.31" y="1108.0428"/></g><text fill="#000000" font-family="sans-serif" font-size="14" lengthAdjust="spacing" textLength="247.3311" x="214.31" y="1114.3895">createSwitchChat(recipient: String)</text><g data-visibility-modifier="PRIVATE_METHOD"><rect fill="#F24D5C" height="6" style="stroke:#C82930;stroke-width:1;" width="6" x="202.31" y="1124.3397"/></g><text fill="#000000" font-family="sans-serif" font-size="14" lengthAdjust="spacing" textLength="192.3564" x="214.31" y="1130.6864">closeChat(recipient: String)</text><g data-visibility-modifier="PRIVATE_METHOD"><rect fill="#F24D5C" height="6" style="stroke:#C82930;stroke-width:1;" width="6" x="202.31" y="1140.6366"/></g><text fill="#000000" font-family="sans-serif" font-size="14" lengthAdjust="spacing" textLength="184.7754" x="214.31" y="1146.9832">sendMessage(text: String)</text><g data-visibility-modifier="PRIVATE_METHOD"><rect fill="#F24D5C" height="6" style="stroke:#C82930;stroke-width:1;" width="6" x="202.31" y="1156.9334"/></g><text fill="#000000" font-family="sans-serif" font-size="14" lengthAdjust="spacing" textLength="114.3516" x="214.31" y="1163.2801">listParticipants()</text><g data-visibility-modifier="PRIVATE_METHOD"><rect fill="#F24D5C" height="6" style="stroke:#C82930;stroke-width:1;" width="6" x="202.31" y="1173.2303"/></g><text fill="#000000" font-family="sans-serif" font-size="14" lengthAdjust="spacing" textLength="157.3564" x="214.31" y="1179.577">waitWithShellPrompt()</text><g data-visibility-modifier="PRIVATE_METHOD"><rect fill="#F24D5C" height="6" style="stroke:#C82930;stroke-width:1;" width="6" x="202.31" y="1189.5272"/></g><text fill="#000000" font-family="sans-serif" font-size="14" lengthAdjust="spacing" textLength="122.0078" x="214.31" y="1195.8739">parseCommand()</text></g><!--class Chat--><g class="entity" data-qualified-name="Chat" data-source-line="29" id="ent0010"><rect fill="#F1F1F1" height="113.1875" rx="2.5" ry="2.5" style="stroke:#181818;stroke-width:0.5;" width="166.4443" x="653.75" y="445.4969"/><ellipse cx="716.3638" cy="461.4969" fill="#ADD1B2" rx="11" ry="11" style="stroke:#181818;stroke-width:1;"/><path d="M719.3325,467.1375 Q718.7544,467.4344 718.1138,467.575 Q717.4731,467.7313 716.77,467.7313 Q714.27,467.7313 712.9419,466.0906 Q711.6294,464.4344 711.6294,461.3094 Q711.6294,458.1844 712.9419,456.5281 Q714.27,454.8719 716.77,454.8719 Q717.4731,454.8719 718.1138,455.0281 Q718.77,455.1844 719.3325,455.4813 L719.3325,458.2 Q718.7075,457.6219 718.1138,457.3563 Q717.52,457.075 716.895,457.075 Q715.5513,457.075 714.8638,458.1531 Q714.1763,459.2156 714.1763,461.3094 Q714.1763,463.4031 714.8638,464.4813 Q715.5513,465.5438 716.895,465.5438 Q717.52,465.5438 718.1138,465.2781 Q718.7075,464.9969 719.3325,464.4188 L719.3325,467.1375 Z " fill="#000000"/><text fill="#000000" font-family="sans-serif" font-size="14" lengthAdjust="spacing" textLength="32.7168" x="736.8638" y="466.3436">Chat</text><line style="stroke:#181818;stroke-width:0.5;" x1="654.75" x2="819.1943" y1="477.4969" y2="477.4969"/><g data-visibility-modifier="PRIVATE_FIELD"><rect fill="none" height="6" style="stroke:#C82930;stroke-width:1;" width="6" x="661.75" y="488.1453"/></g><text fill="#000000" font-family="sans-serif" font-size="14" lengthAdjust="spacing" textLength="71.5859" x="673.75" y="494.492">uuid: Uuid</text><g data-visibility-modifier="PRIVATE_FIELD"><rect fill="none" height="6" style="stroke:#C82930;stroke-width:1;" width="6" x="661.75" y="504.4422"/></g><text fill="#000000" font-family="sans-serif" font-size="14" lengthAdjust="spacing" textLength="105.5332" x="673.75" y="510.7889">approved: bool</text><line style="stroke:#181818;stroke-width:0.5;" x1="654.75" x2="819.1943" y1="518.0906" y2="518.0906"/><g data-visibility-modifier="PUBLIC_METHOD"><ellipse cx="664.75" cy="531.7391" fill="#84BE84" rx="3" ry="3" style="stroke:#038048;stroke-width:1;"/></g><text fill="#000000" font-family="sans-serif" font-size="14" lengthAdjust="spacing" textLength="106.873" x="673.75" y="535.0857">getUuid(): Uuid</text><g data-visibility-modifier="PUBLIC_METHOD"><ellipse cx="664.75" cy="548.0359" fill="#84BE84" rx="3" ry="3" style="stroke:#038048;stroke-width:1;"/></g><text fill="#000000" font-family="sans-serif" font-size="14" lengthAdjust="spacing" textLength="140.4443" x="673.75" y="551.3826">getApproved(): bool</text></g><!--class Identity--><g class="entity" data-qualified-name="Identity" data-source-line="36" id="ent0011"><rect fill="#F1F1F1" height="105.1875" rx="2.5" ry="2.5" style="stroke:#181818;stroke-width:0.5;" width="625.6416" x="76.15" y="145.5669"/><ellipse cx="357.8932" cy="161.5669" fill="#B4A7E5" rx="11" ry="11" style="stroke:#181818;stroke-width:1;"/><path d="M353.815,157.3325 L353.815,155.1763 L361.2057,155.1763 L361.2057,157.3325 L358.7369,157.3325 L358.7369,165.4106 L361.2057,165.4106 L361.2057,167.5669 L353.815,167.5669 L353.815,165.4106 L356.2838,165.4106 L356.2838,157.3325 L353.815,157.3325 Z " fill="#000000"/><text fill="#000000" font-family="sans-serif" font-size="14" font-style="italic" lengthAdjust="spacing" textLength="53.6553" x="378.3932" y="166.4136">Identity</text><line style="stroke:#181818;stroke-width:0.5;" x1="77.15" x2="700.7916" y1="177.5669" y2="177.5669"/><g data-visibility-modifier="PUBLIC_METHOD"><ellipse cx="87.15" cy="191.2153" fill="#84BE84" rx="3" ry="3" style="stroke:#038048;stroke-width:1;"/></g><text fill="#000000" font-family="sans-serif" font-size="14" lengthAdjust="spacing" textLength="332.3701" x="96.15" y="194.562">remoteAskForChat(author: String, chatId: Uuid)</text><g data-visibility-modifier="PUBLIC_METHOD"><ellipse cx="87.15" cy="207.5122" fill="#84BE84" rx="3" ry="3" style="stroke:#038048;stroke-width:1;"/></g><text fill="#000000" font-family="sans-serif" font-size="14" lengthAdjust="spacing" textLength="271.5918" x="96.15" y="210.8589">remoteApproveBackChat(chatId: Uuid)</text><g data-visibility-modifier="PUBLIC_METHOD"><ellipse cx="87.15" cy="223.8091" fill="#84BE84" rx="3" ry="3" style="stroke:#038048;stroke-width:1;"/></g><text fill="#000000" font-family="sans-serif" font-size="14" lengthAdjust="spacing" textLength="599.6416" x="96.15" y="227.1557">remoteSendMessageInChat(chatId: Uuid, text: String, senderTimestamp: Timestamp)</text><g data-visibility-modifier="PUBLIC_METHOD"><ellipse cx="87.15" cy="240.1059" fill="#84BE84" rx="3" ry="3" style="stroke:#038048;stroke-width:1;"/></g><text fill="#000000" font-family="sans-serif" font-size="14" lengthAdjust="spacing" textLength="217.1709" x="96.15" y="243.4526">remoteCloseChat(chatId: Uuid)</text></g><!--class Message--><g class="entity" data-qualified-name="Message" data-source-line="58" id="ent0018"><rect fill="#F1F1F1" height="105.1875" rx="2.5" ry="2.5" style="stroke:#181818;stroke-width:0.5;" width="240.3613" x="616.79" y="676.4269"/><ellipse cx="702.041" cy="692.4269" fill="#ADD1B2" rx="11" ry="11" style="stroke:#181818;stroke-width:1;"/><path d="M705.0097,698.0675 Q704.4316,698.3644 703.791,698.505 Q703.1504,698.6613 702.4472,698.6613 Q699.9472,698.6613 698.6191,697.0206 Q697.3066,695.3644 697.3066,692.2394 Q697.3066,689.1144 698.6191,687.4581 Q699.9472,685.8019 702.4472,685.8019 Q703.1504,685.8019 703.791,685.9581 Q704.4472,686.1144 705.0097,686.4113 L705.0097,689.13 Q704.3847,688.5519 703.791,688.2863 Q703.1972,688.005 702.5722,688.005 Q701.2285,688.005 700.541,689.0831 Q699.8535,690.1456 699.8535,692.2394 Q699.8535,694.3331 700.541,695.4113 Q701.2285,696.4738 702.5722,696.4738 Q703.1972,696.4738 703.791,696.2081 Q704.3847,695.9269 705.0097,695.3488 L705.0097,698.0675 Z " fill="#000000"/><text fill="#000000" font-family="sans-serif" font-size="14" lengthAdjust="spacing" textLength="61.3594" x="722.541" y="697.2736">Message</text><line style="stroke:#181818;stroke-width:0.5;" x1="617.79" x2="856.1513" y1="708.4269" y2="708.4269"/><g data-visibility-modifier="PRIVATE_FIELD"><rect fill="none" height="6" style="stroke:#C82930;stroke-width:1;" width="6" x="624.79" y="719.0753"/></g><text fill="#000000" font-family="sans-serif" font-size="14" lengthAdjust="spacing" textLength="78.8252" x="636.79" y="725.422">text: String</text><g data-visibility-modifier="PRIVATE_FIELD"><rect fill="none" height="6" style="stroke:#C82930;stroke-width:1;" width="6" x="624.79" y="735.3722"/></g><text fill="#000000" font-family="sans-serif" font-size="14" lengthAdjust="spacing" textLength="214.3613" x="636.79" y="741.7189">senderTimestamp: Timestamp</text><g data-visibility-modifier="PRIVATE_FIELD"><rect fill="none" height="6" style="stroke:#C82930;stroke-width:1;" width="6" x="624.79" y="751.6691"/></g><text fill="#000000" font-family="sans-serif" font-size="14" lengthAdjust="spacing" textLength="98.0752" x="636.79" y="758.0157">index: Integer</text><g data-visibility-modifier="PRIVATE_FIELD"><rect fill="none" height="6" style="stroke:#C82930;stroke-width:1;" width="6" x="624.79" y="767.9659"/></g><text fill="#000000" font-family="sans-serif" font-size="14" lengthAdjust="spacing" textLength="97.084" x="636.79" y="774.3126">author: String</text></g><g class="entity" data-qualified-name="Registry" data-source-line="67" id="ent0020"><rect fill="#F1F1F1" height="20.2969" rx="2.5" ry="2.5" style="stroke:#181818;stroke-width:0.5;" width="71.9414" x="7" y="54.2869"/><text fill="#000000" font-family="sans-serif" font-size="14" lengthAdjust="spacing" textLength="57.9414" x="14" y="69.282">Registry</text></g><!--link HumanIdentity to App--><g class="link" data-entity-1="ent0004" data-entity-2="ent0003" data-link-type="association" data-source-line="8" id="lnk5"><path codeLine="8" d="M424.22,599.7869 C439.94,642.8869 456.8,689.1469 465.33,712.5469" fill="none" id="HumanIdentity-App" style="stroke:#181818;stroke-width:1;"/><polygon fill="#000000" points="443.0174,633.2957,443.3544,642.8003,448.8767,640.787,443.0174,633.2957" style="stroke:#000000;stroke-width:1;"/><text fill="#000000" font-family="sans-serif" font-size="13" lengthAdjust="spacing" textLength="41.5518" x="453.73" y="642.4938">create</text><text fill="#000000" font-family="sans-serif" font-size="13" lengthAdjust="spacing" textLength="8.271" x="418.5246" y="619.5838">1</text><text fill="#000000" font-family="sans-serif" font-size="13" lengthAdjust="spacing" textLength="24.8066" x="435.8341" y="701.9945">0..1</text></g><!--link App to View--><g class="link" data-entity-1="ent0003" data-entity-2="ent0006" data-link-type="association" data-source-line="9" id="lnk7"><path codeLine="9" d="M457.8,745.4369 C435.88,771.0969 391.37,823.2069 361.35,858.3469" fill="none" id="App-View" style="stroke:#181818;stroke-width:1;"/><polygon fill="#000000" points="402.7225,823.985,410.8319,819.0164,406.3627,815.1987,402.7225,823.985" style="stroke:#000000;stroke-width:1;"/><text fill="#000000" font-family="sans-serif" font-size="13" lengthAdjust="spacing" textLength="30.2783" x="414.97" y="824.6838">start</text><text fill="#000000" font-family="sans-serif" font-size="13" lengthAdjust="spacing" textLength="8.271" x="444.3686" y="765.1494">1</text><text fill="#000000" font-family="sans-serif" font-size="13" lengthAdjust="spacing" textLength="8.271" x="358.0735" y="847.5762">1</text></g><!--reverse link View to ShellView--><g class="link" data-entity-1="ent0006" data-entity-2="ent0008" data-link-type="extension" data-source-line="17" id="lnk9"><path d="M330.97,949.3469 C330.97,966.4569 330.97,969.9769 330.97,991.7869" fill="none" id="View-backto-ShellView" style="stroke:#181818;stroke-width:1;stroke-dasharray:7,7;"/><polygon fill="none" points="330.97,931.3469,324.97,949.3469,336.97,949.3469,330.97,931.3469" style="stroke:#181818;stroke-width:1;"/></g><!--reverse link Remote to Identity--><g class="link" data-entity-1="ent0002" data-entity-2="ent0011" data-link-type="extension" data-source-line="37" id="lnk12"><path d="M388.97,102.8669 C388.97,118.7569 388.97,123.9769 388.97,145.1869" fill="none" id="Remote-backto-Identity" style="stroke:#181818;stroke-width:1;"/><polygon fill="none" points="388.97,84.8669,382.97,102.8669,394.97,102.8669,388.97,84.8669" style="stroke:#181818;stroke-width:1;"/></g><!--reverse link Identity to HumanIdentity--><g class="link" data-entity-1="ent0011" data-entity-2="ent0004" data-link-type="extension" data-source-line="44" id="lnk13"><path d="M388.97,269.0669 C388.97,311.1269 388.97,353.5769 388.97,404.4869" fill="none" id="Identity-backto-HumanIdentity" style="stroke:#181818;stroke-width:1;stroke-dasharray:7,7;"/><polygon fill="none" points="388.97,251.0669,382.97,269.0669,394.97,269.0669,388.97,251.0669" style="stroke:#181818;stroke-width:1;"/></g><!--link Identity to HumanIdentity--><g class="link" data-entity-1="ent0011" data-entity-2="ent0004" data-link-type="association" data-source-line="57" id="lnk17"><path codeLine="57" d="M405.13,250.9769 C407.56,260.7769 409.68,271.0069 410.97,280.7569 C416.32,321.1469 413.47,365.8669 408.29,404.4069" fill="none" id="Identity-HumanIdentity" style="stroke:#181818;stroke-width:1;"/><text fill="#000000" font-family="sans-serif" font-size="13" lengthAdjust="spacing" textLength="159.9927" x="414.84" y="324.8238">keep known participants</text><polygon fill="#000000" points="423.3425,330.4572,420.5905,339.5608,426.4671,339.4398,423.3425,330.4572" style="stroke:#000000;stroke-width:1;"/><text fill="#000000" font-family="sans-serif" font-size="13" lengthAdjust="spacing" textLength="143.9141" x="431.4455" y="339.9566">in cache by username</text><text fill="#000000" font-family="sans-serif" font-size="13" lengthAdjust="spacing" textLength="6.5" x="400.8481" y="270.7803">*</text><text fill="#000000" font-family="sans-serif" font-size="13" lengthAdjust="spacing" textLength="8.271" x="401.4247" y="393.7541">1</text></g><!--link HumanIdentity to Chat--><g class="link" data-entity-1="ent0004" data-entity-2="ent0010" data-link-type="association" data-source-line="55" id="lnk14"><path codeLine="55" d="M552.02,502.0869 C587.19,502.0869 622.96,502.0869 653.55,502.0869" fill="none" id="HumanIdentity-Chat" style="stroke:#181818;stroke-width:1;"/><polygon fill="#000000" points="578.65,490.6533,569.6049,487.7144,569.6049,493.5922,578.65,490.6533" style="stroke:#000000;stroke-width:1;"/><text fill="#000000" font-family="sans-serif" font-size="13" lengthAdjust="spacing" textLength="53.0854" x="582.65" y="495.1538">manage</text><text fill="#000000" font-family="sans-serif" font-size="13" lengthAdjust="spacing" textLength="8.271" x="559.5954" y="498.8167">1</text><text fill="#000000" font-family="sans-serif" font-size="13" lengthAdjust="spacing" textLength="6.5" x="639.3367" y="498.4449">*</text></g><!--link HumanIdentity to View--><g class="link" data-entity-1="ent0004" data-entity-2="ent0006" data-link-type="association" data-source-line="56" id="lnk15"><path codeLine="56" d="M343.07,599.6869 C333.52,624.1769 324.88,650.8169 319.97,676.4269 C311.17,722.3369 317.69,734.9169 319.97,781.6169 C321.23,807.3469 324.1,836.2669 326.59,858.3169" fill="none" id="HumanIdentity-View" style="stroke:#181818;stroke-width:1;"/><polygon fill="#000000" points="324.652,734.0732,328.1602,725.2333,322.2943,724.8595,324.652,734.0732" style="stroke:#000000;stroke-width:1;"/><text fill="#000000" font-family="sans-serif" font-size="13" lengthAdjust="spacing" textLength="89.6035" x="333.97" y="733.5838">send event to</text><text fill="#000000" font-family="sans-serif" font-size="13" lengthAdjust="spacing" textLength="8.271" x="331.4151" y="619.4765">1</text><text fill="#000000" font-family="sans-serif" font-size="13" lengthAdjust="spacing" textLength="24.8066" x="299.7446" y="847.5408">0..1</text></g><!--link Chat to Message--><g class="link" data-entity-1="ent0010" data-entity-2="ent0018" data-link-type="association" data-source-line="58" id="lnk19"><path codeLine="58" d="M736.97,558.9769 C736.97,594.8869 736.97,641.2069 736.97,676.2769" fill="none" id="Chat-Message" style="stroke:#181818;stroke-width:1;"/><polygon fill="#000000" points="741.97,642.9933,744.9089,633.9482,739.0311,633.9482,741.97,642.9933" style="stroke:#000000;stroke-width:1;"/><text fill="#000000" font-family="sans-serif" font-size="13" lengthAdjust="spacing" textLength="48.2549" x="750.97" y="642.4938">contain</text><text fill="#000000" font-family="sans-serif" font-size="13" lengthAdjust="spacing" textLength="8.271" x="728.4987" y="578.8989">1</text><text fill="#000000" font-family="sans-serif" font-size="13" lengthAdjust="spacing" textLength="6.5" x="730.6004" y="665.2574">*</text></g><!--link Registry to Remote--><g class="link" data-entity-1="ent0020" data-entity-2="ent0002" data-link-type="association" data-source-line="69" id="lnk21"><path codeLine="69" d="M79.34,64.4369 C142.67,64.4369 273.07,64.4369 342.72,64.4369" fill="none" id="Registry-Remote" style="stroke:#181818;stroke-width:1;"/><polygon fill="#000000" points="106.06,53.0033,97.0149,50.0644,97.0149,55.9422,106.06,53.0033" style="stroke:#000000;stroke-width:1;"/><text fill="#000000" font-family="sans-serif" font-size="13" lengthAdjust="spacing" textLength="215.814" x="110.06" y="57.5038">take notes by String of published</text><text fill="#000000" font-family="sans-serif" font-size="13" lengthAdjust="spacing" textLength="24.8066" x="86.8083" y="77.6626">0..1</text><text fill="#000000" font-family="sans-serif" font-size="13" lengthAdjust="spacing" textLength="6.5" x="328.6046" y="60.2738">*</text></g><?plantuml-src VLHDRzim3BtxLn0-EMjJh5UZ291r69h3XgBPns7RGP7PM8qbUPASD1ZwtqT9jgCqpNA9pFVueIUIJhW68VyesDemAH4g1DumQn5QhN3lTFZBiwmM1A5itHuaoXKQcsL2EJIFZ2CyeDGEuURcYMtPbP5YDiko40ZcRPlTTPAfHONA2VBFh_FfD7z_TNMTUxG4Rf1vxuo-UfIWxm9t9LZ7Z8DPcim3y3S3-WMqgDFm9HnbcqHUhNUtDNCF-AT3wuf7esK9IsU4Ma-obw7MPOrD4y8BsJOeAOHDqqs1TyQGrSSguLidgjx-f8N2wWkwdJQR4bPQDmbIT1QDOX8FEIFewxh3fYq6GvHYkHEErpv9OP2BLb3ArwwyqHR_Jx6egizeBLjZuV3v16-4TVSae21_HbSTgzWnuNu8LmSzxachrerOompbrP8qhef4Er_A85D7mgJoiBOrUejL8ip56fqd59E4w8tpdkk1m7v9ttvi8heEtSuEdHSJNvZmDRURJze4RLZdQcs6Yry29-EYhsrov1FJVc1y4npF4fS7KHVgX7e9gT2NuGdGV1MIkev9wlNnU1JqTdpCuxoZkiSJb7JdQ1kaVzLf1x5xmEkQGg-Ru9Jty_SOn9TeFU8FWptsx9bMZDH8xDlWdBwsMrbkn0hznFKFE0piDYm33mpafBVFFq1FvkVbFLrD-RiSudmJGk5f-Rn1Ykkhtr5K2-2MO73wJNet3M4FEsg3sC96wPto0pMA3x-KKC0Phn5MUnWUarPZ6A-u6obGVtDQdLevHYxZkksHeHrICQBbV4T6N13yNCA2HcwDff_VeodoikdL4t97qxUczZ7xB1jE49K9LSRPBC6n3OAYe_MNYa50FqBRhQZxQgnWzWy0?></g></svg>