<?plantuml 1.2026.1?><svg xmlns="http://www.w3.org/2000/svg" xmlns:xlink="http://www.w3.org/1999/xlink" contentStyleType="text/css" data-diagram-type="CLASS" height="1291px" preserveAspectRatio="none" style="width:846px;height:1291px;background:#FFFFFF;" version="1.1" viewBox="0 0 846 1291" width="846px" zoomAndPan="magnify"><title>Diagramme de classe poneytoponey</title><defs/><g><g class="title" data-source-line="2"><text fill="#000000" font-family="sans-serif" font-size="14" font-weight="bold" lengthAdjust="spacing" textLength="286.5215" x="273.1617" y="22.9951">Diagramme de classe poneytoponey</text></g><!--class Remote--><g class="entity" data-qualified-name="Remote" data-source-line="6" id="ent0002"><rect fill="#F1F1F1" height="40.2656" rx="2.5" ry="2.5" style="stroke:#181818;stroke-width:0.5;" width="91.5977" x="438.38" y="44.2969"/><ellipse cx="453.38" cy="64.4297" fill="#B4A7E5" rx="11" ry="11" style="stroke:#181818;stroke-width:1;"/><path d="M449.3019,60.1953 L449.3019,58.0391 L456.6925,58.0391 L456.6925,60.1953 L454.2238,60.1953 L454.2238,68.2734 L456.6925,68.2734 L456.6925,70.4297 L449.3019,70.4297 L449.3019,68.2734 L451.7706,68.2734 L451.7706,60.1953 L449.3019,60.1953 Z " fill="#000000"/><text fill="#000000" font-family="sans-serif" font-size="12" font-style="italic" lengthAdjust="spacing" textLength="63.5977" x="465.38" y="60.4355">&#171;java.rmi&#187;</text><text fill="#000000" font-family="sans-serif" font-size="14" font-style="italic" lengthAdjust="spacing" textLength="54.6465" x="469.8556" y="76.2607">Remote</text></g><!--class App--><g class="entity" data-qualified-name="App" data-source-line="8" id="ent0003"><rect fill="#F1F1F1" height="32" rx="2.5" ry="2.5" style="stroke:#181818;stroke-width:0.5;" width="59.3506" x="404.51" y="729.3169"/><ellipse cx="419.51" cy="745.3169" fill="#ADD1B2" rx="11" ry="11" style="stroke:#181818;stroke-width:1;"/><path d="M422.4788,750.9575 Q421.9006,751.2544 421.26,751.395 Q420.6194,751.5512 419.9163,751.5512 Q417.4163,751.5512 416.0881,749.9106 Q414.7756,748.2544 414.7756,745.1294 Q414.7756,742.0044 416.0881,740.3481 Q417.4163,738.6919 419.9163,738.6919 Q420.6194,738.6919 421.26,738.8481 Q421.9163,739.0044 422.4788,739.3012 L422.4788,742.02 Q421.8538,741.4419 421.26,741.1762 Q420.6663,740.895 420.0413,740.895 Q418.6975,740.895 418.01,741.9731 Q417.3225,743.0356 417.3225,745.1294 Q417.3225,747.2231 418.01,748.3012 Q418.6975,749.3637 420.0413,749.3637 Q420.6663,749.3637 421.26,749.0981 Q421.8538,748.8169 422.4788,748.2387 L422.4788,750.9575 Z " fill="#000000"/><text fill="#000000" font-family="sans-serif" font-size="14" lengthAdjust="spacing" textLength="27.3506" x="433.51" y="750.1636">App</text></g><!--class HumanIdentity--><g class="entity" data-qualified-name="HumanIdentity" data-source-line="9" id="ent0004"><rect fill="#F1F1F1" height="194.6719" rx="2.5" ry="2.5" style="stroke:#181818;stroke-width:0.5;" width="307.7773" x="330.29" y="421.0469"/><ellipse cx="427.8559" cy="437.0469" fill="#ADD1B2" rx="11" ry="11" style="stroke:#181818;stroke-width:1;"/><path d="M430.8247,442.6875 Q430.2465,442.9844 429.6059,443.125 Q428.9653,443.2812 428.2622,443.2812 Q425.7622,443.2812 424.434,441.6406 Q423.1215,439.9844 423.1215,436.8594 Q423.1215,433.7344 424.434,432.0781 Q425.7622,430.4219 428.2622,430.4219 Q428.9653,430.4219 429.6059,430.5781 Q430.2622,430.7344 430.8247,431.0312 L430.8247,433.75 Q430.1997,433.1719 429.6059,432.9062 Q429.0122,432.625 428.3872,432.625 Q427.0434,432.625 426.3559,433.7031 Q425.6684,434.7656 425.6684,436.8594 Q425.6684,438.9531 426.3559,440.0312 Q427.0434,441.0937 428.3872,441.0937 Q429.0122,441.0937 429.6059,440.8281 Q430.1997,440.5469 430.8247,439.9687 L430.8247,442.6875 Z " fill="#000000"/><text fill="#000000" font-family="sans-serif" font-size="14" lengthAdjust="spacing" textLength="104.1455" x="448.3559" y="441.8936">HumanIdentity</text><line style="stroke:#181818;stroke-width:0.5;" x1="331.29" x2="637.0673" y1="453.0469" y2="453.0469"/><g data-visibility-modifier="PRIVATE_FIELD"><rect fill="none" height="6" style="stroke:#C82930;stroke-width:1;" width="6" x="338.29" y="463.6953"/></g><text fill="#000000" font-family="sans-serif" font-size="14" lengthAdjust="spacing" textLength="121.1875" x="350.29" y="470.042">username: String</text><line style="stroke:#181818;stroke-width:0.5;" x1="331.29" x2="637.0673" y1="477.3437" y2="477.3437"/><g data-visibility-modifier="PUBLIC_METHOD"><ellipse cx="341.29" cy="490.9922" fill="#84BE84" rx="3" ry="3" style="stroke:#038048;stroke-width:1;"/></g><text fill="#000000" font-family="sans-serif" font-size="14" lengthAdjust="spacing" textLength="156.4746" x="350.29" y="494.3389">getUsername(): String</text><g data-visibility-modifier="PUBLIC_METHOD"><ellipse cx="341.29" cy="507.2891" fill="#84BE84" rx="3" ry="3" style="stroke:#038048;stroke-width:1;"/></g><text fill="#000000" font-family="sans-serif" font-size="14" lengthAdjust="spacing" textLength="247.8369" x="350.29" y="510.6357">listParticipantsUsername(): String[]</text><g data-visibility-modifier="PUBLIC_METHOD"><ellipse cx="341.29" cy="523.5859" fill="#84BE84" rx="3" ry="3" style="stroke:#038048;stroke-width:1;"/></g><text fill="#000000" font-family="sans-serif" font-size="14" lengthAdjust="spacing" textLength="126.7314" x="350.29" y="526.9326">getChats(): Chat[]</text><g data-visibility-modifier="PUBLIC_METHOD"><ellipse cx="341.29" cy="539.8828" fill="#84BE84" rx="3" ry="3" style="stroke:#038048;stroke-width:1;"/></g><text fill="#000000" font-family="sans-serif" font-size="14" lengthAdjust="spacing" textLength="242.9287" x="350.29" y="543.2295">createChat(recipient: String): Chat</text><g data-visibility-modifier="PUBLIC_METHOD"><ellipse cx="341.29" cy="556.1797" fill="#84BE84" rx="3" ry="3" style="stroke:#038048;stroke-width:1;"/></g><text fill="#000000" font-family="sans-serif" font-size="14" lengthAdjust="spacing" textLength="185.9307" x="350.29" y="559.5264">approveChat(chatId: Uuid)</text><g data-visibility-modifier="PUBLIC_METHOD"><ellipse cx="341.29" cy="572.4766" fill="#84BE84" rx="3" ry="3" style="stroke:#038048;stroke-width:1;"/></g><text fill="#000000" font-family="sans-serif" font-size="14" lengthAdjust="spacing" textLength="281.7773" x="350.29" y="575.8232">subscribeViewForChatEvent(view: View)</text><g data-visibility-modifier="PUBLIC_METHOD"><ellipse cx="341.29" cy="588.7734" fill="#84BE84" rx="3" ry="3" style="stroke:#038048;stroke-width:1;"/></g><text fill="#000000" font-family="sans-serif" font-size="14" lengthAdjust="spacing" textLength="278.3936" x="350.29" y="592.1201">sendMessage(chatId: Uuid, text: String)</text><g data-visibility-modifier="PUBLIC_METHOD"><ellipse cx="341.29" cy="605.0703" fill="#84BE84" rx="3" ry="3" style="stroke:#038048;stroke-width:1;"/></g><text fill="#000000" font-family="sans-serif" font-size="14" lengthAdjust="spacing" textLength="164.418" x="350.29" y="608.417">closeChat(chatId: Uuid)</text></g><!--class View--><g class="entity" data-qualified-name="View" data-source-line="10" id="ent0006"><rect fill="#F1F1F1" height="121.4844" rx="2.5" ry="2.5" style="stroke:#181818;stroke-width:0.5;" width="271.335" x="348.51" y="874.9069"/><ellipse cx="463.1623" cy="890.9069" fill="#B4A7E5" rx="11" ry="11" style="stroke:#181818;stroke-width:1;"/><path d="M459.0842,886.6725 L459.0842,884.5162 L466.4748,884.5162 L466.4748,886.6725 L464.0061,886.6725 L464.0061,894.7506 L466.4748,894.7506 L466.4748,896.9069 L459.0842,896.9069 L459.0842,894.7506 L461.553,894.7506 L461.553,886.6725 L459.0842,886.6725 Z " fill="#000000"/><text fill="#000000" font-family="sans-serif" font-size="14" font-style="italic" lengthAdjust="spacing" textLength="33.5303" x="483.6623" y="895.7536">View</text><line style="stroke:#181818;stroke-width:0.5;" x1="349.51" x2="618.845" y1="906.9069" y2="906.9069"/><text fill="#000000" font-family="sans-serif" font-size="14" lengthAdjust="spacing" textLength="259.335" x="354.51" y="923.902">start(humanIdentity: HumanIdentity)</text><text fill="#000000" font-family="sans-serif" font-size="14" lengthAdjust="spacing" textLength="221.1563" x="354.51" y="940.1989">showChatRequest(from: String)</text><text fill="#000000" font-family="sans-serif" font-size="14" lengthAdjust="spacing" textLength="201.7969" x="354.51" y="956.4957">showChatClose(from: String)</text><text fill="#000000" font-family="sans-serif" font-size="14" lengthAdjust="spacing" textLength="211.709" x="354.51" y="972.7926">showChatRefuse(from: String)</text><text fill="#000000" font-family="sans-serif" font-size="14" lengthAdjust="spacing" textLength="255.0488" x="354.51" y="989.0895">showChatMessage(message: String)</text></g><!--class ShellView--><g class="entity" data-qualified-name="ShellView" data-source-line="20" id="ent0008"><rect fill="#F1F1F1" height="227.2656" rx="2.5" ry="2.5" style="stroke:#181818;stroke-width:0.5;" width="273.3311" x="347.52" y="1057.3869"/><ellipse cx="446.0942" cy="1073.3869" fill="#ADD1B2" rx="11" ry="11" style="stroke:#181818;stroke-width:1;"/><path d="M449.063,1079.0275 Q448.4848,1079.3244 447.8442,1079.465 Q447.2036,1079.6213 446.5005,1079.6213 Q444.0005,1079.6213 442.6723,1077.9806 Q441.3598,1076.3244 441.3598,1073.1994 Q441.3598,1070.0744 442.6723,1068.4181 Q444.0005,1066.7619 446.5005,1066.7619 Q447.2036,1066.7619 447.8442,1066.9181 Q448.5005,1067.0744 449.063,1067.3713 L449.063,1070.09 Q448.438,1069.5119 447.8442,1069.2463 Q447.2505,1068.965 446.6255,1068.965 Q445.2817,1068.965 444.5942,1070.0431 Q443.9067,1071.1056 443.9067,1073.1994 Q443.9067,1075.2931 444.5942,1076.3713 Q445.2817,1077.4338 446.6255,1077.4338 Q447.2505,1077.4338 447.8442,1077.1681 Q448.438,1076.8869 449.063,1076.3088 L449.063,1079.0275 Z " fill="#000000"/><text fill="#000000" font-family="sans-serif" font-size="14" lengthAdjust="spacing" textLength="67.6826" x="466.5942" y="1078.2336">ShellView</text><line style="stroke:#181818;stroke-width:0.5;" x1="348.52" x2="619.8511" y1="1089.3869" y2="1089.3869"/><g data-visibility-modifier="PRIVATE_FIELD"><rect fill="none" height="6" style="stroke:#C82930;stroke-width:1;" width="6" x="355.52" y="1100.0353"/></g><text fill="#000000" font-family="sans-serif" font-size="14" lengthAdjust="spacing" textLength="124.8379" x="367.52" y="1106.382">currentChat: Uuid</text><g data-visibility-modifier="PRIVATE_FIELD"><rect fill="none" height="6" style="stroke:#C82930;stroke-width:1;" width="6" x="355.52" y="1116.3322"/></g><text fill="#000000" font-family="sans-serif" font-size="14" lengthAdjust="spacing" textLength="140.2461" x="367.52" y="1122.6789">joinedNetwork: bool</text><line style="stroke:#181818;stroke-width:0.5;" x1="348.52" x2="619.8511" y1="1129.9806" y2="1129.9806"/><g data-visibility-modifier="PRIVATE_METHOD"><rect fill="#F24D5C" height="6" style="stroke:#C82930;stroke-width:1;" width="6" x="355.52" y="1140.6291"/></g><text fill="#000000" font-family="sans-serif" font-size="14" lengthAdjust="spacing" textLength="157.3291" x="367.52" y="1146.9757">join(username: String)</text><g data-visibility-modifier="PRIVATE_METHOD"><rect fill="#F24D5C" height="6" style="stroke:#C82930;stroke-width:1;" width="6" x="355.52" y="1156.9259"/></g><text fill="#000000" font-family="sans-serif" font-size="14" lengthAdjust="spacing" textLength="79.0234" x="367.52" y="1163.2726">showHelp()</text><g data-visibility-modifier="PRIVATE_METHOD"><rect fill="#F24D5C" height="6" style="stroke:#C82930;stroke-width:1;" width="6" x="355.52" y="1173.2228"/></g><text fill="#000000" font-family="sans-serif" font-size="14" lengthAdjust="spacing" textLength="247.3311" x="367.52" y="1179.5695">createSwitchChat(recipient: String)</text><g data-visibility-modifier="PRIVATE_METHOD"><rect fill="#F24D5C" height="6" style="stroke:#C82930;stroke-width:1;" width="6" x="355.52" y="1189.5197"/></g><text fill="#000000" font-family="sans-serif" font-size="14" lengthAdjust="spacing" textLength="192.3564" x="367.52" y="1195.8664">closeChat(recipient: String)</text><g data-visibility-modifier="PRIVATE_METHOD"><rect fill="#F24D5C" height="6" style="stroke:#C82930;stroke-width:1;" width="6" x="355.52" y="1205.8166"/></g><text fill="#000000" font-family="sans-serif" font-size="14" lengthAdjust="spacing" textLength="200.375" x="367.52" y="1212.1632">refuseChat(recipient: String)</text><g data-visibility-modifier="PRIVATE_METHOD"><rect fill="#F24D5C" height="6" style="stroke:#C82930;stroke-width:1;" width="6" x="355.52" y="1222.1134"/></g><text fill="#000000" font-family="sans-serif" font-size="14" lengthAdjust="spacing" textLength="184.7754" x="367.52" y="1228.4601">sendMessage(text: String)</text><g data-visibility-modifier="PRIVATE_METHOD"><rect fill="#F24D5C" height="6" style="stroke:#C82930;stroke-width:1;" width="6" x="355.52" y="1238.4103"/></g><text fill="#000000" font-family="sans-serif" font-size="14" lengthAdjust="spacing" textLength="114.3516" x="367.52" y="1244.757">listParticipants()</text><g data-visibility-modifier="PRIVATE_METHOD"><rect fill="#F24D5C" height="6" style="stroke:#C82930;stroke-width:1;" width="6" x="355.52" y="1254.7072"/></g><text fill="#000000" font-family="sans-serif" font-size="14" lengthAdjust="spacing" textLength="157.3564" x="367.52" y="1261.0539">waitWithShellPrompt()</text><g data-visibility-modifier="PRIVATE_METHOD"><rect fill="#F24D5C" height="6" style="stroke:#C82930;stroke-width:1;" width="6" x="355.52" y="1271.0041"/></g><text fill="#000000" font-family="sans-serif" font-size="14" lengthAdjust="spacing" textLength="122.0078" x="367.52" y="1277.3507">parseCommand()</text></g><!--class Chat--><g class="entity" data-qualified-name="Chat" data-source-line="34" id="ent0010"><rect fill="#F1F1F1" height="129.4844" rx="2.5" ry="2.5" style="stroke:#181818;stroke-width:0.5;" width="200.3164" x="27.02" y="453.6369"/><ellipse cx="106.5698" cy="469.6369" fill="#ADD1B2" rx="11" ry="11" style="stroke:#181818;stroke-width:1;"/><path d="M109.5386,475.2775 Q108.9604,475.5744 108.3198,475.715 Q107.6792,475.8712 106.9761,475.8712 Q104.4761,475.8712 103.1479,474.2306 Q101.8354,472.5744 101.8354,469.4494 Q101.8354,466.3244 103.1479,464.6681 Q104.4761,463.0119 106.9761,463.0119 Q107.6792,463.0119 108.3198,463.1681 Q108.9761,463.3244 109.5386,463.6212 L109.5386,466.34 Q108.9136,465.7619 108.3198,465.4962 Q107.7261,465.215 107.1011,465.215 Q105.7573,465.215 105.0698,466.2931 Q104.3823,467.3556 104.3823,469.4494 Q104.3823,471.5431 105.0698,472.6212 Q105.7573,473.6837 107.1011,473.6837 Q107.7261,473.6837 108.3198,473.4181 Q108.9136,473.1369 109.5386,472.5587 L109.5386,475.2775 Z " fill="#000000"/><text fill="#000000" font-family="sans-serif" font-size="14" lengthAdjust="spacing" textLength="32.7168" x="127.0698" y="474.4836">Chat</text><line style="stroke:#181818;stroke-width:0.5;" x1="28.02" x2="226.3364" y1="485.6369" y2="485.6369"/><g data-visibility-modifier="PRIVATE_FIELD"><rect fill="none" height="6" style="stroke:#C82930;stroke-width:1;" width="6" x="35.02" y="496.2853"/></g><text fill="#000000" font-family="sans-serif" font-size="14" lengthAdjust="spacing" textLength="71.5859" x="47.02" y="502.632">uuid: Uuid</text><g data-visibility-modifier="PRIVATE_FIELD"><rect fill="none" height="6" style="stroke:#C82930;stroke-width:1;" width="6" x="35.02" y="512.5822"/></g><text fill="#000000" font-family="sans-serif" font-size="14" lengthAdjust="spacing" textLength="105.5332" x="47.02" y="518.9289">approved: bool</text><line style="stroke:#181818;stroke-width:0.5;" x1="28.02" x2="226.3364" y1="526.2306" y2="526.2306"/><g data-visibility-modifier="PUBLIC_METHOD"><ellipse cx="38.02" cy="539.8791" fill="#84BE84" rx="3" ry="3" style="stroke:#038048;stroke-width:1;"/></g><text fill="#000000" font-family="sans-serif" font-size="14" lengthAdjust="spacing" textLength="106.873" x="47.02" y="543.2257">getUuid(): Uuid</text><g data-visibility-modifier="PUBLIC_METHOD"><ellipse cx="38.02" cy="556.1759" fill="#84BE84" rx="3" ry="3" style="stroke:#038048;stroke-width:1;"/></g><text fill="#000000" font-family="sans-serif" font-size="14" lengthAdjust="spacing" textLength="140.4443" x="47.02" y="559.5226">getApproved(): bool</text><g data-visibility-modifier="PUBLIC_METHOD"><ellipse cx="38.02" cy="572.4728" fill="#84BE84" rx="3" ry="3" style="stroke:#038048;stroke-width:1;"/></g><text fill="#000000" font-family="sans-serif" font-size="14" lengthAdjust="spacing" textLength="174.3164" x="47.02" y="575.8195">setApproved(state: bool)</text></g><!--class Identity--><g class="entity" data-qualified-name="Identity" data-source-line="42" id="ent0011"><rect fill="#F1F1F1" height="121.4844" rx="2.5" ry="2.5" style="stroke:#181818;stroke-width:0.5;" width="625.6416" x="171.36" y="145.5669"/><ellipse cx="453.1032" cy="161.5669" fill="#B4A7E5" rx="11" ry="11" style="stroke:#181818;stroke-width:1;"/><path d="M449.025,157.3325 L449.025,155.1762 L456.4157,155.1762 L456.4157,157.3325 L453.9469,157.3325 L453.9469,165.4106 L456.4157,165.4106 L456.4157,167.5669 L449.025,167.5669 L449.025,165.4106 L451.4938,165.4106 L451.4938,157.3325 L449.025,157.3325 Z " fill="#000000"/><text fill="#000000" font-family="sans-serif" font-size="14" font-style="italic" lengthAdjust="spacing" textLength="53.6553" x="473.6032" y="166.4136">Identity</text><line style="stroke:#181818;stroke-width:0.5;" x1="172.36" x2="796.0016" y1="177.5669" y2="177.5669"/><g data-visibility-modifier="PUBLIC_METHOD"><ellipse cx="182.36" cy="191.2153" fill="#84BE84" rx="3" ry="3" style="stroke:#038048;stroke-width:1;"/></g><text fill="#000000" font-family="sans-serif" font-size="14" lengthAdjust="spacing" textLength="332.3701" x="191.36" y="194.562">remoteAskForChat(author: String, chatId: Uuid)</text><g data-visibility-modifier="PUBLIC_METHOD"><ellipse cx="182.36" cy="207.5122" fill="#84BE84" rx="3" ry="3" style="stroke:#038048;stroke-width:1;"/></g><text fill="#000000" font-family="sans-serif" font-size="14" lengthAdjust="spacing" textLength="271.5918" x="191.36" y="210.8589">remoteApproveBackChat(chatId: Uuid)</text><g data-visibility-modifier="PUBLIC_METHOD"><ellipse cx="182.36" cy="223.8091" fill="#84BE84" rx="3" ry="3" style="stroke:#038048;stroke-width:1;"/></g><text fill="#000000" font-family="sans-serif" font-size="14" lengthAdjust="spacing" textLength="227.083" x="191.36" y="227.1557">remoteRefuseChat(chatId: Uuid)</text><g data-visibility-modifier="PUBLIC_METHOD"><ellipse cx="182.36" cy="240.1059" fill="#84BE84" rx="3" ry="3" style="stroke:#038048;stroke-width:1;"/></g><text fill="#000000" font-family="sans-serif" font-size="14" lengthAdjust="spacing" textLength="599.6416" x="191.36" y="243.4526">remoteSendMessageInChat(chatId: Uuid, text: String, senderTimestamp: Timestamp)</text><g data-visibility-modifier="PUBLIC_METHOD"><ellipse cx="182.36" cy="256.4028" fill="#84BE84" rx="3" ry="3" style="stroke:#038048;stroke-width:1;"/></g><text fill="#000000" font-family="sans-serif" font-size="14" lengthAdjust="spacing" textLength="217.1709" x="191.36" y="259.7495">remoteCloseChat(chatId: Uuid)</text></g><!--class Message--><g class="entity" data-qualified-name="Message" data-source-line="66" id="ent0021"><rect fill="#F1F1F1" height="105.1875" rx="2.5" ry="2.5" style="stroke:#181818;stroke-width:0.5;" width="240.3613" x="7" y="692.7169"/><ellipse cx="92.251" cy="708.7169" fill="#ADD1B2" rx="11" ry="11" style="stroke:#181818;stroke-width:1;"/><path d="M95.2197,714.3575 Q94.6416,714.6544 94.001,714.795 Q93.3604,714.9512 92.6572,714.9512 Q90.1572,714.9512 88.8291,713.3106 Q87.5166,711.6544 87.5166,708.5294 Q87.5166,705.4044 88.8291,703.7481 Q90.1572,702.0919 92.6572,702.0919 Q93.3604,702.0919 94.001,702.2481 Q94.6572,702.4044 95.2197,702.7012 L95.2197,705.42 Q94.5947,704.8419 94.001,704.5762 Q93.4072,704.295 92.7822,704.295 Q91.4385,704.295 90.751,705.3731 Q90.0635,706.4356 90.0635,708.5294 Q90.0635,710.6231 90.751,711.7012 Q91.4385,712.7637 92.7822,712.7637 Q93.4072,712.7637 94.001,712.4981 Q94.5947,712.2169 95.2197,711.6387 L95.2197,714.3575 Z " fill="#000000"/><text fill="#000000" font-family="sans-serif" font-size="14" lengthAdjust="spacing" textLength="61.3594" x="112.751" y="713.5636">Message</text><line style="stroke:#181818;stroke-width:0.5;" x1="8" x2="246.3613" y1="724.7169" y2="724.7169"/><g data-visibility-modifier="PRIVATE_FIELD"><rect fill="none" height="6" style="stroke:#C82930;stroke-width:1;" width="6" x="15" y="735.3653"/></g><text fill="#000000" font-family="sans-serif" font-size="14" lengthAdjust="spacing" textLength="78.8252" x="27" y="741.712">text: String</text><g data-visibility-modifier="PRIVATE_FIELD"><rect fill="none" height="6" style="stroke:#C82930;stroke-width:1;" width="6" x="15" y="751.6622"/></g><text fill="#000000" font-family="sans-serif" font-size="14" lengthAdjust="spacing" textLength="214.3613" x="27" y="758.0089">senderTimestamp: Timestamp</text><g data-visibility-modifier="PRIVATE_FIELD"><rect fill="none" height="6" style="stroke:#C82930;stroke-width:1;" width="6" x="15" y="767.9591"/></g><text fill="#000000" font-family="sans-serif" font-size="14" lengthAdjust="spacing" textLength="98.0752" x="27" y="774.3057">index: Integer</text><g data-visibility-modifier="PRIVATE_FIELD"><rect fill="none" height="6" style="stroke:#C82930;stroke-width:1;" width="6" x="15" y="784.2559"/></g><text fill="#000000" font-family="sans-serif" font-size="14" lengthAdjust="spacing" textLength="97.084" x="27" y="790.6026">author: String</text></g><g class="entity" data-qualified-name="Registry" data-source-line="75" id="ent0023"><rect fill="#F1F1F1" height="20.2969" rx="2.5" ry="2.5" style="stroke:#181818;stroke-width:0.5;" width="71.9414" x="102.21" y="54.2769"/><text fill="#000000" font-family="sans-serif" font-size="14" lengthAdjust="spacing" textLength="57.9414" x="109.21" y="69.272">Registry</text></g><!--link HumanIdentity to App--><g class="link" data-entity-1="ent0004" data-entity-2="ent0003" data-link-type="association" data-source-line="9" id="lnk5"><path codeLine="9" d="M458.97,616.1369 C456.58,626.1069 454.27,636.1069 452.18,645.7169 C445.82,674.9669 439.88,709.4169 436.67,728.8769" fill="none" id="HumanIdentity-App" style="stroke:#181818;stroke-width:1;"/><polygon fill="#000000" points="458.1502,649.3783,453.512,657.6812,459.2782,658.8218,458.1502,649.3783" style="stroke:#000000;stroke-width:1;"/><text fill="#000000" font-family="sans-serif" font-size="13" lengthAdjust="spacing" textLength="41.5518" x="466.18" y="658.7838">create</text><text fill="#000000" font-family="sans-serif" font-size="13" lengthAdjust="spacing" textLength="8.271" x="448.8349" y="635.9382">1</text><text fill="#000000" font-family="sans-serif" font-size="13" lengthAdjust="spacing" textLength="24.8066" x="409.7656" y="718.3341">0..1</text></g><!--link App to View--><g class="link" data-entity-1="ent0003" data-entity-2="ent0006" data-link-type="association" data-source-line="10" id="lnk7"><path codeLine="10" d="M438.27,761.7269 C444.76,786.1469 457.73,835.0269 468.24,874.6069" fill="none" id="App-View" style="stroke:#181818;stroke-width:1;"/><polygon fill="#000000" points="465.4631,841.3059,465.9825,831.8095,460.3015,833.3178,465.4631,841.3059" style="stroke:#000000;stroke-width:1;"/><text fill="#000000" font-family="sans-serif" font-size="13" lengthAdjust="spacing" textLength="30.2783" x="473.18" y="840.9738">start</text><text fill="#000000" font-family="sans-serif" font-size="13" lengthAdjust="spacing" textLength="8.271" x="430.3402" y="781.4362">1</text><text fill="#000000" font-family="sans-serif" font-size="13" lengthAdjust="spacing" textLength="8.271" x="457.9504" y="863.7563">1</text></g><!--reverse link View to ShellView--><g class="link" data-entity-1="ent0006" data-entity-2="ent0008" data-link-type="extension" data-source-line="21" id="lnk9"><path d="M484.18,1014.7469 C484.18,1033.2469 484.18,1036.2569 484.18,1057.1069" fill="none" id="View-backto-ShellView" style="stroke:#181818;stroke-width:1;stroke-dasharray:7,7;"/><polygon fill="none" points="484.18,996.7469,478.18,1014.7469,490.18,1014.7469,484.18,996.7469" style="stroke:#181818;stroke-width:1;"/></g><!--reverse link Remote to Identity--><g class="link" data-entity-1="ent0002" data-entity-2="ent0011" data-link-type="extension" data-source-line="43" id="lnk12"><path d="M484.18,102.8769 C484.18,118.5669 484.18,123.5169 484.18,145.1769" fill="none" id="Remote-backto-Identity" style="stroke:#181818;stroke-width:1;"/><polygon fill="none" points="484.18,84.8769,478.18,102.8769,490.18,102.8769,484.18,84.8769" style="stroke:#181818;stroke-width:1;"/></g><!--reverse link Identity to HumanIdentity--><g class="link" data-entity-1="ent0011" data-entity-2="ent0004" data-link-type="extension" data-source-line="51" id="lnk13"><path d="M484.18,285.4569 C484.18,328.9569 484.18,370.6569 484.18,420.7969" fill="none" id="Identity-backto-HumanIdentity" style="stroke:#181818;stroke-width:1;stroke-dasharray:7,7;"/><polygon fill="none" points="484.18,267.4569,478.18,285.4569,490.18,285.4569,484.18,267.4569" style="stroke:#181818;stroke-width:1;"/></g><!--link Identity to HumanIdentity--><g class="link" data-entity-1="ent0011" data-entity-2="ent0004" data-link-type="association" data-source-line="65" id="lnk20"><path codeLine="65" d="M500.99,267.2769 C503.14,277.1569 505.01,287.3369 506.18,297.0469 C511.07,337.5069 508.14,382.2369 503.02,420.7569" fill="none" id="Identity-HumanIdentity" style="stroke:#181818;stroke-width:1;"/><text fill="#000000" font-family="sans-serif" font-size="13" lengthAdjust="spacing" textLength="159.9927" x="509.68" y="341.1138">keep known participants</text><polygon fill="#000000" points="518.2193,346.7465,515.4003,355.8297,521.2776,355.752,518.2193,346.7465" style="stroke:#000000;stroke-width:1;"/><text fill="#000000" font-family="sans-serif" font-size="13" lengthAdjust="spacing" textLength="143.9141" x="526.2855" y="356.2466">in cache by username</text><text fill="#000000" font-family="sans-serif" font-size="13" lengthAdjust="spacing" textLength="6.5" x="496.6156" y="287.268">*</text><text fill="#000000" font-family="sans-serif" font-size="13" lengthAdjust="spacing" textLength="8.271" x="496.1199" y="410.1085">1</text></g><!--link Chat to HumanIdentity--><g class="link" data-entity-1="ent0010" data-entity-2="ent0004" data-link-type="association" data-source-line="62" id="lnk15"><path codeLine="62" d="M227.58,518.3869 C259.34,518.3869 295.2,518.3869 329.84,518.3869" fill="none" id="Chat-HumanIdentity" style="stroke:#181818;stroke-width:1;"/><polygon fill="#000000" points="244.82,506.9533,253.8651,509.8922,253.8651,504.0144,244.82,506.9533" style="stroke:#000000;stroke-width:1;"/><text fill="#000000" font-family="sans-serif" font-size="13" lengthAdjust="spacing" textLength="53.0854" x="258.82" y="511.4538">manage</text><text fill="#000000" font-family="sans-serif" font-size="13" lengthAdjust="spacing" textLength="6.5" x="235.1919" y="514.9084">*</text><text fill="#000000" font-family="sans-serif" font-size="13" lengthAdjust="spacing" textLength="8.271" x="314.177" y="515.0939">1</text></g><!--link HumanIdentity to HumanIdentity--><g class="link" data-entity-1="ent0004" data-entity-2="ent0004" data-link-type="association" data-source-line="63" id="lnk17"><path codeLine="63" d="M638.34,497.1169 C659.19,500.6869 673.07,507.7769 673.07,518.3869 C673.07,528.9969 659.19,536.0869 638.34,539.6469" fill="none" id="HumanIdentity-HumanIdentity" style="stroke:#181818;stroke-width:1;"/><polygon fill="#000000" points="677.2262,513.525,675.8559,522.9363,681.6494,521.9443,677.2262,513.525" style="stroke:#000000;stroke-width:1;"/><text fill="#000000" font-family="sans-serif" font-size="13" lengthAdjust="spacing" textLength="141.7749" x="692.07" y="522.9538">remotely discuss with</text><text fill="#000000" font-family="sans-serif" font-size="13" lengthAdjust="spacing" textLength="6.5" x="645.9646" y="492.7936">*</text><text fill="#000000" font-family="sans-serif" font-size="13" lengthAdjust="spacing" textLength="6.5" x="645.9646" y="537.3837">*</text></g><!--link HumanIdentity to View--><g class="link" data-entity-1="ent0004" data-entity-2="ent0006" data-link-type="association" data-source-line="64" id="lnk18"><path codeLine="64" d="M507.83,615.9369 C509.61,625.9469 511.12,636.0069 512.18,645.7169 C521.82,733.7169 525.52,757.3869 512.18,844.9069 C510.71,854.5869 508.38,864.6569 505.69,874.4069" fill="none" id="HumanIdentity-View" style="stroke:#181818;stroke-width:1;"/><polygon fill="#000000" points="525.8086,750.3831,528.8223,741.3627,522.9447,741.314,525.8086,750.3831" style="stroke:#000000;stroke-width:1;"/><text fill="#000000" font-family="sans-serif" font-size="13" lengthAdjust="spacing" textLength="89.6035" x="534.85" y="749.8838">send event to</text><text fill="#000000" font-family="sans-serif" font-size="13" lengthAdjust="spacing" textLength="8.271" x="501.2831" y="635.7236">1</text><text fill="#000000" font-family="sans-serif" font-size="13" lengthAdjust="spacing" textLength="24.8066" x="482.7745" y="863.9624">0..1</text></g><!--link Chat to Message--><g class="link" data-entity-1="ent0010" data-entity-2="ent0021" data-link-type="association" data-source-line="66" id="lnk22"><path codeLine="66" d="M127.18,583.5369 C127.18,618.0769 127.18,660.1269 127.18,692.5569" fill="none" id="Chat-Message" style="stroke:#181818;stroke-width:1;"/><polygon fill="#000000" points="132.18,659.2833,135.1189,650.2382,129.2411,650.2382,132.18,659.2833" style="stroke:#000000;stroke-width:1;"/><text fill="#000000" font-family="sans-serif" font-size="13" lengthAdjust="spacing" textLength="48.2549" x="141.18" y="658.7838">contain</text><text fill="#000000" font-family="sans-serif" font-size="13" lengthAdjust="spacing" textLength="8.271" x="118.7817" y="603.1035">1</text><text fill="#000000" font-family="sans-serif" font-size="13" lengthAdjust="spacing" textLength="6.5" x="120.8104" y="681.5361">*</text></g><!--link Registry to Remote--><g class="link" data-entity-1="ent0023" data-entity-2="ent0002" data-link-type="association" data-source-line="77" id="lnk24"><path codeLine="77" d="M174.55,64.4269 C237.88,64.4269 368.28,64.4269 437.93,64.4269" fill="none" id="Registry-Remote" style="stroke:#181818;stroke-width:1;"/><polygon fill="#000000" points="201.27,52.9933,192.2249,50.0544,192.2249,55.9322,201.27,52.9933" style="stroke:#000000;stroke-width:1;"/><text fill="#000000" font-family="sans-serif" font-size="13" lengthAdjust="spacing" textLength="215.814" x="205.27" y="57.4938">take notes by String of published</text><text fill="#000000" font-family="sans-serif" font-size="13" lengthAdjust="spacing" textLength="24.8066" x="182.0183" y="77.6526">0..1</text><text fill="#000000" font-family="sans-serif" font-size="13" lengthAdjust="spacing" textLength="6.5" x="423.8146" y="60.2621">*</text></g><?plantuml-src VLN9Rjim4BthAmOwAOk3vYe40TAqHNn84TXT3cqFD3Ms68kaIb9sZAB_tY4foP9TsnTBV6yMlbdaXAiGqW-2hGoJ4g50u1Mp5g7M2dTEXxyqIKf14ChQxK2YNA2nIIAKGxDa7666KZk4kxjNjc4tHehx-oG9Zk2XhfEdHZ8rBL0vGVRfRJgPfEzkRcvJZ-R03J9ldT1RYnBqJU0s1-kOSN0_3EO1-9C0_GAQbKFtEOoYNKHUgRUF9NCp_DsWTTdIQ9d3t1cXLcF6OwKjdi5dk6pE4fxHMhR2JCR_FUblfyYynAeAbn2ohb1IedPugGdmnXWwzUvo-Dg8eZr_rK9XyHdTLfjr3Wkjgm6IKM96COdZn2OXjIUiwgmxY8BFjyBnqWV9379H2mfvQCgz7ESf9YXodcDH5Pqm3j-Ey4fOzqAb56JFI8u-qoqJxhjmPT3iXKIlNO_Lp51SBQdQHJRGrwVIITcGU4C9MLqRlS5Y8DxL2fqdP1S3eZzyQBaUsBFj0A3sSnZ147_VetspqsNfxhQRa9ZMbGbl3tRzIPkW76jSgKqdopLmEfoscL-CR6BizuolW-59ucnVbfES-RuiKtL4lOPXgQv34T5y4TJPZacQs_vnvFInRvbntBu-usqmc87-h2lUGJ_lozK2lZ93wB2DZda_VlLEV8hM8_wXEu-JSQAP8pKIsqOwfQzj5fORiK0_rssHFsx8MRO9QyqVTzJ1R9oMloNpq-8UBzbgGflqCeMuHrBl08X3WVpJVNfeSkbDlC7JUA76kbOxA8Jb3LMG5aT9E_auOhlLszLD5mFqbmQd_qjlOdxxI6l46jPARvMVxhwEy5C91Ppn4c6nWwulw8iHPZr-CiZHSxTpkLQEaKd_5MgHhhE6oiQJqyqTSK7mMmvJcl0LcdQPZ8RMrq0lNf4x6lOLTQBP9Kdt156Pa6LS1JaujaPGz6ZzfQ8Jq4kecmKrSea5fVyF?></g></svg>