<?plantuml 1.2026.1?><svg xmlns="http://www.w3.org/2000/svg" xmlns:xlink="http://www.w3.org/1999/xlink" contentStyleType="text/css" data-diagram-type="CLASS" height="1035px" preserveAspectRatio="none" style="width:839px;height:1035px;background:#FFFFFF;" version="1.1" viewBox="0 0 839 1035" width="839px" zoomAndPan="magnify"><title>Diagramme de classe poneytoponey</title><defs/><g><g class="title" data-source-line="1"><text fill="#000000" font-family="sans-serif" font-size="14" font-weight="bold" lengthAdjust="spacing" textLength="286.5215" x="269.3149" y="22.9951">Diagramme de classe poneytoponey</text></g><!--class Remote--><g class="entity" data-qualified-name="Remote" data-source-line="5" id="ent0002"><rect fill="#F1F1F1" height="40.2656" rx="2.5" ry="2.5" style="stroke:#181818;stroke-width:0.5;" width="91.5977" x="343.17" y="44.2969"/><ellipse cx="358.17" cy="64.4297" fill="#B4A7E5" rx="11" ry="11" style="stroke:#181818;stroke-width:1;"/><path d="M354.0919,60.1953 L354.0919,58.0391 L361.4825,58.0391 L361.4825,60.1953 L359.0138,60.1953 L359.0138,68.2734 L361.4825,68.2734 L361.4825,70.4297 L354.0919,70.4297 L354.0919,68.2734 L356.5606,68.2734 L356.5606,60.1953 L354.0919,60.1953 Z " fill="#000000"/><text fill="#000000" font-family="sans-serif" font-size="12" font-style="italic" lengthAdjust="spacing" textLength="63.5977" x="370.17" y="60.4355">&#171;java.rmi&#187;</text><text fill="#000000" font-family="sans-serif" font-size="14" font-style="italic" lengthAdjust="spacing" textLength="54.6465" x="374.6456" y="76.2607">Remote</text></g><!--class App--><g class="entity" data-qualified-name="App" data-source-line="7" id="ent0003"><rect fill="#F1F1F1" height="32" rx="2.5" ry="2.5" style="stroke:#181818;stroke-width:0.5;" width="59.3506" x="359.3" y="554.8269"/><ellipse cx="374.3" cy="570.8269" fill="#ADD1B2" rx="11" ry="11" style="stroke:#181818;stroke-width:1;"/><path d="M377.2688,576.4675 Q376.6906,576.7644 376.05,576.905 Q375.4094,577.0613 374.7063,577.0613 Q372.2063,577.0613 370.8781,575.4206 Q369.5656,573.7644 369.5656,570.6394 Q369.5656,567.5144 370.8781,565.8581 Q372.2063,564.2019 374.7063,564.2019 Q375.4094,564.2019 376.05,564.3581 Q376.7063,564.5144 377.2688,564.8113 L377.2688,567.53 Q376.6438,566.9519 376.05,566.6863 Q375.4563,566.405 374.8313,566.405 Q373.4875,566.405 372.8,567.4831 Q372.1125,568.5456 372.1125,570.6394 Q372.1125,572.7331 372.8,573.8113 Q373.4875,574.8738 374.8313,574.8738 Q375.4563,574.8738 376.05,574.6081 Q376.6438,574.3269 377.2688,573.7488 L377.2688,576.4675 Z " fill="#000000"/><text fill="#000000" font-family="sans-serif" font-size="14" lengthAdjust="spacing" textLength="27.3506" x="388.3" y="575.6736">App</text></g><!--class HumanIdentity--><g class="entity" data-qualified-name="HumanIdentity" data-source-line="8" id="ent0004"><rect fill="#F1F1F1" height="129.4844" rx="2.5" ry="2.5" style="stroke:#181818;stroke-width:0.5;" width="273.8369" x="252.05" y="311.7469"/><ellipse cx="332.6457" cy="327.7469" fill="#ADD1B2" rx="11" ry="11" style="stroke:#181818;stroke-width:1;"/><path d="M335.6145,333.3875 Q335.0363,333.6844 334.3957,333.825 Q333.7551,333.9812 333.052,333.9812 Q330.552,333.9812 329.2238,332.3406 Q327.9113,330.6844 327.9113,327.5594 Q327.9113,324.4344 329.2238,322.7781 Q330.552,321.1219 333.052,321.1219 Q333.7551,321.1219 334.3957,321.2781 Q335.052,321.4344 335.6145,321.7312 L335.6145,324.45 Q334.9895,323.8719 334.3957,323.6062 Q333.802,323.325 333.177,323.325 Q331.8332,323.325 331.1457,324.4031 Q330.4582,325.4656 330.4582,327.5594 Q330.4582,329.6531 331.1457,330.7312 Q331.8332,331.7937 333.177,331.7937 Q333.802,331.7937 334.3957,331.5281 Q334.9895,331.2469 335.6145,330.6687 L335.6145,333.3875 Z " fill="#000000"/><text fill="#000000" font-family="sans-serif" font-size="14" lengthAdjust="spacing" textLength="104.1455" x="353.1457" y="332.5936">HumanIdentity</text><line style="stroke:#181818;stroke-width:0.5;" x1="253.05" x2="524.8869" y1="343.7469" y2="343.7469"/><g data-visibility-modifier="PRIVATE_FIELD"><rect fill="none" height="6" style="stroke:#C82930;stroke-width:1;" width="6" x="260.05" y="354.3953"/></g><text fill="#000000" font-family="sans-serif" font-size="14" lengthAdjust="spacing" textLength="121.1875" x="272.05" y="360.742">username: String</text><line style="stroke:#181818;stroke-width:0.5;" x1="253.05" x2="524.8869" y1="368.0437" y2="368.0437"/><g data-visibility-modifier="PUBLIC_METHOD"><ellipse cx="263.05" cy="381.6922" fill="#84BE84" rx="3" ry="3" style="stroke:#038048;stroke-width:1;"/></g><text fill="#000000" font-family="sans-serif" font-size="14" lengthAdjust="spacing" textLength="156.4746" x="272.05" y="385.0389">getUsername(): String</text><g data-visibility-modifier="PUBLIC_METHOD"><ellipse cx="263.05" cy="397.9891" fill="#84BE84" rx="3" ry="3" style="stroke:#038048;stroke-width:1;"/></g><text fill="#000000" font-family="sans-serif" font-size="14" lengthAdjust="spacing" textLength="247.8369" x="272.05" y="401.3357">listParticipantsUsername(): String[]</text><g data-visibility-modifier="PUBLIC_METHOD"><ellipse cx="263.05" cy="414.2859" fill="#84BE84" rx="3" ry="3" style="stroke:#038048;stroke-width:1;"/></g><text fill="#000000" font-family="sans-serif" font-size="14" lengthAdjust="spacing" textLength="126.7314" x="272.05" y="417.6326">getChats(): Chat[]</text><g data-visibility-modifier="PUBLIC_METHOD"><ellipse cx="263.05" cy="430.5828" fill="#84BE84" rx="3" ry="3" style="stroke:#038048;stroke-width:1;"/></g><text fill="#000000" font-family="sans-serif" font-size="14" lengthAdjust="spacing" textLength="130.2725" x="272.05" y="433.9295">createChat(): Chat</text></g><!--class View--><g class="entity" data-qualified-name="View" data-source-line="9" id="ent0006"><rect fill="#F1F1F1" height="56.2969" rx="2.5" ry="2.5" style="stroke:#181818;stroke-width:0.5;" width="271.335" x="253.3" y="700.4169"/><ellipse cx="367.9523" cy="716.4169" fill="#B4A7E5" rx="11" ry="11" style="stroke:#181818;stroke-width:1;"/><path d="M363.8742,712.1825 L363.8742,710.0263 L371.2648,710.0263 L371.2648,712.1825 L368.7961,712.1825 L368.7961,720.2606 L371.2648,720.2606 L371.2648,722.4169 L363.8742,722.4169 L363.8742,720.2606 L366.343,720.2606 L366.343,712.1825 L363.8742,712.1825 Z " fill="#000000"/><text fill="#000000" font-family="sans-serif" font-size="14" font-style="italic" lengthAdjust="spacing" textLength="33.5303" x="388.4523" y="721.2636">View</text><line style="stroke:#181818;stroke-width:0.5;" x1="254.3" x2="523.635" y1="732.4169" y2="732.4169"/><text fill="#000000" font-family="sans-serif" font-size="14" lengthAdjust="spacing" textLength="259.335" x="259.3" y="749.412">start(humanIdentity: HumanIdentity)</text></g><!--class ShellView--><g class="entity" data-qualified-name="ShellView" data-source-line="15" id="ent0008"><rect fill="#F1F1F1" height="210.9688" rx="2.5" ry="2.5" style="stroke:#181818;stroke-width:0.5;" width="273.3311" x="252.31" y="817.7169"/><ellipse cx="350.8842" cy="833.7169" fill="#ADD1B2" rx="11" ry="11" style="stroke:#181818;stroke-width:1;"/><path d="M353.853,839.3575 Q353.2748,839.6544 352.6342,839.795 Q351.9936,839.9513 351.2905,839.9513 Q348.7905,839.9513 347.4623,838.3106 Q346.1498,836.6544 346.1498,833.5294 Q346.1498,830.4044 347.4623,828.7481 Q348.7905,827.0919 351.2905,827.0919 Q351.9936,827.0919 352.6342,827.2481 Q353.2905,827.4044 353.853,827.7013 L353.853,830.42 Q353.228,829.8419 352.6342,829.5763 Q352.0405,829.295 351.4155,829.295 Q350.0717,829.295 349.3842,830.3731 Q348.6967,831.4356 348.6967,833.5294 Q348.6967,835.6231 349.3842,836.7013 Q350.0717,837.7638 351.4155,837.7638 Q352.0405,837.7638 352.6342,837.4981 Q353.228,837.2169 353.853,836.6388 L353.853,839.3575 Z " fill="#000000"/><text fill="#000000" font-family="sans-serif" font-size="14" lengthAdjust="spacing" textLength="67.6826" x="371.3842" y="838.5636">ShellView</text><line style="stroke:#181818;stroke-width:0.5;" x1="253.31" x2="524.6411" y1="849.7169" y2="849.7169"/><g data-visibility-modifier="PRIVATE_FIELD"><rect fill="none" height="6" style="stroke:#C82930;stroke-width:1;" width="6" x="260.31" y="860.3653"/></g><text fill="#000000" font-family="sans-serif" font-size="14" lengthAdjust="spacing" textLength="124.8379" x="272.31" y="866.712">currentChat: Uuid</text><g data-visibility-modifier="PRIVATE_FIELD"><rect fill="none" height="6" style="stroke:#C82930;stroke-width:1;" width="6" x="260.31" y="876.6622"/></g><text fill="#000000" font-family="sans-serif" font-size="14" lengthAdjust="spacing" textLength="140.2461" x="272.31" y="883.0089">joinedNetwork: bool</text><line style="stroke:#181818;stroke-width:0.5;" x1="253.31" x2="524.6411" y1="890.3106" y2="890.3106"/><g data-visibility-modifier="PRIVATE_METHOD"><rect fill="#F24D5C" height="6" style="stroke:#C82930;stroke-width:1;" width="6" x="260.31" y="900.9591"/></g><text fill="#000000" font-family="sans-serif" font-size="14" lengthAdjust="spacing" textLength="157.3291" x="272.31" y="907.3057">join(username: String)</text><g data-visibility-modifier="PRIVATE_METHOD"><rect fill="#F24D5C" height="6" style="stroke:#C82930;stroke-width:1;" width="6" x="260.31" y="917.2559"/></g><text fill="#000000" font-family="sans-serif" font-size="14" lengthAdjust="spacing" textLength="79.0234" x="272.31" y="923.6026">showHelp()</text><g data-visibility-modifier="PRIVATE_METHOD"><rect fill="#F24D5C" height="6" style="stroke:#C82930;stroke-width:1;" width="6" x="260.31" y="933.5528"/></g><text fill="#000000" font-family="sans-serif" font-size="14" lengthAdjust="spacing" textLength="247.3311" x="272.31" y="939.8995">createSwitchChat(recipient: String)</text><g data-visibility-modifier="PRIVATE_METHOD"><rect fill="#F24D5C" height="6" style="stroke:#C82930;stroke-width:1;" width="6" x="260.31" y="949.8497"/></g><text fill="#000000" font-family="sans-serif" font-size="14" lengthAdjust="spacing" textLength="192.3564" x="272.31" y="956.1964">closeChat(recipient: String)</text><g data-visibility-modifier="PRIVATE_METHOD"><rect fill="#F24D5C" height="6" style="stroke:#C82930;stroke-width:1;" width="6" x="260.31" y="966.1466"/></g><text fill="#000000" font-family="sans-serif" font-size="14" lengthAdjust="spacing" textLength="184.7754" x="272.31" y="972.4932">sendMessage(text: String)</text><g data-visibility-modifier="PRIVATE_METHOD"><rect fill="#F24D5C" height="6" style="stroke:#C82930;stroke-width:1;" width="6" x="260.31" y="982.4434"/></g><text fill="#000000" font-family="sans-serif" font-size="14" lengthAdjust="spacing" textLength="114.3516" x="272.31" y="988.7901">listParticipants()</text><g data-visibility-modifier="PRIVATE_METHOD"><rect fill="#F24D5C" height="6" style="stroke:#C82930;stroke-width:1;" width="6" x="260.31" y="998.7403"/></g><text fill="#000000" font-family="sans-serif" font-size="14" lengthAdjust="spacing" textLength="93.5293" x="272.31" y="1005.087">askForInput()</text><g data-visibility-modifier="PRIVATE_METHOD"><rect fill="#F24D5C" height="6" style="stroke:#C82930;stroke-width:1;" width="6" x="260.31" y="1015.0372"/></g><text fill="#000000" font-family="sans-serif" font-size="14" lengthAdjust="spacing" textLength="122.0078" x="272.31" y="1021.3839">parseCommand()</text></g><!--class Chat--><g class="entity" data-qualified-name="Chat" data-source-line="28" id="ent0010"><rect fill="#F1F1F1" height="113.1875" rx="2.5" ry="2.5" style="stroke:#181818;stroke-width:0.5;" width="166.4443" x="628.75" y="319.8969"/><ellipse cx="691.3638" cy="335.8969" fill="#ADD1B2" rx="11" ry="11" style="stroke:#181818;stroke-width:1;"/><path d="M694.3325,341.5375 Q693.7544,341.8344 693.1138,341.975 Q692.4731,342.1313 691.77,342.1313 Q689.27,342.1313 687.9419,340.4906 Q686.6294,338.8344 686.6294,335.7094 Q686.6294,332.5844 687.9419,330.9281 Q689.27,329.2719 691.77,329.2719 Q692.4731,329.2719 693.1138,329.4281 Q693.77,329.5844 694.3325,329.8813 L694.3325,332.6 Q693.7075,332.0219 693.1138,331.7563 Q692.52,331.475 691.895,331.475 Q690.5513,331.475 689.8638,332.5531 Q689.1763,333.6156 689.1763,335.7094 Q689.1763,337.8031 689.8638,338.8813 Q690.5513,339.9438 691.895,339.9438 Q692.52,339.9438 693.1138,339.6781 Q693.7075,339.3969 694.3325,338.8188 L694.3325,341.5375 Z " fill="#000000"/><text fill="#000000" font-family="sans-serif" font-size="14" lengthAdjust="spacing" textLength="32.7168" x="711.8638" y="340.7436">Chat</text><line style="stroke:#181818;stroke-width:0.5;" x1="629.75" x2="794.1943" y1="351.8969" y2="351.8969"/><g data-visibility-modifier="PRIVATE_FIELD"><rect fill="none" height="6" style="stroke:#C82930;stroke-width:1;" width="6" x="636.75" y="362.5453"/></g><text fill="#000000" font-family="sans-serif" font-size="14" lengthAdjust="spacing" textLength="71.5859" x="648.75" y="368.892">uuid: Uuid</text><g data-visibility-modifier="PRIVATE_FIELD"><rect fill="none" height="6" style="stroke:#C82930;stroke-width:1;" width="6" x="636.75" y="378.8422"/></g><text fill="#000000" font-family="sans-serif" font-size="14" lengthAdjust="spacing" textLength="105.5332" x="648.75" y="385.1889">approved: bool</text><line style="stroke:#181818;stroke-width:0.5;" x1="629.75" x2="794.1943" y1="392.4906" y2="392.4906"/><g data-visibility-modifier="PUBLIC_METHOD"><ellipse cx="639.75" cy="406.1391" fill="#84BE84" rx="3" ry="3" style="stroke:#038048;stroke-width:1;"/></g><text fill="#000000" font-family="sans-serif" font-size="14" lengthAdjust="spacing" textLength="106.873" x="648.75" y="409.4857">getUuid(): Uuid</text><g data-visibility-modifier="PUBLIC_METHOD"><ellipse cx="639.75" cy="422.4359" fill="#84BE84" rx="3" ry="3" style="stroke:#038048;stroke-width:1;"/></g><text fill="#000000" font-family="sans-serif" font-size="14" lengthAdjust="spacing" textLength="140.4443" x="648.75" y="425.7826">getApproved(): bool</text></g><!--class Identity--><g class="entity" data-qualified-name="Identity" data-source-line="35" id="ent0011"><rect fill="#F1F1F1" height="105.1875" rx="2.5" ry="2.5" style="stroke:#181818;stroke-width:0.5;" width="573.374" x="102.28" y="145.5569"/><ellipse cx="357.8894" cy="161.5569" fill="#B4A7E5" rx="11" ry="11" style="stroke:#181818;stroke-width:1;"/><path d="M353.8113,157.3225 L353.8113,155.1663 L361.2019,155.1663 L361.2019,157.3225 L358.7331,157.3225 L358.7331,165.4006 L361.2019,165.4006 L361.2019,167.5569 L353.8113,167.5569 L353.8113,165.4006 L356.28,165.4006 L356.28,157.3225 L353.8113,157.3225 Z " fill="#000000"/><text fill="#000000" font-family="sans-serif" font-size="14" font-style="italic" lengthAdjust="spacing" textLength="53.6553" x="378.3894" y="166.4036">Identity</text><line style="stroke:#181818;stroke-width:0.5;" x1="103.28" x2="674.654" y1="177.5569" y2="177.5569"/><g data-visibility-modifier="PUBLIC_METHOD"><ellipse cx="113.28" cy="191.2053" fill="#84BE84" rx="3" ry="3" style="stroke:#038048;stroke-width:1;"/></g><text fill="#000000" font-family="sans-serif" font-size="14" lengthAdjust="spacing" textLength="302.3467" x="122.28" y="194.552">askForChat(ourChat: Identity, chatId: Uuid)</text><g data-visibility-modifier="PUBLIC_METHOD"><ellipse cx="113.28" cy="207.5022" fill="#84BE84" rx="3" ry="3" style="stroke:#038048;stroke-width:1;"/></g><text fill="#000000" font-family="sans-serif" font-size="14" lengthAdjust="spacing" textLength="291.8604" x="122.28" y="210.8489">approveChat(approvedManager: Identity)</text><g data-visibility-modifier="PUBLIC_METHOD"><ellipse cx="113.28" cy="223.7991" fill="#84BE84" rx="3" ry="3" style="stroke:#038048;stroke-width:1;"/></g><text fill="#000000" font-family="sans-serif" font-size="14" lengthAdjust="spacing" textLength="547.374" x="122.28" y="227.1457">sendMessageInChat(chatId: Uuid, text: String, senderTimestamp: Timestamp)</text><g data-visibility-modifier="PUBLIC_METHOD"><ellipse cx="113.28" cy="240.0959" fill="#84BE84" rx="3" ry="3" style="stroke:#038048;stroke-width:1;"/></g><text fill="#000000" font-family="sans-serif" font-size="14" lengthAdjust="spacing" textLength="164.418" x="122.28" y="243.4426">closeChat(chatId: Uuid)</text></g><!--class Message--><g class="entity" data-qualified-name="Message" data-source-line="51" id="ent0015"><rect fill="#F1F1F1" height="105.1875" rx="2.5" ry="2.5" style="stroke:#181818;stroke-width:0.5;" width="240.3613" x="591.79" y="518.2369"/><ellipse cx="677.041" cy="534.2369" fill="#ADD1B2" rx="11" ry="11" style="stroke:#181818;stroke-width:1;"/><path d="M680.0097,539.8775 Q679.4316,540.1744 678.791,540.315 Q678.1504,540.4713 677.4472,540.4713 Q674.9472,540.4713 673.6191,538.8306 Q672.3066,537.1744 672.3066,534.0494 Q672.3066,530.9244 673.6191,529.2681 Q674.9472,527.6119 677.4472,527.6119 Q678.1504,527.6119 678.791,527.7681 Q679.4472,527.9244 680.0097,528.2213 L680.0097,530.94 Q679.3847,530.3619 678.791,530.0963 Q678.1972,529.815 677.5722,529.815 Q676.2285,529.815 675.541,530.8931 Q674.8535,531.9556 674.8535,534.0494 Q674.8535,536.1431 675.541,537.2213 Q676.2285,538.2838 677.5722,538.2838 Q678.1972,538.2838 678.791,538.0181 Q679.3847,537.7369 680.0097,537.1588 L680.0097,539.8775 Z " fill="#000000"/><text fill="#000000" font-family="sans-serif" font-size="14" lengthAdjust="spacing" textLength="61.3594" x="697.541" y="539.0836">Message</text><line style="stroke:#181818;stroke-width:0.5;" x1="592.79" x2="831.1513" y1="550.2369" y2="550.2369"/><g data-visibility-modifier="PRIVATE_FIELD"><rect fill="none" height="6" style="stroke:#C82930;stroke-width:1;" width="6" x="599.79" y="560.8853"/></g><text fill="#000000" font-family="sans-serif" font-size="14" lengthAdjust="spacing" textLength="78.8252" x="611.79" y="567.232">text: String</text><g data-visibility-modifier="PRIVATE_FIELD"><rect fill="none" height="6" style="stroke:#C82930;stroke-width:1;" width="6" x="599.79" y="577.1822"/></g><text fill="#000000" font-family="sans-serif" font-size="14" lengthAdjust="spacing" textLength="214.3613" x="611.79" y="583.5289">senderTimestamp: Timestamp</text><g data-visibility-modifier="PRIVATE_FIELD"><rect fill="none" height="6" style="stroke:#C82930;stroke-width:1;" width="6" x="599.79" y="593.4791"/></g><text fill="#000000" font-family="sans-serif" font-size="14" lengthAdjust="spacing" textLength="98.0752" x="611.79" y="599.8257">index: Integer</text><g data-visibility-modifier="PRIVATE_FIELD"><rect fill="none" height="6" style="stroke:#C82930;stroke-width:1;" width="6" x="599.79" y="609.7759"/></g><text fill="#000000" font-family="sans-serif" font-size="14" lengthAdjust="spacing" textLength="97.084" x="611.79" y="616.1226">author: String</text></g><g class="entity" data-qualified-name="Registry" data-source-line="60" id="ent0017"><rect fill="#F1F1F1" height="20.2969" rx="2.5" ry="2.5" style="stroke:#181818;stroke-width:0.5;" width="71.9414" x="7" y="54.2769"/><text fill="#000000" font-family="sans-serif" font-size="14" lengthAdjust="spacing" textLength="57.9414" x="14" y="69.272">Registry</text></g><!--link HumanIdentity to App--><g class="link" data-entity-1="ent0004" data-entity-2="ent0003" data-link-type="association" data-source-line="8" id="lnk5"><path codeLine="8" d="M388.97,441.5369 C388.97,481.7469 388.97,530.4369 388.97,554.6369" fill="none" id="HumanIdentity-App" style="stroke:#181818;stroke-width:1;"/><polygon fill="#000000" points="393.97,474.8033,391.0311,483.8484,396.9089,483.8484,393.97,474.8033" style="stroke:#000000;stroke-width:1;"/><text fill="#000000" font-family="sans-serif" font-size="13" lengthAdjust="spacing" textLength="41.5518" x="402.97" y="484.3038">create</text><text fill="#000000" font-family="sans-serif" font-size="13" lengthAdjust="spacing" textLength="8.271" x="380.5716" y="461.0921">1</text><text fill="#000000" font-family="sans-serif" font-size="13" lengthAdjust="spacing" textLength="24.8066" x="361.1268" y="543.8785">0..1</text></g><!--link App to View--><g class="link" data-entity-1="ent0003" data-entity-2="ent0006" data-link-type="association" data-source-line="9" id="lnk7"><path codeLine="9" d="M388.97,587.0469 C388.97,613.2169 388.97,667.1269 388.97,700.0369" fill="none" id="App-View" style="stroke:#181818;stroke-width:1;"/><polygon fill="#000000" points="393.97,666.9833,396.9089,657.9382,391.0311,657.9382,393.97,666.9833" style="stroke:#000000;stroke-width:1;"/><text fill="#000000" font-family="sans-serif" font-size="13" lengthAdjust="spacing" textLength="30.2783" x="402.97" y="666.4838">start</text><text fill="#000000" font-family="sans-serif" font-size="13" lengthAdjust="spacing" textLength="8.271" x="379.6881" y="606.993">1</text><text fill="#000000" font-family="sans-serif" font-size="13" lengthAdjust="spacing" textLength="8.271" x="380.1252" y="689.2371">1</text></g><!--reverse link View to ShellView--><g class="link" data-entity-1="ent0006" data-entity-2="ent0008" data-link-type="extension" data-source-line="16" id="lnk9"><path d="M388.97,775.1669 C388.97,791.3969 388.97,795.0569 388.97,817.3369" fill="none" id="View-backto-ShellView" style="stroke:#181818;stroke-width:1;stroke-dasharray:7,7;"/><polygon fill="none" points="388.97,757.1669,382.97,775.1669,394.97,775.1669,388.97,757.1669" style="stroke:#181818;stroke-width:1;"/></g><!--reverse link Remote to Identity--><g class="link" data-entity-1="ent0002" data-entity-2="ent0011" data-link-type="extension" data-source-line="36" id="lnk12"><path d="M388.97,102.8669 C388.97,118.7569 388.97,123.9769 388.97,145.1869" fill="none" id="Remote-backto-Identity" style="stroke:#181818;stroke-width:1;"/><polygon fill="none" points="388.97,84.8669,382.97,102.8669,394.97,102.8669,388.97,84.8669" style="stroke:#181818;stroke-width:1;"/></g><!--reverse link Identity to HumanIdentity--><g class="link" data-entity-1="ent0011" data-entity-2="ent0004" data-link-type="extension" data-source-line="43" id="lnk13"><path d="M388.97,269.1069 C388.97,288.0069 388.97,291.5869 388.97,311.4069" fill="none" id="Identity-backto-HumanIdentity" style="stroke:#181818;stroke-width:1;stroke-dasharray:7,7;"/><polygon fill="none" points="388.97,251.1069,382.97,269.1069,394.97,269.1069,388.97,251.1069" style="stroke:#181818;stroke-width:1;"/></g><!--link HumanIdentity to Chat--><g class="link" data-entity-1="ent0004" data-entity-2="ent0010" data-link-type="association" data-source-line="50" id="lnk14"><path codeLine="50" d="M525.95,376.4869 C560.86,376.4869 597.32,376.4869 628.63,376.4869" fill="none" id="HumanIdentity-Chat" style="stroke:#181818;stroke-width:1;"/><polygon fill="#000000" points="553.32,365.0533,544.2749,362.1144,544.2749,367.9922,553.32,365.0533" style="stroke:#000000;stroke-width:1;"/><text fill="#000000" font-family="sans-serif" font-size="13" lengthAdjust="spacing" textLength="53.0854" x="557.32" y="369.5538">manage</text><text fill="#000000" font-family="sans-serif" font-size="13" lengthAdjust="spacing" textLength="8.271" x="533.6673" y="373.1471">1</text><text fill="#000000" font-family="sans-serif" font-size="13" lengthAdjust="spacing" textLength="6.5" x="614.1553" y="372.8217">*</text></g><!--link Chat to Message--><g class="link" data-entity-1="ent0010" data-entity-2="ent0015" data-link-type="association" data-source-line="51" id="lnk16"><path codeLine="51" d="M711.97,433.3769 C711.97,459.9969 711.97,491.6469 711.97,517.7569" fill="none" id="Chat-Message" style="stroke:#181818;stroke-width:1;"/><polygon fill="#000000" points="716.97,484.8033,719.9089,475.7582,714.0311,475.7582,716.97,484.8033" style="stroke:#000000;stroke-width:1;"/><text fill="#000000" font-family="sans-serif" font-size="13" lengthAdjust="spacing" textLength="48.2549" x="725.97" y="484.3038">contain</text><text fill="#000000" font-family="sans-serif" font-size="13" lengthAdjust="spacing" textLength="8.271" x="703.4987" y="453.2989">1</text><text fill="#000000" font-family="sans-serif" font-size="13" lengthAdjust="spacing" textLength="6.5" x="705.6176" y="507.0713">*</text></g><!--link Registry to Remote--><g class="link" data-entity-1="ent0017" data-entity-2="ent0002" data-link-type="association" data-source-line="62" id="lnk18"><path codeLine="62" d="M79.34,64.4269 C142.67,64.4269 273.07,64.4269 342.72,64.4269" fill="none" id="Registry-Remote" style="stroke:#181818;stroke-width:1;"/><polygon fill="#000000" points="106.06,52.9933,97.0149,50.0544,97.0149,55.9322,106.06,52.9933" style="stroke:#000000;stroke-width:1;"/><text fill="#000000" font-family="sans-serif" font-size="13" lengthAdjust="spacing" textLength="215.814" x="110.06" y="57.4938">take notes by String of published</text><text fill="#000000" font-family="sans-serif" font-size="13" lengthAdjust="spacing" textLength="24.8066" x="86.8083" y="77.6526">0..1</text><text fill="#000000" font-family="sans-serif" font-size="13" lengthAdjust="spacing" textLength="6.5" x="328.6046" y="60.2621">*</text></g><?plantuml-src VLJBRjim4BppAnOwoOrjD5SXC12qAE93Yg9kUobweAMDHLjyWAJY64N-lKkAaXaRgI-MTlOnd1tA2zyX59y5trak9KA3K7VSEGIZ5PwyZdy5OwqW2ANn9v0ejsWTOq9vj4-yHlYEKdk4kxizV-PBAyLgnLXi1FV6i8TUShLkK7b1zSLjiLWK7vVBsoAW5TGMUQXcz9PGWdu9F5RWFBSULlcm0C1V1lIBQDdcxIjuCst6NaSccnQxBXOBQJgKbE3oPWkeUsif-gdbleAVlMXIVA-5mkOh-gEsXmgsMdSPKlOEhU8IAzXuAzHkba3NwkC3TgOS0yD1DqVXwpOCAItMmWWQULbQTzhX_rCSgkOHdUCxB3s-NE6TSFuRoIEedjDH9nRS7RvekrQczrFCS4lpj2JbcZBJB50OvUb9a5mMRepLpzXaWjpiq8U4SfObXk1zoWr0p7xDDpfPWuv1ftAZduR1DmFXg8RkxR2TiMGEDRsl4x5PAXYcnOgHvIDNf9GzLwRSJCQrYXLvmpdaqiwZw6X_28baFKdUdHvJk_FYtlAQ57rx5p8dJh5HxWjNdGLEGD0oXouNVftt-y_K951q0GaFOtpmPsIVaC3x-lOM7meOrY2ZgdG_er66kqjW4fIkjbQU2mNJvo0Xuo5pTOV8-meFk23uXRP8vg5r9YVsljLswaESzNQFjISVxKWKUs9iV8BXmnDP3YwhmFC3Wg971zjJQWBw2Ko_9KrRR63r3m00?></g></svg>