<?plantuml 1.2026.2?><svg xmlns="http://www.w3.org/2000/svg" xmlns:xlink="http://www.w3.org/1999/xlink" contentStyleType="text/css" data-diagram-type="CLASS" height="416px" preserveAspectRatio="none" style="width:1184px;height:416px;background:#FFFFFF;" version="1.1" viewBox="0 0 1184 416" width="1184px" zoomAndPan="magnify"><defs/><g><!--class Remote--><g class="entity" data-qualified-name="Remote" data-source-line="14" id="ent0002"><rect fill="#F1F1F1" height="53.0703" rx="2.5" ry="2.5" style="stroke:#181818;stroke-width:0.5;" width="129.583" x="463.64" y="7"/><ellipse cx="478.64" cy="33.5352" fill="#B4A7E5" rx="11" ry="11" style="stroke:#181818;stroke-width:1;"/><path d="M474.5619,29.3008 L474.5619,27.1445 L481.9525,27.1445 L481.9525,29.3008 L479.4838,29.3008 L479.4838,37.3789 L481.9525,37.3789 L481.9525,39.5352 L474.5619,39.5352 L474.5619,37.3789 L477.0306,37.3789 L477.0306,29.3008 L474.5619,29.3008 Z " fill="#000000"/><text fill="#000000" font-family="sans-serif" font-size="12" font-style="italic" lengthAdjust="spacing" textLength="63.5977" x="509.6327" y="23.1387">&#171;java.rmi&#187;</text><text fill="#000000" font-family="sans-serif" font-size="25" font-style="italic" lengthAdjust="spacing" textLength="97.583" x="492.64" y="49.1743">Remote</text></g><!--class HumanIdentity--><g class="entity" data-qualified-name="HumanIdentity" data-source-line="16" id="ent0003"><rect fill="#F1F1F1" height="39.1016" rx="2.5" ry="2.5" style="stroke:#181818;stroke-width:0.5;" width="217.9741" x="419.44" y="253.62"/><ellipse cx="434.44" cy="273.1708" fill="#ADD1B2" rx="11" ry="11" style="stroke:#181818;stroke-width:1;"/><path d="M437.4088,278.8114 Q436.8306,279.1083 436.19,279.2489 Q435.5494,279.4052 434.8463,279.4052 Q432.3463,279.4052 431.0181,277.7645 Q429.7056,276.1083 429.7056,272.9833 Q429.7056,269.8583 431.0181,268.202 Q432.3463,266.5458 434.8463,266.5458 Q435.5494,266.5458 436.19,266.702 Q436.8463,266.8583 437.4088,267.1552 L437.4088,269.8739 Q436.7838,269.2958 436.19,269.0302 Q435.5963,268.7489 434.9713,268.7489 Q433.6275,268.7489 432.94,269.827 Q432.2525,270.8895 432.2525,272.9833 Q432.2525,275.077 432.94,276.1552 Q433.6275,277.2177 434.9713,277.2177 Q435.5963,277.2177 436.19,276.952 Q436.7838,276.6708 437.4088,276.0927 L437.4088,278.8114 Z " fill="#000000"/><text fill="#000000" font-family="sans-serif" font-size="25" lengthAdjust="spacing" textLength="185.9741" x="448.44" y="281.8256">HumanIdentity</text></g><!--class App--><g class="entity" data-qualified-name="App" data-source-line="16" id="ent0004"><rect fill="#F1F1F1" height="39.1016" rx="2.5" ry="2.5" style="stroke:#181818;stroke-width:0.5;" width="80.8403" x="233.01" y="253.62"/><ellipse cx="248.01" cy="273.1708" fill="#ADD1B2" rx="11" ry="11" style="stroke:#181818;stroke-width:1;"/><path d="M250.9788,278.8114 Q250.4006,279.1083 249.76,279.2489 Q249.1194,279.4052 248.4163,279.4052 Q245.9163,279.4052 244.5881,277.7645 Q243.2756,276.1083 243.2756,272.9833 Q243.2756,269.8583 244.5881,268.202 Q245.9163,266.5458 248.4163,266.5458 Q249.1194,266.5458 249.76,266.702 Q250.4163,266.8583 250.9788,267.1552 L250.9788,269.8739 Q250.3538,269.2958 249.76,269.0302 Q249.1663,268.7489 248.5413,268.7489 Q247.1975,268.7489 246.51,269.827 Q245.8225,270.8895 245.8225,272.9833 Q245.8225,275.077 246.51,276.1552 Q247.1975,277.2177 248.5413,277.2177 Q249.1663,277.2177 249.76,276.952 Q250.3538,276.6708 250.9788,276.0927 L250.9788,278.8114 Z " fill="#000000"/><text fill="#000000" font-family="sans-serif" font-size="25" lengthAdjust="spacing" textLength="48.8403" x="262.01" y="281.8256">App</text></g><!--class View--><g class="entity" data-qualified-name="View" data-source-line="17" id="ent0007"><rect fill="#F1F1F1" height="39.1016" rx="2.5" ry="2.5" style="stroke:#181818;stroke-width:0.5;" width="91.8755" x="47.49" y="253.62"/><ellipse cx="62.49" cy="273.1708" fill="#B4A7E5" rx="11" ry="11" style="stroke:#181818;stroke-width:1;"/><path d="M58.4119,268.9364 L58.4119,266.7802 L65.8025,266.7802 L65.8025,268.9364 L63.3338,268.9364 L63.3338,277.0145 L65.8025,277.0145 L65.8025,279.1708 L58.4119,279.1708 L58.4119,277.0145 L60.8806,277.0145 L60.8806,268.9364 L58.4119,268.9364 Z " fill="#000000"/><text fill="#000000" font-family="sans-serif" font-size="25" font-style="italic" lengthAdjust="spacing" textLength="59.8755" x="76.49" y="281.8256">View</text></g><!--class Directory--><g class="entity" data-qualified-name="Directory" data-source-line="19" id="ent0010"><rect fill="#F1F1F1" height="39.1016" rx="2.5" ry="2.5" style="stroke:#181818;stroke-width:0.5;" width="147.7715" x="454.55" y="371.17"/><ellipse cx="469.55" cy="390.7208" fill="#ADD1B2" rx="11" ry="11" style="stroke:#181818;stroke-width:1;"/><path d="M472.5188,396.3614 Q471.9406,396.6583 471.3,396.7989 Q470.6594,396.9552 469.9563,396.9552 Q467.4563,396.9552 466.1281,395.3145 Q464.8156,393.6583 464.8156,390.5333 Q464.8156,387.4083 466.1281,385.752 Q467.4563,384.0958 469.9563,384.0958 Q470.6594,384.0958 471.3,384.252 Q471.9563,384.4083 472.5188,384.7052 L472.5188,387.4239 Q471.8938,386.8458 471.3,386.5802 Q470.7063,386.2989 470.0813,386.2989 Q468.7375,386.2989 468.05,387.377 Q467.3625,388.4395 467.3625,390.5333 Q467.3625,392.627 468.05,393.7052 Q468.7375,394.7677 470.0813,394.7677 Q470.7063,394.7677 471.3,394.502 Q471.8938,394.2208 472.5188,393.6427 L472.5188,396.3614 Z " fill="#000000"/><text fill="#000000" font-family="sans-serif" font-size="25" lengthAdjust="spacing" textLength="115.7715" x="483.55" y="399.3756">Directory</text></g><!--class DirectoryServer--><g class="entity" data-qualified-name="DirectoryServer" data-source-line="19" id="ent0011"><rect fill="#F1F1F1" height="39.1016" rx="2.5" ry="2.5" style="stroke:#181818;stroke-width:0.5;" width="229.7539" x="770.55" y="371.17"/><ellipse cx="785.55" cy="390.7208" fill="#ADD1B2" rx="11" ry="11" style="stroke:#181818;stroke-width:1;"/><path d="M788.5188,396.3614 Q787.9406,396.6583 787.3,396.7989 Q786.6594,396.9552 785.9563,396.9552 Q783.4563,396.9552 782.1281,395.3145 Q780.8156,393.6583 780.8156,390.5333 Q780.8156,387.4083 782.1281,385.752 Q783.4563,384.0958 785.9563,384.0958 Q786.6594,384.0958 787.3,384.252 Q787.9563,384.4083 788.5188,384.7052 L788.5188,387.4239 Q787.8938,386.8458 787.3,386.5802 Q786.7063,386.2989 786.0813,386.2989 Q784.7375,386.2989 784.05,387.377 Q783.3625,388.4395 783.3625,390.5333 Q783.3625,392.627 784.05,393.7052 Q784.7375,394.7677 786.0813,394.7677 Q786.7063,394.7677 787.3,394.502 Q787.8938,394.2208 788.5188,393.6427 L788.5188,396.3614 Z " fill="#000000"/><text fill="#000000" font-family="sans-serif" font-size="25" lengthAdjust="spacing" textLength="197.7539" x="799.55" y="399.3756">DirectoryServer</text></g><!--class Entry--><g class="entity" data-qualified-name="Entry" data-source-line="20" id="ent0013"><rect fill="#F1F1F1" height="39.1016" rx="2.5" ry="2.5" style="stroke:#181818;stroke-width:0.5;" width="98.5161" x="195.17" y="371.17"/><ellipse cx="210.17" cy="390.7208" fill="#ADD1B2" rx="11" ry="11" style="stroke:#181818;stroke-width:1;"/><path d="M213.1388,396.3614 Q212.5606,396.6583 211.92,396.7989 Q211.2794,396.9552 210.5763,396.9552 Q208.0763,396.9552 206.7481,395.3145 Q205.4356,393.6583 205.4356,390.5333 Q205.4356,387.4083 206.7481,385.752 Q208.0763,384.0958 210.5763,384.0958 Q211.2794,384.0958 211.92,384.252 Q212.5763,384.4083 213.1388,384.7052 L213.1388,387.4239 Q212.5138,386.8458 211.92,386.5802 Q211.3263,386.2989 210.7013,386.2989 Q209.3575,386.2989 208.67,387.377 Q207.9825,388.4395 207.9825,390.5333 Q207.9825,392.627 208.67,393.7052 Q209.3575,394.7677 210.7013,394.7677 Q211.3263,394.7677 211.92,394.502 Q212.5138,394.2208 213.1388,393.6427 L213.1388,396.3614 Z " fill="#000000"/><text fill="#000000" font-family="sans-serif" font-size="25" lengthAdjust="spacing" textLength="66.5161" x="224.17" y="399.3756">Entry</text></g><!--class Chat--><g class="entity" data-qualified-name="Chat" data-source-line="21" id="ent0016"><rect fill="#F1F1F1" height="39.1016" rx="2.5" ry="2.5" style="stroke:#181818;stroke-width:0.5;" width="90.4229" x="986.22" y="253.62"/><ellipse cx="1001.22" cy="273.1708" fill="#ADD1B2" rx="11" ry="11" style="stroke:#181818;stroke-width:1;"/><path d="M1004.1888,278.8114 Q1003.6106,279.1083 1002.97,279.2489 Q1002.3294,279.4052 1001.6263,279.4052 Q999.1263,279.4052 997.7981,277.7645 Q996.4856,276.1083 996.4856,272.9833 Q996.4856,269.8583 997.7981,268.202 Q999.1263,266.5458 1001.6263,266.5458 Q1002.3294,266.5458 1002.97,266.702 Q1003.6263,266.8583 1004.1888,267.1552 L1004.1888,269.8739 Q1003.5638,269.2958 1002.97,269.0302 Q1002.3763,268.7489 1001.7513,268.7489 Q1000.4075,268.7489 999.72,269.827 Q999.0325,270.8895 999.0325,272.9833 Q999.0325,275.077 999.72,276.1552 Q1000.4075,277.2177 1001.7513,277.2177 Q1002.3763,277.2177 1002.97,276.952 Q1003.5638,276.6708 1004.1888,276.0927 L1004.1888,278.8114 Z " fill="#000000"/><text fill="#000000" font-family="sans-serif" font-size="25" lengthAdjust="spacing" textLength="58.4229" x="1015.22" y="281.8256">Chat</text></g><!--class Message--><g class="entity" data-qualified-name="Message" data-source-line="21" id="ent0017"><rect fill="#F1F1F1" height="39.1016" rx="2.5" ry="2.5" style="stroke:#181818;stroke-width:0.5;" width="141.5703" x="1035.65" y="371.17"/><ellipse cx="1050.65" cy="390.7208" fill="#ADD1B2" rx="11" ry="11" style="stroke:#181818;stroke-width:1;"/><path d="M1053.6188,396.3614 Q1053.0406,396.6583 1052.4,396.7989 Q1051.7594,396.9552 1051.0563,396.9552 Q1048.5563,396.9552 1047.2281,395.3145 Q1045.9156,393.6583 1045.9156,390.5333 Q1045.9156,387.4083 1047.2281,385.752 Q1048.5563,384.0958 1051.0563,384.0958 Q1051.7594,384.0958 1052.4,384.252 Q1053.0563,384.4083 1053.6188,384.7052 L1053.6188,387.4239 Q1052.9938,386.8458 1052.4,386.5802 Q1051.8063,386.2989 1051.1813,386.2989 Q1049.8375,386.2989 1049.15,387.377 Q1048.4625,388.4395 1048.4625,390.5333 Q1048.4625,392.627 1049.15,393.7052 Q1049.8375,394.7677 1051.1813,394.7677 Q1051.8063,394.7677 1052.4,394.502 Q1052.9938,394.2208 1053.6188,393.6427 L1053.6188,396.3614 Z " fill="#000000"/><text fill="#000000" font-family="sans-serif" font-size="25" lengthAdjust="spacing" textLength="109.5703" x="1064.65" y="399.3756">Message</text></g><!--class ShellView--><g class="entity" data-qualified-name="ShellView" data-source-line="62" id="ent0025"><rect fill="#F1F1F1" height="39.1016" rx="2.5" ry="2.5" style="stroke:#181818;stroke-width:0.5;" width="152.8618" x="7" y="371.17"/><ellipse cx="22" cy="390.7208" fill="#ADD1B2" rx="11" ry="11" style="stroke:#181818;stroke-width:1;"/><path d="M24.9688,396.3614 Q24.3906,396.6583 23.75,396.7989 Q23.1094,396.9552 22.4063,396.9552 Q19.9063,396.9552 18.5781,395.3145 Q17.2656,393.6583 17.2656,390.5333 Q17.2656,387.4083 18.5781,385.752 Q19.9063,384.0958 22.4063,384.0958 Q23.1094,384.0958 23.75,384.252 Q24.4063,384.4083 24.9688,384.7052 L24.9688,387.4239 Q24.3438,386.8458 23.75,386.5802 Q23.1563,386.2989 22.5313,386.2989 Q21.1875,386.2989 20.5,387.377 Q19.8125,388.4395 19.8125,390.5333 Q19.8125,392.627 20.5,393.7052 Q21.1875,394.7677 22.5313,394.7677 Q23.1563,394.7677 23.75,394.502 Q24.3438,394.2208 24.9688,393.6427 L24.9688,396.3614 Z " fill="#000000"/><text fill="#000000" font-family="sans-serif" font-size="25" lengthAdjust="spacing" textLength="120.8618" x="36" y="399.3756">ShellView</text></g><!--class Identity--><g class="entity" data-qualified-name="Identity" data-source-line="132" id="ent0026"><rect fill="#F1F1F1" height="39.1016" rx="2.5" ry="2.5" style="stroke:#181818;stroke-width:0.5;" width="127.813" x="464.52" y="121.07"/><ellipse cx="479.52" cy="140.6208" fill="#B4A7E5" rx="11" ry="11" style="stroke:#181818;stroke-width:1;"/><path d="M475.4419,136.3864 L475.4419,134.2302 L482.8325,134.2302 L482.8325,136.3864 L480.3638,136.3864 L480.3638,144.4645 L482.8325,144.4645 L482.8325,146.6208 L475.4419,146.6208 L475.4419,144.4645 L477.9106,144.4645 L477.9106,136.3864 L475.4419,136.3864 Z " fill="#000000"/><text fill="#000000" font-family="sans-serif" font-size="25" font-style="italic" lengthAdjust="spacing" textLength="95.813" x="493.52" y="149.2756">Identity</text></g><!--link App to HumanIdentity--><g class="link" data-entity-1="ent0004" data-entity-2="ent0003" data-link-type="association" data-source-line="16" id="lnk6"><path codeLine="16" d="M314.12,273.17 C342.52,273.17 381.87,273.17 419.11,273.17" fill="none" id="App-HumanIdentity" style="stroke:#181818;stroke-width:1;"/><polygon fill="#000000" points="348.65,261.7364,339.6049,258.7975,339.6049,264.6753,348.65,261.7364" style="stroke:#000000;stroke-width:1;"/><text fill="#000000" font-family="sans-serif" font-size="13" lengthAdjust="spacing" textLength="41.5518" x="352.65" y="266.2369">create</text><text fill="#000000" font-family="sans-serif" font-size="13" lengthAdjust="spacing" textLength="24.8066" x="321.9181" y="269.145">0..1</text><text fill="#000000" font-family="sans-serif" font-size="13" lengthAdjust="spacing" textLength="8.271" x="403.1519" y="269.7142">1</text></g><!--link View to App--><g class="link" data-entity-1="ent0007" data-entity-2="ent0004" data-link-type="association" data-source-line="17" id="lnk9"><path codeLine="17" d="M139.79,273.17 C168.54,273.17 205.12,273.17 232.75,273.17" fill="none" id="View-App" style="stroke:#181818;stroke-width:1;"/><polygon fill="#000000" points="163.69,261.7364,172.7351,264.6753,172.7351,258.7975,163.69,261.7364" style="stroke:#000000;stroke-width:1;"/><text fill="#000000" font-family="sans-serif" font-size="13" lengthAdjust="spacing" textLength="30.2783" x="177.69" y="266.2369">start</text><text fill="#000000" font-family="sans-serif" font-size="13" lengthAdjust="spacing" textLength="8.271" x="147.5225" y="269.0985">1</text><text fill="#000000" font-family="sans-serif" font-size="13" lengthAdjust="spacing" textLength="8.271" x="216.8155" y="268.9126">1</text></g><!--link Directory to DirectoryServer--><g class="link" data-entity-1="ent0010" data-entity-2="ent0011" data-link-type="dependency" data-source-line="19" id="lnk12"><path codeLine="19" d="M602.4,390.72 C650.8,390.72 709.04,390.72 764.08,390.72" fill="none" id="Directory-to-DirectoryServer" style="stroke:#181818;stroke-width:1;"/><polygon fill="#181818" points="770.08,390.72,761.08,386.72,765.08,390.72,761.08,394.72,770.08,390.72" style="stroke:#181818;stroke-width:1;"/><polygon fill="#000000" points="629.44,379.2864,620.3949,376.3475,620.3949,382.2253,629.44,379.2864" style="stroke:#000000;stroke-width:1;"/><text fill="#000000" font-family="sans-serif" font-size="13" lengthAdjust="spacing" textLength="119.6279" x="633.44" y="383.7869">connects via HTTP</text></g><!--reverse link Entry to Directory--><g class="link" data-entity-1="ent0013" data-entity-2="ent0010" data-link-type="dependency" data-source-line="20" id="lnk15"><path codeLine="20" d="M299.9,390.72 C344.16,390.72 403.66,390.72 454.2,390.72" fill="none" id="Entry-backto-Directory" style="stroke:#181818;stroke-width:1;"/><polygon fill="#181818" points="293.9,390.72,302.9,394.72,298.9,390.72,302.9,386.72,293.9,390.72" style="stroke:#181818;stroke-width:1;"/><polygon fill="#000000" points="311.12,379.2864,320.1651,382.2253,320.1651,376.3475,311.12,379.2864" style="stroke:#000000;stroke-width:1;"/><text fill="#000000" font-family="sans-serif" font-size="13" lengthAdjust="spacing" textLength="111.9282" x="325.12" y="383.7869">return structured</text></g><!--link Chat to Message--><g class="link" data-entity-1="ent0016" data-entity-2="ent0017" data-link-type="association" data-source-line="21" id="lnk18"><path codeLine="21" d="M1043.65,292.99 C1057.59,314.48 1080.27,349.42 1094.22,370.9" fill="none" id="Chat-Message" style="stroke:#181818;stroke-width:1;"/><polygon fill="#000000" points="1081.1422,336.9304,1078.6828,327.7433,1073.7525,330.9435,1081.1422,336.9304" style="stroke:#000000;stroke-width:1;"/><text fill="#000000" font-family="sans-serif" font-size="13" lengthAdjust="spacing" textLength="39.9395" x="1087.42" y="337.2369">stores</text><text fill="#000000" font-family="sans-serif" font-size="13" lengthAdjust="spacing" textLength="8.271" x="1037.9996" y="312.7591">1</text><text fill="#000000" font-family="sans-serif" font-size="13" lengthAdjust="spacing" textLength="6.5" x="1083.824" y="359.9609">*</text></g><!--link HumanIdentity to Chat--><g class="link" data-entity-1="ent0003" data-entity-2="ent0016" data-link-type="association" data-source-line="22" id="lnk19"><path codeLine="22" d="M637.88,273.17 C746.55,273.17 907.86,273.17 985.88,273.17" fill="none" id="HumanIdentity-Chat" style="stroke:#181818;stroke-width:1;"/><polygon fill="#000000" points="794.82,261.7364,785.7749,258.7975,785.7749,264.6753,794.82,261.7364" style="stroke:#000000;stroke-width:1;"/><text fill="#000000" font-family="sans-serif" font-size="13" lengthAdjust="spacing" textLength="39.9395" x="798.82" y="266.2369">stores</text><text fill="#000000" font-family="sans-serif" font-size="13" lengthAdjust="spacing" textLength="8.271" x="645.5117" y="269.7374">1</text><text fill="#000000" font-family="sans-serif" font-size="13" lengthAdjust="spacing" textLength="6.5" x="971.5782" y="268.9591">*</text></g><!--link HumanIdentity to Directory--><g class="link" data-entity-1="ent0003" data-entity-2="ent0010" data-link-type="association" data-source-line="23" id="lnk20"><path codeLine="23" d="M528.43,292.99 C528.43,314.48 528.43,349.42 528.43,370.9" fill="none" id="HumanIdentity-Directory" style="stroke:#181818;stroke-width:1;"/><polygon fill="#000000" points="533.43,337.7364,536.3689,328.6913,530.4911,328.6913,533.43,337.7364" style="stroke:#000000;stroke-width:1;"/><text fill="#000000" font-family="sans-serif" font-size="13" lengthAdjust="spacing" textLength="81.7197" x="542.43" y="337.2369">use as client</text><text fill="#000000" font-family="sans-serif" font-size="13" lengthAdjust="spacing" textLength="8.271" x="519.3439" y="312.7591">1</text><text fill="#000000" font-family="sans-serif" font-size="13" lengthAdjust="spacing" textLength="8.271" x="519.2931" y="359.9609">1</text></g><!--link HumanIdentity to HumanIdentity--><g class="link" data-entity-1="ent0003" data-entity-2="ent0003" data-link-type="association" data-source-line="24" id="lnk22"><path codeLine="24" d="M637.68,262.58 C658.06,263.89 672.42,267.42 672.42,273.17 C672.42,278.92 658.06,282.45 637.68,283.75" fill="none" id="HumanIdentity-HumanIdentity" style="stroke:#181818;stroke-width:1;"/><text fill="#000000" font-family="sans-serif" font-size="13" lengthAdjust="spacing" textLength="4.1323" x="753.7413" y="270.2369">&#160;</text><polygon fill="#000000" points="683.7407,285.8589,686.0934,276.6439,680.2276,277.021,683.7407,285.8589" style="stroke:#000000;stroke-width:1;"/><text fill="#000000" font-family="sans-serif" font-size="13" lengthAdjust="spacing" textLength="141.7749" x="691.42" y="285.3697">remotely discuss with</text><text fill="#000000" font-family="sans-serif" font-size="13" lengthAdjust="spacing" textLength="6.5" x="645.2388" y="258.4359">*</text><text fill="#000000" font-family="sans-serif" font-size="13" lengthAdjust="spacing" textLength="6.5" x="645.2388" y="297.0361">*</text></g><!--link View to HumanIdentity--><g class="link" data-entity-1="ent0007" data-entity-2="ent0003" data-link-type="association" data-source-line="25" id="lnk24"><path codeLine="25" d="M99.99,253.26 C106.84,236.05 119.42,212.28 139.43,201.34 C166.72,186.4 389.63,192.4 419.43,201.34 C453.08,211.43 485.94,235.63 506.63,253.16" fill="none" id="View-HumanIdentity" style="stroke:#181818;stroke-width:1;"/><text fill="#000000" font-family="sans-serif" font-size="13" lengthAdjust="spacing" textLength="4.1323" x="277.6632" y="203.2369">&#160;</text><polygon fill="#000000" points="150.43,213.868,141.3842,210.9313,141.3856,216.8091,150.43,213.868" style="stroke:#000000;stroke-width:1;"/><text fill="#000000" font-family="sans-serif" font-size="13" lengthAdjust="spacing" textLength="265.5986" x="153.43" y="218.3697">delegate actions and subscribe for notifs</text><text fill="#000000" font-family="sans-serif" font-size="13" lengthAdjust="spacing" textLength="6.5" x="95.0622" y="242.6363">*</text><text fill="#000000" font-family="sans-serif" font-size="13" lengthAdjust="spacing" textLength="24.8066" x="473.238" y="242.5082">0..1</text></g><!--reverse link View to ShellView--><g class="link" data-entity-1="ent0007" data-entity-2="ent0025" data-link-type="extension" data-source-line="173" id="lnk27"><path codeLine="173" d="M90.2479,310.923 C88.3879,332.413 86.92,349.42 85.06,370.9" fill="none" id="View-backto-ShellView" style="stroke:#181818;stroke-width:1;stroke-dasharray:7,7;"/><polygon fill="none" points="91.8,292.99,84.2702,310.4056,96.2255,311.4403,91.8,292.99" style="stroke:#181818;stroke-width:1;"/></g><!--reverse link Remote to Identity--><g class="link" data-entity-1="ent0002" data-entity-2="ent0026" data-link-type="extension" data-source-line="174" id="lnk28"><path codeLine="174" d="M528.43,78.51 C528.43,97.23 528.43,104.05 528.43,120.86" fill="none" id="Remote-backto-Identity" style="stroke:#181818;stroke-width:1;"/><polygon fill="none" points="528.43,60.51,522.43,78.51,534.43,78.51,528.43,60.51" style="stroke:#181818;stroke-width:1;"/></g><!--reverse link Identity to HumanIdentity--><g class="link" data-entity-1="ent0026" data-entity-2="ent0003" data-link-type="extension" data-source-line="175" id="lnk29"><path codeLine="175" d="M528.43,178.6 C528.43,203.35 528.43,228.4 528.43,253.16" fill="none" id="Identity-backto-HumanIdentity" style="stroke:#181818;stroke-width:1;stroke-dasharray:7,7;"/><polygon fill="none" points="528.43,160.6,522.43,178.6,534.43,178.6,528.43,160.6" style="stroke:#181818;stroke-width:1;"/></g><?plantuml-src dLXjRzis4FvS_GeYN-grST8Es1SZC90uwMAWJGBRwJ2imq1B5vkD96eavSHhyzztH-g5akMNzbDCykxXyUwv5-KrcyxEP-DHy9hz3YaeRY1YypKRpUvOdosDoVJWz7GXp3AVduGoETKyoI5MCkPfT1gQB43DgLd742n510oIpAnP0iaSb0xqeqWphdZ2mfXhVMwC4lFSm3YKwLJy1-nTM-I3J8qz-VKt1rX25Gkpb96cEy-ZI1WXKro8r81wu26m2IJI03ix-yfN_4GbOZWCWkiyuUauWjG8DEte_L4_xX-zEpbvVyJEisp0GWMSb09SbSTuzbd0qu1fmvLXY78f58H6gZNh3rcrc89QWK8CcQQuezbAS7OzG-SDVOqOTQvIezO3fi3aAaLSbOVu2xqz34PBRkpD_QCtH-mJQCqNG7TB1HhFDrz0SgIrKoYoxwZC6B1S0-CQ7IrGQbFbZNqw8ZVs1-nBggnVupMBX0vphTaJ4c8Jm3grm73k-v964CE2_Cj36ow6l64wd-iGgG3iGIgMIYCUw0aOridLfzlFL_JhwkQoe6PWcM7Voxu5h_eipqKqOFVtuqjQyInJSWMuCvSo1fxIPkASg0Viez3chF3fa8waMOAwrw1Idg2NfyZ9T16yUiiMOEuHkVTBYMstRdrnEcied1UNqq5r_LkclHDJdQ3CIeg814IAYEO6dWhBUWQUJObzp7YEH5Vb6lKAiUBMOgNfrkRxNeBINJNzhC-MKXlVzXZLAdNBpI5jVvKYxUKjvtXsupDMrWjkeuzyvX5A0Kzw0hqzJhFSk7NjgjeeUr4Hn8q8z9d8V1FpJgUBhDU5F5r271Ff77gOAuMqT3bICiNRd40eCae3_tfwF4GtO9waUcpGILJ9qA0y7UcGO-vJhDmFsejAtrytlDxVwrwzb4_N46U-XrrzccBAXKiolQVQjdl255OIqZv2b2UPJvaAEPOQza8M-RLNJi53VW2SXZJg8dth4NTOTmMYyBJv5lBGdPBOPlpT9oxC7rYJB0isZx71e6KomT15lHY3t74fF0lJlgYqCz6BAWNzQ55pw7K6knLJHxb_Sy2aUq3pTeYDA2ZxX6nncNEggFj49pOi-wHsljGvurfGhrbNFkeeDQuTkWpyXjx12BxKoO30F3ihIfpxOsjE9Pbmp0wk5heqzA-_FHigiIL6CGOgN3ru3d55pV8QHvMhOhLTQG8BL0Fr4ue9vi0Fg55Tl93HUdjLzAKfAMQO35ikE2QgcHoHSDOvPbrfKqU3nfXl3R_UtKvcLlLGRzTW1HLSIEdUHhqciq7D17PRmnCith4i2ZdkFzEx3InSIMnsjAAFqPCtU-gqYKhd3jUUZWcQzYfmruWjVgirr9DXsHdm_NoEmnTE8o-7fQydVrWYRohiJEak_5qPkob_G37OLDgLy2--vwhnhkKzDnEUwySFKjcYtupmCKFgcl6bwxwTfXG8hhrSyF3HmXoeDgcxpO4QqxhnZDCDnMPM7HVKTipR0JggMcYN5Izb6ZK7vQtp3s5eLoQjJGGyR0mKWxhOqluAQLtEk4HnD-3cwgCCUUoA7UcKl-XqV7brCnlF_lpdOdnpsPW8cwETcuSxHx1sV_Qbh2bUSKSGzrLMllu3ChHIw1eKwk7gRJ7xR9qfw83Ur7b9LrHyR7-ksK8XRwIHSJJg5ge-PYW0HJ9ShV2Utif-0z6sB-xDFzi9w2c4EobchVovJFoX_3iqwtu-rrfjP0DpjCyFo89gz6sd48OxYcRIdTVVZyutZaYj2rSmkssBUo8FsEBeQ_5YlKdc-yq1l_m4yUO3BUCLJ191VQULOzIxWi3shBFl9oVrnqrG_eVZUxzVaxagB5QuKMl-1m00?></g></svg>