<?plantuml 1.2026.1?><svg xmlns="http://www.w3.org/2000/svg" xmlns:xlink="http://www.w3.org/1999/xlink" contentStyleType="text/css" data-diagram-type="CLASS" height="1275px" preserveAspectRatio="none" style="width:1040px;height:1275px;background:#FFFFFF;" version="1.1" viewBox="0 0 1040 1275" width="1040px" zoomAndPan="magnify"><title>Diagramme de classe poneytoponey</title><defs/><g><g class="title" data-source-line="1"><text fill="#000000" font-family="sans-serif" font-size="14" font-weight="bold" lengthAdjust="spacing" textLength="286.5215" x="369.8149" y="22.9951">Diagramme de classe poneytoponey</text></g><!--class Remote--><g class="entity" data-qualified-name="Remote" data-source-line="5" id="ent0002"><rect fill="#F1F1F1" height="40.2656" rx="2.5" ry="2.5" style="stroke:#181818;stroke-width:0.5;" width="91.5977" x="343.17" y="44.2969"/><ellipse cx="358.17" cy="64.4297" fill="#B4A7E5" rx="11" ry="11" style="stroke:#181818;stroke-width:1;"/><path d="M354.0919,60.1953 L354.0919,58.0391 L361.4825,58.0391 L361.4825,60.1953 L359.0138,60.1953 L359.0138,68.2734 L361.4825,68.2734 L361.4825,70.4297 L354.0919,70.4297 L354.0919,68.2734 L356.5606,68.2734 L356.5606,60.1953 L354.0919,60.1953 Z " fill="#000000"/><text fill="#000000" font-family="sans-serif" font-size="12" font-style="italic" lengthAdjust="spacing" textLength="63.5977" x="370.17" y="60.4355">&#171;java.rmi&#187;</text><text fill="#000000" font-family="sans-serif" font-size="14" font-style="italic" lengthAdjust="spacing" textLength="54.6465" x="374.6456" y="76.2607">Remote</text></g><!--class App--><g class="entity" data-qualified-name="App" data-source-line="7" id="ent0003"><rect fill="#F1F1F1" height="32" rx="2.5" ry="2.5" style="stroke:#181818;stroke-width:0.5;" width="59.3506" x="444.3" y="729.3069"/><ellipse cx="459.3" cy="745.3069" fill="#ADD1B2" rx="11" ry="11" style="stroke:#181818;stroke-width:1;"/><path d="M462.2688,750.9475 Q461.6906,751.2444 461.05,751.385 Q460.4094,751.5413 459.7063,751.5413 Q457.2063,751.5413 455.8781,749.9006 Q454.5656,748.2444 454.5656,745.1194 Q454.5656,741.9944 455.8781,740.3381 Q457.2063,738.6819 459.7063,738.6819 Q460.4094,738.6819 461.05,738.8381 Q461.7063,738.9944 462.2688,739.2913 L462.2688,742.01 Q461.6438,741.4319 461.05,741.1663 Q460.4563,740.885 459.8313,740.885 Q458.4875,740.885 457.8,741.9631 Q457.1125,743.0256 457.1125,745.1194 Q457.1125,747.2131 457.8,748.2913 Q458.4875,749.3538 459.8313,749.3538 Q460.4563,749.3538 461.05,749.0881 Q461.6438,748.8069 462.2688,748.2288 L462.2688,750.9475 Z " fill="#000000"/><text fill="#000000" font-family="sans-serif" font-size="14" lengthAdjust="spacing" textLength="27.3506" x="473.3" y="750.1536">App</text></g><!--class HumanIdentity--><g class="entity" data-qualified-name="HumanIdentity" data-source-line="8" id="ent0004"><rect fill="#F1F1F1" height="194.6719" rx="2.5" ry="2.5" style="stroke:#181818;stroke-width:0.5;" width="307.7773" x="235.08" y="421.0469"/><ellipse cx="332.6459" cy="437.0469" fill="#ADD1B2" rx="11" ry="11" style="stroke:#181818;stroke-width:1;"/><path d="M335.6147,442.6875 Q335.0365,442.9844 334.3959,443.125 Q333.7553,443.2813 333.0522,443.2813 Q330.5522,443.2813 329.224,441.6406 Q327.9115,439.9844 327.9115,436.8594 Q327.9115,433.7344 329.224,432.0781 Q330.5522,430.4219 333.0522,430.4219 Q333.7553,430.4219 334.3959,430.5781 Q335.0522,430.7344 335.6147,431.0313 L335.6147,433.75 Q334.9897,433.1719 334.3959,432.9063 Q333.8022,432.625 333.1772,432.625 Q331.8334,432.625 331.1459,433.7031 Q330.4584,434.7656 330.4584,436.8594 Q330.4584,438.9531 331.1459,440.0313 Q331.8334,441.0938 333.1772,441.0938 Q333.8022,441.0938 334.3959,440.8281 Q334.9897,440.5469 335.6147,439.9688 L335.6147,442.6875 Z " fill="#000000"/><text fill="#000000" font-family="sans-serif" font-size="14" lengthAdjust="spacing" textLength="104.1455" x="353.1459" y="441.8936">HumanIdentity</text><line style="stroke:#181818;stroke-width:0.5;" x1="236.08" x2="541.8573" y1="453.0469" y2="453.0469"/><g data-visibility-modifier="PRIVATE_FIELD"><rect fill="none" height="6" style="stroke:#C82930;stroke-width:1;" width="6" x="243.08" y="463.6953"/></g><text fill="#000000" font-family="sans-serif" font-size="14" lengthAdjust="spacing" textLength="121.1875" x="255.08" y="470.042">username: String</text><line style="stroke:#181818;stroke-width:0.5;" x1="236.08" x2="541.8573" y1="477.3438" y2="477.3438"/><g data-visibility-modifier="PUBLIC_METHOD"><ellipse cx="246.08" cy="490.9922" fill="#84BE84" rx="3" ry="3" style="stroke:#038048;stroke-width:1;"/></g><text fill="#000000" font-family="sans-serif" font-size="14" lengthAdjust="spacing" textLength="156.4746" x="255.08" y="494.3389">getUsername(): String</text><g data-visibility-modifier="PUBLIC_METHOD"><ellipse cx="246.08" cy="507.2891" fill="#84BE84" rx="3" ry="3" style="stroke:#038048;stroke-width:1;"/></g><text fill="#000000" font-family="sans-serif" font-size="14" lengthAdjust="spacing" textLength="247.8369" x="255.08" y="510.6357">listParticipantsUsername(): String[]</text><g data-visibility-modifier="PUBLIC_METHOD"><ellipse cx="246.08" cy="523.5859" fill="#84BE84" rx="3" ry="3" style="stroke:#038048;stroke-width:1;"/></g><text fill="#000000" font-family="sans-serif" font-size="14" lengthAdjust="spacing" textLength="126.7314" x="255.08" y="526.9326">getChats(): Chat[]</text><g data-visibility-modifier="PUBLIC_METHOD"><ellipse cx="246.08" cy="539.8828" fill="#84BE84" rx="3" ry="3" style="stroke:#038048;stroke-width:1;"/></g><text fill="#000000" font-family="sans-serif" font-size="14" lengthAdjust="spacing" textLength="242.9287" x="255.08" y="543.2295">createChat(recipient: String): Chat</text><g data-visibility-modifier="PUBLIC_METHOD"><ellipse cx="246.08" cy="556.1797" fill="#84BE84" rx="3" ry="3" style="stroke:#038048;stroke-width:1;"/></g><text fill="#000000" font-family="sans-serif" font-size="14" lengthAdjust="spacing" textLength="185.9307" x="255.08" y="559.5264">approveChat(chatId: Uuid)</text><g data-visibility-modifier="PUBLIC_METHOD"><ellipse cx="246.08" cy="572.4766" fill="#84BE84" rx="3" ry="3" style="stroke:#038048;stroke-width:1;"/></g><text fill="#000000" font-family="sans-serif" font-size="14" lengthAdjust="spacing" textLength="281.7773" x="255.08" y="575.8232">subscribeViewForChatEvent(view: View)</text><g data-visibility-modifier="PUBLIC_METHOD"><ellipse cx="246.08" cy="588.7734" fill="#84BE84" rx="3" ry="3" style="stroke:#038048;stroke-width:1;"/></g><text fill="#000000" font-family="sans-serif" font-size="14" lengthAdjust="spacing" textLength="278.3936" x="255.08" y="592.1201">sendMessage(chatId: Uuid, text: String)</text><g data-visibility-modifier="PUBLIC_METHOD"><ellipse cx="246.08" cy="605.0703" fill="#84BE84" rx="3" ry="3" style="stroke:#038048;stroke-width:1;"/></g><text fill="#000000" font-family="sans-serif" font-size="14" lengthAdjust="spacing" textLength="164.418" x="255.08" y="608.417">closeChat(chatId: Uuid)</text></g><!--class View--><g class="entity" data-qualified-name="View" data-source-line="9" id="ent0006"><rect fill="#F1F1F1" height="105.1875" rx="2.5" ry="2.5" style="stroke:#181818;stroke-width:0.5;" width="271.335" x="198.3" y="874.9069"/><ellipse cx="312.9523" cy="890.9069" fill="#B4A7E5" rx="11" ry="11" style="stroke:#181818;stroke-width:1;"/><path d="M308.8742,886.6725 L308.8742,884.5162 L316.2648,884.5162 L316.2648,886.6725 L313.7961,886.6725 L313.7961,894.7506 L316.2648,894.7506 L316.2648,896.9069 L308.8742,896.9069 L308.8742,894.7506 L311.343,894.7506 L311.343,886.6725 L308.8742,886.6725 Z " fill="#000000"/><text fill="#000000" font-family="sans-serif" font-size="14" font-style="italic" lengthAdjust="spacing" textLength="33.5303" x="333.4523" y="895.7536">View</text><line style="stroke:#181818;stroke-width:0.5;" x1="199.3" x2="468.635" y1="906.9069" y2="906.9069"/><text fill="#000000" font-family="sans-serif" font-size="14" lengthAdjust="spacing" textLength="259.335" x="204.3" y="923.902">start(humanIdentity: HumanIdentity)</text><text fill="#000000" font-family="sans-serif" font-size="14" lengthAdjust="spacing" textLength="221.1563" x="204.3" y="940.1989">showChatRequest(from: String)</text><text fill="#000000" font-family="sans-serif" font-size="14" lengthAdjust="spacing" textLength="201.7969" x="204.3" y="956.4957">showChatClose(from: String)</text><text fill="#000000" font-family="sans-serif" font-size="14" lengthAdjust="spacing" textLength="211.709" x="204.3" y="972.7926">showChatRefuse(from: String)</text></g><!--class ShellView--><g class="entity" data-qualified-name="ShellView" data-source-line="18" id="ent0008"><rect fill="#F1F1F1" height="227.2656" rx="2.5" ry="2.5" style="stroke:#181818;stroke-width:0.5;" width="273.3311" x="197.31" y="1041.0869"/><ellipse cx="295.8842" cy="1057.0869" fill="#ADD1B2" rx="11" ry="11" style="stroke:#181818;stroke-width:1;"/><path d="M298.853,1062.7275 Q298.2748,1063.0244 297.6342,1063.165 Q296.9936,1063.3213 296.2905,1063.3213 Q293.7905,1063.3213 292.4623,1061.6806 Q291.1498,1060.0244 291.1498,1056.8994 Q291.1498,1053.7744 292.4623,1052.1181 Q293.7905,1050.4619 296.2905,1050.4619 Q296.9936,1050.4619 297.6342,1050.6181 Q298.2905,1050.7744 298.853,1051.0713 L298.853,1053.79 Q298.228,1053.2119 297.6342,1052.9463 Q297.0405,1052.665 296.4155,1052.665 Q295.0717,1052.665 294.3842,1053.7431 Q293.6967,1054.8056 293.6967,1056.8994 Q293.6967,1058.9931 294.3842,1060.0713 Q295.0717,1061.1338 296.4155,1061.1338 Q297.0405,1061.1338 297.6342,1060.8681 Q298.228,1060.5869 298.853,1060.0088 L298.853,1062.7275 Z " fill="#000000"/><text fill="#000000" font-family="sans-serif" font-size="14" lengthAdjust="spacing" textLength="67.6826" x="316.3842" y="1061.9336">ShellView</text><line style="stroke:#181818;stroke-width:0.5;" x1="198.31" x2="469.6411" y1="1073.0869" y2="1073.0869"/><g data-visibility-modifier="PRIVATE_FIELD"><rect fill="none" height="6" style="stroke:#C82930;stroke-width:1;" width="6" x="205.31" y="1083.7353"/></g><text fill="#000000" font-family="sans-serif" font-size="14" lengthAdjust="spacing" textLength="124.8379" x="217.31" y="1090.082">currentChat: Uuid</text><g data-visibility-modifier="PRIVATE_FIELD"><rect fill="none" height="6" style="stroke:#C82930;stroke-width:1;" width="6" x="205.31" y="1100.0322"/></g><text fill="#000000" font-family="sans-serif" font-size="14" lengthAdjust="spacing" textLength="140.2461" x="217.31" y="1106.3789">joinedNetwork: bool</text><line style="stroke:#181818;stroke-width:0.5;" x1="198.31" x2="469.6411" y1="1113.6806" y2="1113.6806"/><g data-visibility-modifier="PRIVATE_METHOD"><rect fill="#F24D5C" height="6" style="stroke:#C82930;stroke-width:1;" width="6" x="205.31" y="1124.3291"/></g><text fill="#000000" font-family="sans-serif" font-size="14" lengthAdjust="spacing" textLength="157.3291" x="217.31" y="1130.6757">join(username: String)</text><g data-visibility-modifier="PRIVATE_METHOD"><rect fill="#F24D5C" height="6" style="stroke:#C82930;stroke-width:1;" width="6" x="205.31" y="1140.6259"/></g><text fill="#000000" font-family="sans-serif" font-size="14" lengthAdjust="spacing" textLength="79.0234" x="217.31" y="1146.9726">showHelp()</text><g data-visibility-modifier="PRIVATE_METHOD"><rect fill="#F24D5C" height="6" style="stroke:#C82930;stroke-width:1;" width="6" x="205.31" y="1156.9228"/></g><text fill="#000000" font-family="sans-serif" font-size="14" lengthAdjust="spacing" textLength="247.3311" x="217.31" y="1163.2695">createSwitchChat(recipient: String)</text><g data-visibility-modifier="PRIVATE_METHOD"><rect fill="#F24D5C" height="6" style="stroke:#C82930;stroke-width:1;" width="6" x="205.31" y="1173.2197"/></g><text fill="#000000" font-family="sans-serif" font-size="14" lengthAdjust="spacing" textLength="192.3564" x="217.31" y="1179.5664">closeChat(recipient: String)</text><g data-visibility-modifier="PRIVATE_METHOD"><rect fill="#F24D5C" height="6" style="stroke:#C82930;stroke-width:1;" width="6" x="205.31" y="1189.5166"/></g><text fill="#000000" font-family="sans-serif" font-size="14" lengthAdjust="spacing" textLength="200.375" x="217.31" y="1195.8632">refuseChat(recipient: String)</text><g data-visibility-modifier="PRIVATE_METHOD"><rect fill="#F24D5C" height="6" style="stroke:#C82930;stroke-width:1;" width="6" x="205.31" y="1205.8134"/></g><text fill="#000000" font-family="sans-serif" font-size="14" lengthAdjust="spacing" textLength="184.7754" x="217.31" y="1212.1601">sendMessage(text: String)</text><g data-visibility-modifier="PRIVATE_METHOD"><rect fill="#F24D5C" height="6" style="stroke:#C82930;stroke-width:1;" width="6" x="205.31" y="1222.1103"/></g><text fill="#000000" font-family="sans-serif" font-size="14" lengthAdjust="spacing" textLength="114.3516" x="217.31" y="1228.457">listParticipants()</text><g data-visibility-modifier="PRIVATE_METHOD"><rect fill="#F24D5C" height="6" style="stroke:#C82930;stroke-width:1;" width="6" x="205.31" y="1238.4072"/></g><text fill="#000000" font-family="sans-serif" font-size="14" lengthAdjust="spacing" textLength="157.3564" x="217.31" y="1244.7539">waitWithShellPrompt()</text><g data-visibility-modifier="PRIVATE_METHOD"><rect fill="#F24D5C" height="6" style="stroke:#C82930;stroke-width:1;" width="6" x="205.31" y="1254.7041"/></g><text fill="#000000" font-family="sans-serif" font-size="14" lengthAdjust="spacing" textLength="122.0078" x="217.31" y="1261.0507">parseCommand()</text></g><!--class Chat--><g class="entity" data-qualified-name="Chat" data-source-line="32" id="ent0010"><rect fill="#F1F1F1" height="113.1875" rx="2.5" ry="2.5" style="stroke:#181818;stroke-width:0.5;" width="166.4443" x="829.75" y="461.7869"/><ellipse cx="892.3638" cy="477.7869" fill="#ADD1B2" rx="11" ry="11" style="stroke:#181818;stroke-width:1;"/><path d="M895.3325,483.4275 Q894.7544,483.7244 894.1138,483.865 Q893.4731,484.0212 892.77,484.0212 Q890.27,484.0212 888.9419,482.3806 Q887.6294,480.7244 887.6294,477.5994 Q887.6294,474.4744 888.9419,472.8181 Q890.27,471.1619 892.77,471.1619 Q893.4731,471.1619 894.1138,471.3181 Q894.77,471.4744 895.3325,471.7712 L895.3325,474.49 Q894.7075,473.9119 894.1138,473.6462 Q893.52,473.365 892.895,473.365 Q891.5513,473.365 890.8638,474.4431 Q890.1763,475.5056 890.1763,477.5994 Q890.1763,479.6931 890.8638,480.7712 Q891.5513,481.8337 892.895,481.8337 Q893.52,481.8337 894.1138,481.5681 Q894.7075,481.2869 895.3325,480.7087 L895.3325,483.4275 Z " fill="#000000"/><text fill="#000000" font-family="sans-serif" font-size="14" lengthAdjust="spacing" textLength="32.7168" x="912.8638" y="482.6336">Chat</text><line style="stroke:#181818;stroke-width:0.5;" x1="830.75" x2="995.1943" y1="493.7869" y2="493.7869"/><g data-visibility-modifier="PRIVATE_FIELD"><rect fill="none" height="6" style="stroke:#C82930;stroke-width:1;" width="6" x="837.75" y="504.4353"/></g><text fill="#000000" font-family="sans-serif" font-size="14" lengthAdjust="spacing" textLength="71.5859" x="849.75" y="510.782">uuid: Uuid</text><g data-visibility-modifier="PRIVATE_FIELD"><rect fill="none" height="6" style="stroke:#C82930;stroke-width:1;" width="6" x="837.75" y="520.7322"/></g><text fill="#000000" font-family="sans-serif" font-size="14" lengthAdjust="spacing" textLength="105.5332" x="849.75" y="527.0789">approved: bool</text><line style="stroke:#181818;stroke-width:0.5;" x1="830.75" x2="995.1943" y1="534.3806" y2="534.3806"/><g data-visibility-modifier="PUBLIC_METHOD"><ellipse cx="840.75" cy="548.0291" fill="#84BE84" rx="3" ry="3" style="stroke:#038048;stroke-width:1;"/></g><text fill="#000000" font-family="sans-serif" font-size="14" lengthAdjust="spacing" textLength="106.873" x="849.75" y="551.3757">getUuid(): Uuid</text><g data-visibility-modifier="PUBLIC_METHOD"><ellipse cx="840.75" cy="564.3259" fill="#84BE84" rx="3" ry="3" style="stroke:#038048;stroke-width:1;"/></g><text fill="#000000" font-family="sans-serif" font-size="14" lengthAdjust="spacing" textLength="140.4443" x="849.75" y="567.6726">getApproved(): bool</text></g><!--class Identity--><g class="entity" data-qualified-name="Identity" data-source-line="39" id="ent0011"><rect fill="#F1F1F1" height="121.4844" rx="2.5" ry="2.5" style="stroke:#181818;stroke-width:0.5;" width="625.6416" x="76.15" y="145.5569"/><ellipse cx="357.8932" cy="161.5569" fill="#B4A7E5" rx="11" ry="11" style="stroke:#181818;stroke-width:1;"/><path d="M353.815,157.3225 L353.815,155.1663 L361.2057,155.1663 L361.2057,157.3225 L358.7369,157.3225 L358.7369,165.4006 L361.2057,165.4006 L361.2057,167.5569 L353.815,167.5569 L353.815,165.4006 L356.2838,165.4006 L356.2838,157.3225 L353.815,157.3225 Z " fill="#000000"/><text fill="#000000" font-family="sans-serif" font-size="14" font-style="italic" lengthAdjust="spacing" textLength="53.6553" x="378.3932" y="166.4036">Identity</text><line style="stroke:#181818;stroke-width:0.5;" x1="77.15" x2="700.7916" y1="177.5569" y2="177.5569"/><g data-visibility-modifier="PUBLIC_METHOD"><ellipse cx="87.15" cy="191.2053" fill="#84BE84" rx="3" ry="3" style="stroke:#038048;stroke-width:1;"/></g><text fill="#000000" font-family="sans-serif" font-size="14" lengthAdjust="spacing" textLength="332.3701" x="96.15" y="194.552">remoteAskForChat(author: String, chatId: Uuid)</text><g data-visibility-modifier="PUBLIC_METHOD"><ellipse cx="87.15" cy="207.5022" fill="#84BE84" rx="3" ry="3" style="stroke:#038048;stroke-width:1;"/></g><text fill="#000000" font-family="sans-serif" font-size="14" lengthAdjust="spacing" textLength="271.5918" x="96.15" y="210.8489">remoteApproveBackChat(chatId: Uuid)</text><g data-visibility-modifier="PUBLIC_METHOD"><ellipse cx="87.15" cy="223.7991" fill="#84BE84" rx="3" ry="3" style="stroke:#038048;stroke-width:1;"/></g><text fill="#000000" font-family="sans-serif" font-size="14" lengthAdjust="spacing" textLength="227.083" x="96.15" y="227.1457">remoteRefuseChat(chatId: Uuid)</text><g data-visibility-modifier="PUBLIC_METHOD"><ellipse cx="87.15" cy="240.0959" fill="#84BE84" rx="3" ry="3" style="stroke:#038048;stroke-width:1;"/></g><text fill="#000000" font-family="sans-serif" font-size="14" lengthAdjust="spacing" textLength="599.6416" x="96.15" y="243.4426">remoteSendMessageInChat(chatId: Uuid, text: String, senderTimestamp: Timestamp)</text><g data-visibility-modifier="PUBLIC_METHOD"><ellipse cx="87.15" cy="256.3928" fill="#84BE84" rx="3" ry="3" style="stroke:#038048;stroke-width:1;"/></g><text fill="#000000" font-family="sans-serif" font-size="14" lengthAdjust="spacing" textLength="217.1709" x="96.15" y="259.7395">remoteCloseChat(chatId: Uuid)</text></g><!--class Message--><g class="entity" data-qualified-name="Message" data-source-line="63" id="ent0020"><rect fill="#F1F1F1" height="105.1875" rx="2.5" ry="2.5" style="stroke:#181818;stroke-width:0.5;" width="240.3613" x="792.79" y="692.7169"/><ellipse cx="878.041" cy="708.7169" fill="#ADD1B2" rx="11" ry="11" style="stroke:#181818;stroke-width:1;"/><path d="M881.0097,714.3575 Q880.4316,714.6544 879.791,714.795 Q879.1504,714.9513 878.4472,714.9513 Q875.9472,714.9513 874.6191,713.3106 Q873.3066,711.6544 873.3066,708.5294 Q873.3066,705.4044 874.6191,703.7481 Q875.9472,702.0919 878.4472,702.0919 Q879.1504,702.0919 879.791,702.2481 Q880.4472,702.4044 881.0097,702.7013 L881.0097,705.42 Q880.3847,704.8419 879.791,704.5763 Q879.1972,704.295 878.5722,704.295 Q877.2285,704.295 876.541,705.3731 Q875.8535,706.4356 875.8535,708.5294 Q875.8535,710.6231 876.541,711.7013 Q877.2285,712.7638 878.5722,712.7638 Q879.1972,712.7638 879.791,712.4981 Q880.3847,712.2169 881.0097,711.6388 L881.0097,714.3575 Z " fill="#000000"/><text fill="#000000" font-family="sans-serif" font-size="14" lengthAdjust="spacing" textLength="61.3594" x="898.541" y="713.5636">Message</text><line style="stroke:#181818;stroke-width:0.5;" x1="793.79" x2="1032.1513" y1="724.7169" y2="724.7169"/><g data-visibility-modifier="PRIVATE_FIELD"><rect fill="none" height="6" style="stroke:#C82930;stroke-width:1;" width="6" x="800.79" y="735.3653"/></g><text fill="#000000" font-family="sans-serif" font-size="14" lengthAdjust="spacing" textLength="78.8252" x="812.79" y="741.712">text: String</text><g data-visibility-modifier="PRIVATE_FIELD"><rect fill="none" height="6" style="stroke:#C82930;stroke-width:1;" width="6" x="800.79" y="751.6622"/></g><text fill="#000000" font-family="sans-serif" font-size="14" lengthAdjust="spacing" textLength="214.3613" x="812.79" y="758.0089">senderTimestamp: Timestamp</text><g data-visibility-modifier="PRIVATE_FIELD"><rect fill="none" height="6" style="stroke:#C82930;stroke-width:1;" width="6" x="800.79" y="767.9591"/></g><text fill="#000000" font-family="sans-serif" font-size="14" lengthAdjust="spacing" textLength="98.0752" x="812.79" y="774.3057">index: Integer</text><g data-visibility-modifier="PRIVATE_FIELD"><rect fill="none" height="6" style="stroke:#C82930;stroke-width:1;" width="6" x="800.79" y="784.2559"/></g><text fill="#000000" font-family="sans-serif" font-size="14" lengthAdjust="spacing" textLength="97.084" x="812.79" y="790.6026">author: String</text></g><g class="entity" data-qualified-name="Registry" data-source-line="72" id="ent0022"><rect fill="#F1F1F1" height="20.2969" rx="2.5" ry="2.5" style="stroke:#181818;stroke-width:0.5;" width="71.9414" x="7" y="54.2769"/><text fill="#000000" font-family="sans-serif" font-size="14" lengthAdjust="spacing" textLength="57.9414" x="14" y="69.272">Registry</text></g><!--link HumanIdentity to App--><g class="link" data-entity-1="ent0004" data-entity-2="ent0003" data-link-type="association" data-source-line="8" id="lnk5"><path codeLine="8" d="M425.51,616.0769 C441.8,659.1769 459.28,705.4369 468.12,728.8369" fill="none" id="HumanIdentity-App" style="stroke:#181818;stroke-width:1;"/><polygon fill="#000000" points="444.8126,649.6061,445.2607,659.1061,450.7591,657.0283,444.8126,649.6061" style="stroke:#000000;stroke-width:1;"/><text fill="#000000" font-family="sans-serif" font-size="13" lengthAdjust="spacing" textLength="41.5518" x="455.58" y="658.7838">create</text><text fill="#000000" font-family="sans-serif" font-size="13" lengthAdjust="spacing" textLength="8.271" x="419.9097" y="635.8738">1</text><text fill="#000000" font-family="sans-serif" font-size="13" lengthAdjust="spacing" textLength="24.8066" x="438.5572" y="718.2845">0..1</text></g><!--link App to View--><g class="link" data-entity-1="ent0003" data-entity-2="ent0006" data-link-type="association" data-source-line="9" id="lnk7"><path codeLine="9" d="M462.03,761.6769 C442.79,786.4369 404.05,836.2969 374.2,874.7269" fill="none" id="App-View" style="stroke:#181818;stroke-width:1;"/><polygon fill="#000000" points="410.1024,840.4217,417.9725,835.082,413.3309,831.4759,410.1024,840.4217" style="stroke:#000000;stroke-width:1;"/><text fill="#000000" font-family="sans-serif" font-size="13" lengthAdjust="spacing" textLength="30.2783" x="422.17" y="840.9738">start</text><text fill="#000000" font-family="sans-serif" font-size="13" lengthAdjust="spacing" textLength="8.271" x="448.9906" y="781.3735">1</text><text fill="#000000" font-family="sans-serif" font-size="13" lengthAdjust="spacing" textLength="8.271" x="371.087" y="863.7034">1</text></g><!--reverse link View to ShellView--><g class="link" data-entity-1="ent0006" data-entity-2="ent0008" data-link-type="extension" data-source-line="19" id="lnk9"><path d="M333.97,998.4469 C333.97,1016.6369 333.97,1019.8369 333.97,1041.0369" fill="none" id="View-backto-ShellView" style="stroke:#181818;stroke-width:1;stroke-dasharray:7,7;"/><polygon fill="none" points="333.97,980.4469,327.97,998.4469,339.97,998.4469,333.97,980.4469" style="stroke:#181818;stroke-width:1;"/></g><!--reverse link Remote to Identity--><g class="link" data-entity-1="ent0002" data-entity-2="ent0011" data-link-type="extension" data-source-line="40" id="lnk12"><path d="M388.97,102.8769 C388.97,118.5669 388.97,123.5069 388.97,145.1769" fill="none" id="Remote-backto-Identity" style="stroke:#181818;stroke-width:1;"/><polygon fill="none" points="388.97,84.8769,382.97,102.8769,394.97,102.8769,388.97,84.8769" style="stroke:#181818;stroke-width:1;"/></g><!--reverse link Identity to HumanIdentity--><g class="link" data-entity-1="ent0011" data-entity-2="ent0004" data-link-type="extension" data-source-line="48" id="lnk13"><path d="M388.97,285.4569 C388.97,328.9569 388.97,370.6469 388.97,420.7869" fill="none" id="Identity-backto-HumanIdentity" style="stroke:#181818;stroke-width:1;stroke-dasharray:7,7;"/><polygon fill="none" points="388.97,267.4569,382.97,285.4569,394.97,285.4569,388.97,267.4569" style="stroke:#181818;stroke-width:1;"/></g><!--link Identity to HumanIdentity--><g class="link" data-entity-1="ent0011" data-entity-2="ent0004" data-link-type="association" data-source-line="62" id="lnk19"><path codeLine="62" d="M405.78,267.2769 C407.93,277.1469 409.8,287.3269 410.97,297.0469 C415.86,337.4969 412.93,382.2269 407.81,420.7569" fill="none" id="Identity-HumanIdentity" style="stroke:#181818;stroke-width:1;"/><text fill="#000000" font-family="sans-serif" font-size="13" lengthAdjust="spacing" textLength="159.9927" x="414.47" y="341.1138">keep known participants</text><polygon fill="#000000" points="423.0093,346.7465,420.1903,355.8297,426.0676,355.752,423.0093,346.7465" style="stroke:#000000;stroke-width:1;"/><text fill="#000000" font-family="sans-serif" font-size="13" lengthAdjust="spacing" textLength="143.9141" x="431.0755" y="356.2466">in cache by username</text><text fill="#000000" font-family="sans-serif" font-size="13" lengthAdjust="spacing" textLength="6.5" x="401.4056" y="287.2692">*</text><text fill="#000000" font-family="sans-serif" font-size="13" lengthAdjust="spacing" textLength="8.271" x="400.9099" y="410.1085">1</text></g><!--link HumanIdentity to Chat--><g class="link" data-entity-1="ent0004" data-entity-2="ent0010" data-link-type="association" data-source-line="59" id="lnk14"><path codeLine="59" d="M543.35,518.3769 C636.94,518.3769 752.7,518.3769 829.47,518.3769" fill="none" id="HumanIdentity-Chat" style="stroke:#181818;stroke-width:1;"/><polygon fill="#000000" points="662.3,506.9433,653.2549,504.0044,653.2549,509.8822,662.3,506.9433" style="stroke:#000000;stroke-width:1;"/><text fill="#000000" font-family="sans-serif" font-size="13" lengthAdjust="spacing" textLength="53.0854" x="666.3" y="511.4438">manage</text><text fill="#000000" font-family="sans-serif" font-size="13" lengthAdjust="spacing" textLength="8.271" x="551.0282" y="515.0834">1</text><text fill="#000000" font-family="sans-serif" font-size="13" lengthAdjust="spacing" textLength="6.5" x="815.2491" y="514.7349">*</text></g><!--link HumanIdentity to HumanIdentity--><g class="link" data-entity-1="ent0004" data-entity-2="ent0004" data-link-type="association" data-source-line="60" id="lnk16"><path codeLine="60" d="M543.13,497.1169 C563.98,500.6769 577.86,507.7669 577.86,518.3769 C577.86,528.9869 563.98,536.0769 543.13,539.6469" fill="none" id="HumanIdentity-HumanIdentity" style="stroke:#181818;stroke-width:1;"/><polygon fill="#000000" points="582.0185,513.5146,580.6438,522.9253,586.4378,521.936,582.0185,513.5146" style="stroke:#000000;stroke-width:1;"/><text fill="#000000" font-family="sans-serif" font-size="13" lengthAdjust="spacing" textLength="141.7749" x="596.86" y="522.9438">remotely discuss with</text><text fill="#000000" font-family="sans-serif" font-size="13" lengthAdjust="spacing" textLength="6.5" x="550.7546" y="492.7936">*</text><text fill="#000000" font-family="sans-serif" font-size="13" lengthAdjust="spacing" textLength="6.5" x="550.7546" y="537.3837">*</text></g><!--link HumanIdentity to View--><g class="link" data-entity-1="ent0004" data-entity-2="ent0006" data-link-type="association" data-source-line="61" id="lnk17"><path codeLine="61" d="M345.06,616.1369 C335.93,640.6269 327.66,667.2269 322.97,692.7169 C314.51,738.6969 320.98,751.1969 322.97,797.9069 C324.05,823.1969 326.32,851.2169 328.52,874.6269" fill="none" id="HumanIdentity-View" style="stroke:#181818;stroke-width:1;"/><polygon fill="#000000" points="327.6507,750.3631,331.1612,741.5241,325.2954,741.1488,327.6507,750.3631" style="stroke:#000000;stroke-width:1;"/><text fill="#000000" font-family="sans-serif" font-size="13" lengthAdjust="spacing" textLength="89.6035" x="336.97" y="749.8738">send event to</text><text fill="#000000" font-family="sans-serif" font-size="13" lengthAdjust="spacing" textLength="8.271" x="333.5517" y="635.9382">1</text><text fill="#000000" font-family="sans-serif" font-size="13" lengthAdjust="spacing" textLength="24.8066" x="302.3362" y="863.9669">0..1</text></g><!--link Chat to Message--><g class="link" data-entity-1="ent0010" data-entity-2="ent0020" data-link-type="association" data-source-line="63" id="lnk21"><path codeLine="63" d="M912.97,575.2669 C912.97,611.1769 912.97,657.4969 912.97,692.5669" fill="none" id="Chat-Message" style="stroke:#181818;stroke-width:1;"/><polygon fill="#000000" points="917.97,659.2833,920.9089,650.2382,915.0311,650.2382,917.97,659.2833" style="stroke:#000000;stroke-width:1;"/><text fill="#000000" font-family="sans-serif" font-size="13" lengthAdjust="spacing" textLength="48.2549" x="926.97" y="658.7838">contain</text><text fill="#000000" font-family="sans-serif" font-size="13" lengthAdjust="spacing" textLength="8.271" x="904.4987" y="595.1889">1</text><text fill="#000000" font-family="sans-serif" font-size="13" lengthAdjust="spacing" textLength="6.5" x="906.6004" y="681.5474">*</text></g><!--link Registry to Remote--><g class="link" data-entity-1="ent0022" data-entity-2="ent0002" data-link-type="association" data-source-line="74" id="lnk23"><path codeLine="74" d="M79.34,64.4269 C142.67,64.4269 273.07,64.4269 342.72,64.4269" fill="none" id="Registry-Remote" style="stroke:#181818;stroke-width:1;"/><polygon fill="#000000" points="106.06,52.9933,97.0149,50.0544,97.0149,55.9322,106.06,52.9933" style="stroke:#000000;stroke-width:1;"/><text fill="#000000" font-family="sans-serif" font-size="13" lengthAdjust="spacing" textLength="215.814" x="110.06" y="57.4938">take notes by String of published</text><text fill="#000000" font-family="sans-serif" font-size="13" lengthAdjust="spacing" textLength="24.8066" x="86.8083" y="77.6526">0..1</text><text fill="#000000" font-family="sans-serif" font-size="13" lengthAdjust="spacing" textLength="6.5" x="328.6046" y="60.2621">*</text></g><?plantuml-src VLN9Rjim4BthAmOwAOk3vYe41jAqHNne4TXT3cqFD3Ms68kaIb9sZ2B_tY4foP9TnnTBynvdXcyMEU4gXFI3O6l3f4Ge47Z5h4MejSAzq-4lJP9I48IoTdkGA9TeR988vT2i64UOezGEuUxkcMtPZP5YEasIu0ZkwpfvR2HJimAL4tG-lKqda_JTpSrjwj4Sk47cJoVqrg84VHUuoy4wPXnCXy4y07yJe5z0itBeFeTHj8l8A_NkeMHkZdyQj2vR6IrpM3WZr7hCUAYqnJVmEQwQ4y9hTzb5YLKLyXEohb1I3dQOxmHuOmnPlQiSlZMYQEtFMYWilg3RQRF9OQbrDK0oYcaKapXEQXBIUiIgpZf3r7An4uwNFaXca8jQKCZZezpVz6sA2PTzcsDH5P_HMhR6pE7B2Lu9wvweIeBECvAZptJ7XFiXN1aqUo8zQzTZDJCKLqigP94DzFMfT58s9DvGGbRNHc-n68XtjKRd2Td5WEYDzotN0u7zEcomlbFfEdGxsxLt37nbmjkztNpI9cZ36bTgqrty6ZWPPsrk5wCpCUnxnZVXu5dY_23yMSxY8FnCdL2lOLYCwr0cD5-5fFPdaeQkVnmvVUYROXothy1ub0TTtjkwyXnrxA4WBU2r7qB7ZNBA-_cxT-9Jj1xn3vqzzlwPTetKI6nRvPo-jbbQRiGI_UIsHVwu9MVPDkmaR-weW-u_BtzBvkV5FTsGwMKASKiGGkvf1nwHBjD95MYFu_qNArdjeH2MDrGpMWRbwN4V8oxXTjFILG3zDS7f_zARIGXtYBH1h66Zz4xvYUqh1x-KKC0PBn6MU-WwWHPycD-uuSbHAnnz0BHoZ8xq7uqMwNffg6Mqd6_dY0k2NtAOqKolqRGBOZIcNdMzV4RkQBpNr7jcdoJT4qHbGfPn-7DmR8EWwD7wIqKde5TGDqjgtH8BcFu3?></g></svg>