<svg xmlns="http://www.w3.org/2000/svg" width="1008" height="425.28" viewBox="0 0 1008 425.28"><defs><clipPath id="a" clipPathUnits="userSpaceOnUse"><path d="M0 0h1008v425.281H0Z" clip-rule="evenodd"/></clipPath></defs><path d="M0 0h1008v425H0Z" clip-path="url(#a)" style="fill:#fff;fill-opacity:1;fill-rule:nonzero;stroke:none"/><path d="M930 130h600v370H930Z" style="fill:#fff;fill-opacity:1;fill-rule:nonzero;stroke:#000;stroke-width:1;stroke-linecap:butt;stroke-linejoin:miter;stroke-miterlimit:10;stroke-dasharray:none;stroke-opacity:1" transform="translate(-731.208 -106.474)scale(.91065)"/><text xml:space="preserve" transform="translate(327.398 27.847)scale(.91065)"><tspan x="0" y="0" style="font-variant:normal;font-weight:400;font-size:12px;font-family:&quot;Liberation Sans&quot;;writing-mode:lr-tb;fill:#000;fill-opacity:1;fill-rule:nonzero;stroke:none">«subsystem» </tspan></text><text xml:space="preserve" transform="translate(394.83 27.847)scale(.91065)"><tspan x="0" y="0" style="font-variant:normal;font-weight:700;font-size:12px;font-family:&quot;Liberation Sans&quot;;writing-mode:lr-tb;fill:#000;fill-opacity:1;fill-rule:nonzero;stroke:none">ClientChat</tspan></text><path d="M1507 137h16v20h-16v-4h-4v-4h4v-4h-4v-4h4z" style="fill:#fff;fill-opacity:1;fill-rule:nonzero;stroke:#000;stroke-width:1;stroke-linecap:butt;stroke-linejoin:miter;stroke-miterlimit:10;stroke-dasharray:none;stroke-opacity:1" transform="translate(-731.208 -106.474)scale(.91065)"/><path d="M1507 141h4v4h-4m0 4h4v4h-4" style="fill:none;stroke:#000;stroke-width:1;stroke-linecap:butt;stroke-linejoin:miter;stroke-miterlimit:10;stroke-dasharray:none;stroke-opacity:1" transform="translate(-731.208 -106.474)scale(.91065)"/><path d="M1280 190h160v70h-160z" style="fill:#fff;fill-opacity:1;fill-rule:nonzero;stroke:#000;stroke-width:1;stroke-linecap:butt;stroke-linejoin:miter;stroke-miterlimit:10;stroke-dasharray:none;stroke-opacity:1" transform="translate(-731.208 -106.474)scale(.91065)"/><text xml:space="preserve" transform="translate(485.568 101.61)scale(.91065)"><tspan x="0" y="0" style="font-variant:normal;font-weight:700;font-size:12px;font-family:&quot;Liberation Sans&quot;;writing-mode:lr-tb;fill:#000;fill-opacity:1;fill-rule:nonzero;stroke:none">:Identity</tspan></text><path d="M1417 197h16v20h-16v-4h-4v-4h4v-4h-4v-4h4z" style="fill:#fff;fill-opacity:1;fill-rule:nonzero;stroke:#000;stroke-width:1;stroke-linecap:butt;stroke-linejoin:miter;stroke-miterlimit:10;stroke-dasharray:none;stroke-opacity:1" transform="translate(-731.208 -106.474)scale(.91065)"/><path d="M1417 201h4v4h-4m0 4h4v4h-4" style="fill:none;stroke:#000;stroke-width:1;stroke-linecap:butt;stroke-linejoin:miter;stroke-miterlimit:10;stroke-dasharray:none;stroke-opacity:1" transform="translate(-731.208 -106.474)scale(.91065)"/><path d="M1281 389h160v70h-160z" style="fill:#fff;fill-opacity:1;fill-rule:nonzero;stroke:#000;stroke-width:1;stroke-linecap:butt;stroke-linejoin:miter;stroke-miterlimit:10;stroke-dasharray:none;stroke-opacity:1" transform="translate(-731.208 -106.474)scale(.91065)"/><text xml:space="preserve" transform="translate(467.966 282.83)scale(.91065)"><tspan x="0" y="0" style="font-variant:normal;font-weight:700;font-size:12px;font-family:&quot;Liberation Sans&quot;;writing-mode:lr-tb;fill:#000;fill-opacity:1;fill-rule:nonzero;stroke:none">:HumanIdentity</tspan></text><path d="M1418 396h16v20h-16v-4h-4v-4h4v-4h-4v-4h4z" style="fill:#fff;fill-opacity:1;fill-rule:nonzero;stroke:#000;stroke-width:1;stroke-linecap:butt;stroke-linejoin:miter;stroke-miterlimit:10;stroke-dasharray:none;stroke-opacity:1" transform="translate(-731.208 -106.474)scale(.91065)"/><path d="M1418 400h4v4h-4m0 4h4v4h-4" style="fill:none;stroke:#000;stroke-width:1;stroke-linecap:butt;stroke-linejoin:miter;stroke-miterlimit:10;stroke-dasharray:none;stroke-opacity:1" transform="translate(-731.208 -106.474)scale(.91065)"/><path d="M880 225a15 15 0 0 1-1.142 5.74 15 15 0 0 1-3.251 4.867 15 15 0 0 1-4.867 3.251A15 15 0 0 1 865 240a15 15 0 0 1-5.74-1.142 15 15 0 0 1-4.867-3.251 15 15 0 0 1-3.251-4.867A15 15 0 0 1 850 225a15 15 0 0 1 1.142-5.74 15 15 0 0 1 3.251-4.867 15 15 0 0 1 4.867-3.251A15 15 0 0 1 865 210a15 15 0 0 1 5.74 1.142 15 15 0 0 1 4.867 3.251 15 15 0 0 1 3.251 4.867A15 15 0 0 1 880 225z" style="fill:#fff;fill-opacity:1;fill-rule:nonzero;stroke:#000;stroke-width:1;stroke-linecap:butt;stroke-linejoin:miter;stroke-miterlimit:10;stroke-dasharray:none;stroke-opacity:1" transform="translate(-731.208 -106.474)scale(.91065)"/><text xml:space="preserve" transform="translate(26.442 128.019)scale(.91065)"><tspan x="0" y="0" style="font-variant:normal;font-weight:400;font-size:12px;font-family:&quot;Liberation Sans&quot;;writing-mode:lr-tb;fill:#000;fill-opacity:1;fill-rule:nonzero;stroke:none">JoinNetwork</tspan></text><path d="M881 424a15 15 0 0 1-1.142 5.74 15 15 0 0 1-3.251 4.867 15 15 0 0 1-4.867 3.251A15 15 0 0 1 866 439a15 15 0 0 1-5.74-1.142 15 15 0 0 1-4.867-3.251 15 15 0 0 1-3.251-4.867A15 15 0 0 1 851 424a15 15 0 0 1 1.142-5.74 15 15 0 0 1 3.251-4.867 15 15 0 0 1 4.867-3.251A15 15 0 0 1 866 409a15 15 0 0 1 5.74 1.142 15 15 0 0 1 4.867 3.251 15 15 0 0 1 3.251 4.867A15 15 0 0 1 881 424z" style="fill:#fff;fill-opacity:1;fill-rule:nonzero;stroke:#000;stroke-width:1;stroke-linecap:butt;stroke-linejoin:miter;stroke-miterlimit:10;stroke-dasharray:none;stroke-opacity:1" transform="translate(-731.208 -106.474)scale(.91065)"/><text xml:space="preserve" transform="translate(27.964 309.24)scale(.91065)"><tspan x="0" y="0" style="font-variant:normal;font-weight:400;font-size:12px;font-family:&quot;Liberation Sans&quot;;writing-mode:lr-tb;fill:#000;fill-opacity:1;fill-rule:nonzero;stroke:none">ChatActions</tspan></text><path d="M921 414h20v20h-20zM920 215h20v20h-20z" style="fill:#fff;fill-opacity:1;fill-rule:nonzero;stroke:#000;stroke-width:1;stroke-linecap:butt;stroke-linejoin:miter;stroke-miterlimit:10;stroke-dasharray:none;stroke-opacity:1" transform="translate(-731.208 -106.474)scale(.91065)"/><path d="M880 225h40M881 424h40M1290 424h-9M940 225h80v164" style="fill:none;stroke:#000;stroke-width:1;stroke-linecap:butt;stroke-linejoin:miter;stroke-miterlimit:10;stroke-dasharray:none;stroke-opacity:1" transform="translate(-731.208 -106.474)scale(.91065)"/><path d="M1720 177.5h160v95h-160z" style="fill:#fff;fill-opacity:1;fill-rule:nonzero;stroke:#000;stroke-width:1;stroke-linecap:butt;stroke-linejoin:miter;stroke-miterlimit:10;stroke-dasharray:none;stroke-opacity:1" transform="translate(-731.208 -106.474)scale(.91065)"/><text xml:space="preserve" transform="translate(873.79 95.235)scale(.91065)"><tspan x="0" y="0" style="font-variant:normal;font-weight:400;font-size:12px;font-family:&quot;Liberation Sans&quot;;writing-mode:lr-tb;fill:#000;fill-opacity:1;fill-rule:nonzero;stroke:none">«subsystem» </tspan></text><text xml:space="preserve" transform="translate(871.073 108.895)scale(.91065)"><tspan x="0" y="0" style="font-variant:normal;font-weight:700;font-size:12px;font-family:&quot;Liberation Sans&quot;;writing-mode:lr-tb;fill:#000;fill-opacity:1;fill-rule:nonzero;stroke:none">RMI Registery</tspan></text><path d="M1857 184.5h16v20h-16v-4h-4v-4h4v-4h-4v-4h4z" style="fill:#fff;fill-opacity:1;fill-rule:nonzero;stroke:#000;stroke-width:1;stroke-linecap:butt;stroke-linejoin:miter;stroke-miterlimit:10;stroke-dasharray:none;stroke-opacity:1" transform="translate(-731.208 -106.474)scale(.91065)"/><path d="M1857 188.5h4v4h-4m0 4h4v4h-4" style="fill:none;stroke:#000;stroke-width:1;stroke-linecap:butt;stroke-linejoin:miter;stroke-miterlimit:10;stroke-dasharray:none;stroke-opacity:1" transform="translate(-731.208 -106.474)scale(.91065)"/><path d="M1520 215h20v20h-20zM1520 414h20v20h-20z" style="fill:#fff;fill-opacity:1;fill-rule:nonzero;stroke:#000;stroke-width:1;stroke-linecap:butt;stroke-linejoin:miter;stroke-miterlimit:10;stroke-dasharray:none;stroke-opacity:1" transform="translate(-731.208 -106.474)scale(.91065)"/><path d="M1520 225h-80M1520 424h-79M1540 424h110v146h-289v-60" style="fill:none;stroke:#000;stroke-width:1;stroke-linecap:butt;stroke-linejoin:miter;stroke-miterlimit:10;stroke-dasharray:none;stroke-opacity:1" transform="translate(-731.208 -106.474)scale(.91065)"/><path d="M1351 490h20v20h-20zM1604 424a12 12 0 0 1-2.023 6.667 12 12 0 0 1-5.385 4.42A12 12 0 0 1 1592 436a12 12 0 0 1-4.592-.913 12 12 0 0 1-3.893-2.602 12 12 0 0 1-2.602-3.893A12 12 0 0 1 1580 424a12 12 0 0 1 3.514-8.485 12 12 0 0 1 3.894-2.602A12 12 0 0 1 1592 412a12 12 0 0 1 4.592.913 12 12 0 0 1 3.893 2.602 12 12 0 0 1 2.601 3.893A12 12 0 0 1 1604 424z" style="fill:#fff;fill-opacity:1;fill-rule:nonzero;stroke:#000;stroke-width:1;stroke-linecap:butt;stroke-linejoin:miter;stroke-miterlimit:10;stroke-dasharray:none;stroke-opacity:1" transform="translate(-731.208 -106.474)scale(.91065)"/><path d="M1595 409q15 0 15 15t-15 15" style="fill:none;stroke:#000;stroke-width:1;stroke-linecap:butt;stroke-linejoin:miter;stroke-miterlimit:10;stroke-dasharray:none;stroke-opacity:1" transform="translate(-731.208 -106.474)scale(.91065)"/><text xml:space="preserve" transform="translate(694.563 310.15)scale(.91065)"><tspan x="0" y="0" style="font-variant:normal;font-weight:400;font-size:12px;font-family:&quot;Liberation Sans&quot;;writing-mode:lr-tb;fill:#000;fill-opacity:1;fill-rule:nonzero;stroke:none">ChatAction</tspan></text><path d="M1361 459v31" style="fill:none;stroke:#000;stroke-width:1;stroke-linecap:butt;stroke-linejoin:miter;stroke-miterlimit:10;stroke-dasharray:none;stroke-opacity:1" transform="translate(-731.208 -106.474)scale(.91065)"/><path d="M1670 225a15 15 0 0 1-1.142 5.74 15 15 0 0 1-3.251 4.867 15 15 0 0 1-4.867 3.251A15 15 0 0 1 1655 240a15 15 0 0 1-5.74-1.142 15 15 0 0 1-4.867-3.251 15 15 0 0 1-3.251-4.867A15 15 0 0 1 1640 225a15 15 0 0 1 1.142-5.74 15 15 0 0 1 3.251-4.867 15 15 0 0 1 4.867-3.251A15 15 0 0 1 1655 210a15 15 0 0 1 5.74 1.142 15 15 0 0 1 4.867 3.251 15 15 0 0 1 3.25 4.867A15 15 0 0 1 1670 225z" style="fill:#fff;fill-opacity:1;fill-rule:nonzero;stroke:#000;stroke-width:1;stroke-linecap:butt;stroke-linejoin:miter;stroke-miterlimit:10;stroke-dasharray:none;stroke-opacity:1" transform="translate(-731.208 -106.474)scale(.91065)"/><text xml:space="preserve" transform="translate(744.336 128.019)scale(.91065)"><tspan x="0" y="0" style="font-variant:normal;font-weight:400;font-size:12px;font-family:&quot;Liberation Sans&quot;;writing-mode:lr-tb;fill:#000;fill-opacity:1;fill-rule:nonzero;stroke:none">Get / Set List</tspan></text><path d="M1570 210q20 0 20 15t-20 15" style="fill:none;stroke:#000;stroke-width:1;stroke-linecap:butt;stroke-linejoin:miter;stroke-miterlimit:10;stroke-dasharray:none;stroke-opacity:1" transform="translate(2146.458 303.32)scale(-.91065)"/><path d="M1570 225h-30" style="fill:none;stroke:#000;stroke-width:1;stroke-linecap:butt;stroke-linejoin:miter;stroke-miterlimit:10;stroke-dasharray:none;stroke-opacity:1" transform="translate(-731.208 -106.474)scale(.91065)"/><path d="M1710 215h20v20h-20z" style="fill:#fff;fill-opacity:1;fill-rule:nonzero;stroke:#000;stroke-width:1;stroke-linecap:butt;stroke-linejoin:miter;stroke-miterlimit:10;stroke-dasharray:none;stroke-opacity:1" transform="translate(-731.208 -106.474)scale(.91065)"/><path d="M1590 224.5h7.862v1H1590Zm15.822 0h8.008v1h-8.008zm15.992 0h8.027v1h-8.027z" style="fill:#000;fill-opacity:1;fill-rule:nonzero;stroke:none" transform="translate(-731.208 -106.474)scale(.91065)"/><path d="m1629.88 229.5 9-4.5-9-4.5M1710 225h-40" style="fill:none;stroke:#000;stroke-width:1;stroke-linecap:butt;stroke-linejoin:miter;stroke-miterlimit:10;stroke-dasharray:none;stroke-opacity:1" transform="translate(-731.208 -106.474)scale(.91065)"/><path d="M1369 315a12 12 0 0 1-2.023 6.667 12 12 0 0 1-3.31 3.31 12 12 0 0 1-4.326 1.792 12 12 0 0 1-4.682 0 12 12 0 0 1-4.326-1.791 12 12 0 0 1-3.31-3.311 12 12 0 0 1-1.792-4.326 12 12 0 0 1 0-4.682 12 12 0 0 1 1.791-4.326 12 12 0 0 1 3.311-3.31 12 12 0 0 1 4.326-1.792 12 12 0 0 1 4.682 0 12 12 0 0 1 4.326 1.791 12 12 0 0 1 3.31 3.311 12 12 0 0 1 1.792 4.326q.23 1.16.231 2.341z" style="fill:#fff;fill-opacity:1;fill-rule:nonzero;stroke:#000;stroke-width:1;stroke-linecap:butt;stroke-linejoin:miter;stroke-miterlimit:10;stroke-dasharray:none;stroke-opacity:1" transform="rotate(90 926.122 -131.985)scale(.91065)"/><path d="M1360 300q15 0 15 15t-15 15" style="fill:none;stroke:#000;stroke-width:1;stroke-linecap:butt;stroke-linejoin:miter;stroke-miterlimit:10;stroke-dasharray:none;stroke-opacity:1" transform="rotate(90 926.122 -131.985)scale(.91065)"/><text xml:space="preserve" transform="translate(444.887 183.569)scale(.91065)"><tspan x="0" y="0" style="font-variant:normal;font-weight:400;font-size:12px;font-family:&quot;Liberation Sans&quot;;writing-mode:lr-tb;fill:#000;fill-opacity:1;fill-rule:nonzero;stroke:none">UserList</tspan></text><path d="M1360 300v-40M1361 389l-1-59" style="fill:none;stroke:#000;stroke-width:1;stroke-linecap:butt;stroke-linejoin:miter;stroke-miterlimit:10;stroke-dasharray:none;stroke-opacity:1" transform="translate(-731.208 -106.474)scale(.91065)"/><path d="M1351 380h20v20h-20zM1350 250h20v20h-20z" style="fill:#fff;fill-opacity:1;fill-rule:nonzero;stroke:#000;stroke-width:1;stroke-linecap:butt;stroke-linejoin:miter;stroke-miterlimit:10;stroke-dasharray:none;stroke-opacity:1" transform="translate(-731.208 -106.474)scale(.91065)"/><path d="M941 424h329" style="fill:none;stroke:#000;stroke-width:1;stroke-linecap:butt;stroke-linejoin:miter;stroke-miterlimit:10;stroke-dasharray:none;stroke-opacity:1" transform="translate(-731.208 -106.474)scale(.91065)"/><path d="M1270 414h20v20h-20zM1213 424a12 12 0 0 1-2.023 6.667 11.98 11.98 0 0 1-5.385 4.42A12 12 0 0 1 1201 436a12 12 0 0 1-4.592-.913 12 12 0 0 1-3.893-2.602 11.97 11.97 0 0 1-3.284-6.144 12 12 0 0 1 0-4.682 12 12 0 0 1 1.791-4.326 12 12 0 0 1 3.311-3.31 12 12 0 0 1 4.326-1.792 12 12 0 0 1 4.682 0 12 12 0 0 1 4.326 1.791 12 12 0 0 1 3.31 3.311 12 12 0 0 1 1.792 4.326q.23 1.16.231 2.341z" style="fill:#fff;fill-opacity:1;fill-rule:nonzero;stroke:#000;stroke-width:1;stroke-linecap:butt;stroke-linejoin:miter;stroke-miterlimit:10;stroke-dasharray:none;stroke-opacity:1" transform="translate(-731.208 -106.474)scale(.91065)"/><path d="M1204 409q15 0 15 15t-15 15" style="fill:none;stroke:#000;stroke-width:1;stroke-linecap:butt;stroke-linejoin:miter;stroke-miterlimit:10;stroke-dasharray:none;stroke-opacity:1" transform="translate(-731.208 -106.474)scale(.91065)"/><text xml:space="preserve" transform="translate(338.497 310.15)scale(.91065)"><tspan x="0" y="0" style="font-variant:normal;font-weight:400;font-size:12px;font-family:&quot;Liberation Sans&quot;;writing-mode:lr-tb;fill:#000;fill-opacity:1;fill-rule:nonzero;stroke:none">ChatAction</tspan></text><path d="M980 389h160v70H980Z" style="fill:#fff;fill-opacity:1;fill-rule:nonzero;stroke:#000;stroke-width:1;stroke-linecap:butt;stroke-linejoin:miter;stroke-miterlimit:10;stroke-dasharray:none;stroke-opacity:1" transform="translate(-731.208 -106.474)scale(.91065)"/><text xml:space="preserve" transform="translate(219.458 282.83)scale(.91065)"><tspan x="0" y="0" dx="0 0 -0.2167969" style="font-variant:normal;font-weight:700;font-size:12px;font-family:&quot;Liberation Sans&quot;;writing-mode:lr-tb;fill:#000;fill-opacity:1;fill-rule:nonzero;stroke:none">:View</tspan></text><path d="M1117 396h16v20h-16v-4h-4v-4h4v-4h-4v-4h4z" style="fill:#fff;fill-opacity:1;fill-rule:nonzero;stroke:#000;stroke-width:1;stroke-linecap:butt;stroke-linejoin:miter;stroke-miterlimit:10;stroke-dasharray:none;stroke-opacity:1" transform="translate(-731.208 -106.474)scale(.91065)"/><path d="M1117 400h4v4h-4m0 4h4v4h-4" style="fill:none;stroke:#000;stroke-width:1;stroke-linecap:butt;stroke-linejoin:miter;stroke-miterlimit:10;stroke-dasharray:none;stroke-opacity:1" transform="translate(-731.208 -106.474)scale(.91065)"/><path d="M1130 414h20v20h-20zM1070 380h20v20h-20z" style="fill:#fff;fill-opacity:1;fill-rule:nonzero;stroke:#000;stroke-width:1;stroke-linecap:butt;stroke-linejoin:miter;stroke-miterlimit:10;stroke-dasharray:none;stroke-opacity:1" transform="translate(-731.208 -106.474)scale(.91065)"/><path d="M1080 379V224h200" style="fill:none;stroke:#000;stroke-width:1;stroke-linecap:butt;stroke-linejoin:miter;stroke-miterlimit:10;stroke-dasharray:none;stroke-opacity:1" transform="translate(-731.208 -106.474)scale(.91065)"/><path d="M1174 225a12 12 0 0 1-2.023 6.667 12 12 0 0 1-3.31 3.31 12 12 0 0 1-4.326 1.792 12 12 0 0 1-4.682 0 12 12 0 0 1-4.326-1.791 12 12 0 0 1-3.31-3.311 12 12 0 0 1-1.793-4.326 12 12 0 0 1 0-4.682 12 12 0 0 1 1.792-4.326 12 12 0 0 1 3.311-3.31 12 12 0 0 1 4.326-1.792 12 12 0 0 1 4.682 0 12 12 0 0 1 4.326 1.791 12 12 0 0 1 3.31 3.311 12 12 0 0 1 1.792 4.326q.231 1.16.231 2.341z" style="fill:#fff;fill-opacity:1;fill-rule:nonzero;stroke:#000;stroke-width:1;stroke-linecap:butt;stroke-linejoin:miter;stroke-miterlimit:10;stroke-dasharray:none;stroke-opacity:1" transform="translate(-731.208 -106.474)scale(.91065)"/><path d="M1165 210q15 0 15 15t-15 15" style="fill:none;stroke:#000;stroke-width:1;stroke-linecap:butt;stroke-linejoin:miter;stroke-miterlimit:10;stroke-dasharray:none;stroke-opacity:1" transform="translate(-731.208 -106.474)scale(.91065)"/><text xml:space="preserve" transform="translate(299.638 128.93)scale(.91065)"><tspan x="0" y="0" style="font-variant:normal;font-weight:400;font-size:12px;font-family:&quot;Liberation Sans&quot;;writing-mode:lr-tb;fill:#000;fill-opacity:1;fill-rule:nonzero;stroke:none">JoinNetwork</tspan></text><path d="M1270 213h20v20h-20z" style="fill:#fff;fill-opacity:1;fill-rule:nonzero;stroke:#000;stroke-width:1;stroke-linecap:butt;stroke-linejoin:miter;stroke-miterlimit:10;stroke-dasharray:none;stroke-opacity:1" transform="translate(-731.208 -106.474)scale(.91065)"/></svg>