<svg xmlns="http://www.w3.org/2000/svg" width="722.56" height="340.16" viewBox="0 0 722.56 340.16"><defs><clipPath id="a" clipPathUnits="userSpaceOnUse"><path d="M0 0h722.875v339.844H0Z" clip-rule="evenodd"/></clipPath></defs><path d="M0 0h723v340H0Z" clip-path="url(#a)" style="fill:#fff;fill-opacity:1;fill-rule:nonzero;stroke:none"/><path d="M39 19h185v15l-10 15H39Z" style="fill:#fff;fill-opacity:1;fill-rule:nonzero;stroke:#000;stroke-width:1;stroke-linecap:butt;stroke-linejoin:miter;stroke-miterlimit:10;stroke-dasharray:none;stroke-opacity:1" transform="translate(-7.877 -4.052)scale(.89175)"/><path d="M224 19h565v351H39V49" style="fill:none;stroke:#000;stroke-width:1;stroke-linecap:butt;stroke-linejoin:miter;stroke-miterlimit:10;stroke-dasharray:none;stroke-opacity:1" transform="translate(-7.877 -4.052)scale(.89175)"/><text xml:space="preserve" transform="translate(43.789 29.39)scale(.89175)"><tspan x="0" y="0" dx="0 0 0 0 0 0 0 0 0 0 0 0 0 0 0 0 0 -1.3300772" style="font-variant:normal;font-weight:400;font-size:12px;font-family:&quot;Liberation Sans&quot;;writing-mode:lr-tb;fill:#000;fill-opacity:1;fill-rule:nonzero;stroke:none">deployment PoneyToPoney</tspan></text><path d="M119 29h250l10 10v370H129l-10-10z" style="fill:#fff;fill-opacity:1;fill-rule:nonzero;stroke:#000;stroke-width:1;stroke-linecap:butt;stroke-linejoin:miter;stroke-miterlimit:10;stroke-dasharray:none;stroke-opacity:1" transform="rotate(90 220.134 189.33)scale(.89175)"/><path d="M129 409V39l-10-10m10 10h250" style="fill:none;stroke:#000;stroke-width:1;stroke-linecap:butt;stroke-linejoin:miter;stroke-miterlimit:10;stroke-dasharray:none;stroke-opacity:1" transform="rotate(90 220.134 189.33)scale(.89175)"/><text xml:space="preserve" transform="translate(50.533 99.838)scale(.89175)"><tspan x="0" y="0" style="font-variant:normal;font-weight:400;font-size:12px;font-family:&quot;Liberation Sans&quot;;writing-mode:lr-tb;fill:#000;fill-opacity:1;fill-rule:nonzero;stroke:none">«device» </tspan></text><text xml:space="preserve" transform="translate(96.346 99.838)scale(.89175)"><tspan x="0" y="0" style="font-variant:normal;font-weight:700;font-size:12px;font-family:&quot;Liberation Sans&quot;;writing-mode:lr-tb;fill:#000;fill-opacity:1;fill-rule:nonzero;stroke:none">Personal Computer</tspan></text><path d="M124 84h190l10 10v300H134l-10-10z" style="fill:#fff;fill-opacity:1;fill-rule:nonzero;stroke:#000;stroke-width:1;stroke-linecap:butt;stroke-linejoin:miter;stroke-miterlimit:10;stroke-dasharray:none;stroke-opacity:1" transform="rotate(90 197.84 207.164)scale(.89175)"/><path d="M134 394V94l-10-10m10 10h190" style="fill:none;stroke:#000;stroke-width:1;stroke-linecap:butt;stroke-linejoin:miter;stroke-miterlimit:10;stroke-dasharray:none;stroke-opacity:1" transform="rotate(90 197.84 207.164)scale(.89175)"/><text xml:space="preserve" transform="translate(71.238 144.425)scale(.89175)"><tspan x="0" y="0" style="font-variant:normal;font-weight:400;font-size:12px;font-family:&quot;Liberation Sans&quot;;writing-mode:lr-tb;fill:#000;fill-opacity:1;fill-rule:nonzero;stroke:none">«executionEnvironement» </tspan></text><text xml:space="preserve" transform="translate(197.95 144.425)scale(.89175)"><tspan x="0" y="0" dx="0 0 0 0 0 0 -0.8906247" style="font-variant:normal;font-weight:700;font-size:12px;font-family:&quot;Liberation Sans&quot;;writing-mode:lr-tb;fill:#000;fill-opacity:1;fill-rule:nonzero;stroke:none">PoneyToPoney Client</tspan></text><text xml:space="preserve" transform="translate(164.217 156.91)scale(.89175)"><tspan x="0" y="0" style="font-variant:normal;font-weight:700;font-size:12px;font-family:&quot;Liberation Sans&quot;;writing-mode:lr-tb;fill:#000;fill-opacity:1;fill-rule:nonzero;stroke:none">Container</tspan></text><path d="M144.69 154.31h119.62l10 10v209H154.69l-10-10z" style="fill:#fff;fill-opacity:1;fill-rule:nonzero;stroke:#000;stroke-width:1;stroke-linecap:butt;stroke-linejoin:miter;stroke-miterlimit:10;stroke-dasharray:none;stroke-opacity:1" transform="rotate(90 184.91 229.289)scale(.89175)"/><path d="M154.69 373.31v-209l-10-10m10 10h119.62" style="fill:none;stroke:#000;stroke-width:1;stroke-linecap:butt;stroke-linejoin:miter;stroke-miterlimit:10;stroke-dasharray:none;stroke-opacity:1" transform="rotate(90 184.91 229.289)scale(.89175)"/><text xml:space="preserve" transform="translate(101.906 197.93)scale(.89175)"><tspan x="0" y="0" style="font-variant:normal;font-weight:400;font-size:12px;font-family:&quot;Liberation Sans&quot;;writing-mode:lr-tb;fill:#000;fill-opacity:1;fill-rule:nonzero;stroke:none">«executionEnvironement» </tspan></text><text xml:space="preserve" transform="translate(228.618 197.93)scale(.89175)"><tspan x="0" y="0" style="font-variant:normal;font-weight:700;font-size:12px;font-family:&quot;Liberation Sans&quot;;writing-mode:lr-tb;fill:#000;fill-opacity:1;fill-rule:nonzero;stroke:none">JVM</tspan></text><path d="M130 250h130v60H130Z" style="fill:#fff;fill-opacity:1;fill-rule:nonzero;stroke:#000;stroke-width:1;stroke-linecap:butt;stroke-linejoin:miter;stroke-miterlimit:10;stroke-dasharray:none;stroke-opacity:1" transform="translate(-7.877 -4.052)scale(.89175)"/><text xml:space="preserve" transform="translate(137.005 242.518)scale(.89175)"><tspan x="0" y="0" style="font-variant:normal;font-weight:400;font-size:12px;font-family:&quot;Liberation Sans&quot;;writing-mode:lr-tb;fill:#000;fill-opacity:1;fill-rule:nonzero;stroke:none">&lt;&lt;artifact&gt;&gt;</tspan></text><text xml:space="preserve" transform="translate(130.776 255.894)scale(.89175)"><tspan x="0" y="0" style="font-variant:normal;font-weight:700;font-size:12px;font-family:&quot;Liberation Sans&quot;;writing-mode:lr-tb;fill:#000;fill-opacity:1;fill-rule:nonzero;stroke:none">ClientChat.jar</tspan></text><path d="M522 96h250l10 10v236H532l-10-10z" style="fill:#fff;fill-opacity:1;fill-rule:nonzero;stroke:#000;stroke-width:1;stroke-linecap:butt;stroke-linejoin:miter;stroke-miterlimit:10;stroke-dasharray:none;stroke-opacity:1" transform="rotate(90 579.51 189.33)scale(.89175)"/><path d="M532 342V106l-10-10m10 10h250" style="fill:none;stroke:#000;stroke-width:1;stroke-linecap:butt;stroke-linejoin:miter;stroke-miterlimit:10;stroke-dasharray:none;stroke-opacity:1" transform="rotate(90 579.51 189.33)scale(.89175)"/><text xml:space="preserve" transform="translate(469.656 99.838)scale(.89175)"><tspan x="0" y="0" style="font-variant:normal;font-weight:400;font-size:12px;font-family:&quot;Liberation Sans&quot;;writing-mode:lr-tb;fill:#000;fill-opacity:1;fill-rule:nonzero;stroke:none">«device»</tspan></text><text xml:space="preserve" transform="translate(512.502 99.838)scale(.89175)"><tspan x="0" y="0" style="font-variant:normal;font-weight:700;font-size:12px;font-family:&quot;Liberation Sans&quot;;writing-mode:lr-tb;fill:#000;fill-opacity:1;fill-rule:nonzero;stroke:none"> Server</tspan></text><path d="m439 179.74 91.72 1.3" style="fill:none;stroke:#000;stroke-width:1;stroke-linecap:butt;stroke-linejoin:miter;stroke-miterlimit:10;stroke-dasharray:none;stroke-opacity:1" transform="translate(-7.877 -4.052)scale(.89175)"/><path d="M456 169h55v27h-55z" style="fill:#fff;fill-opacity:1;fill-rule:nonzero;stroke:none" transform="translate(-8.323 -4.497)scale(.89175)"/><text xml:space="preserve" transform="translate(398.567 155.126)scale(.89175)"><tspan x="0" y="0" style="font-variant:normal;font-weight:400;font-size:11px;font-family:&quot;Liberation Sans&quot;;writing-mode:lr-tb;fill:#000;fill-opacity:1;fill-rule:nonzero;stroke:none">«protocol» </tspan></text><text xml:space="preserve" transform="translate(401.563 167.61)scale(.89175)"><tspan x="0" y="0" style="font-variant:normal;font-weight:700;font-size:11px;font-family:&quot;Liberation Sans&quot;;writing-mode:lr-tb;fill:#000;fill-opacity:1;fill-rule:nonzero;stroke:none">Java RMI</tspan></text><path d="M439 239h30v57l-30 .22" style="fill:none;stroke:#000;stroke-width:1;stroke-linecap:butt;stroke-linejoin:miter;stroke-miterlimit:10;stroke-dasharray:none;stroke-opacity:1" transform="translate(-7.877 -4.052)scale(.89175)"/><path d="M447 257h55v27h-55z" style="fill:#fff;fill-opacity:1;fill-rule:nonzero;stroke:none" transform="translate(-8.323 -4.497)scale(.89175)"/><text xml:space="preserve" transform="translate(390.541 233.6)scale(.89175)"><tspan x="0" y="0" style="font-variant:normal;font-weight:400;font-size:11px;font-family:&quot;Liberation Sans&quot;;writing-mode:lr-tb;fill:#000;fill-opacity:1;fill-rule:nonzero;stroke:none">«protocol» </tspan></text><text xml:space="preserve" transform="translate(393.537 246.085)scale(.89175)"><tspan x="0" y="0" style="font-variant:normal;font-weight:700;font-size:11px;font-family:&quot;Liberation Sans&quot;;writing-mode:lr-tb;fill:#000;fill-opacity:1;fill-rule:nonzero;stroke:none">Java RMI</tspan></text><path d="M564 134h170l10 10v200H574l-10-10z" style="fill:#fff;fill-opacity:1;fill-rule:nonzero;stroke:#000;stroke-width:1;stroke-linecap:butt;stroke-linejoin:miter;stroke-miterlimit:10;stroke-dasharray:none;stroke-opacity:1" transform="rotate(90 581.293 207.164)scale(.89175)"/><path d="M574 344V144l-10-10m10 10h170" style="fill:none;stroke:#000;stroke-width:1;stroke-linecap:butt;stroke-linejoin:miter;stroke-miterlimit:10;stroke-dasharray:none;stroke-opacity:1" transform="rotate(90 581.293 207.164)scale(.89175)"/><text xml:space="preserve" transform="translate(487.491 153.343)scale(.89175)"><tspan x="0" y="0" style="font-variant:normal;font-weight:400;font-size:12px;font-family:&quot;Liberation Sans&quot;;writing-mode:lr-tb;fill:#000;fill-opacity:1;fill-rule:nonzero;stroke:none">«executionEnvironement» </tspan></text><text xml:space="preserve" transform="translate(487.491 165.827)scale(.89175)"><tspan x="0" y="0" style="font-variant:normal;font-weight:700;font-size:12px;font-family:&quot;Liberation Sans&quot;;writing-mode:lr-tb;fill:#000;fill-opacity:1;fill-rule:nonzero;stroke:none">RMI Server Container</tspan></text><path d="M597.5 185h99l10 10v149h-99l-10-10z" style="fill:#fff;fill-opacity:1;fill-rule:nonzero;stroke:#000;stroke-width:1;stroke-linecap:butt;stroke-linejoin:miter;stroke-miterlimit:10;stroke-dasharray:none;stroke-opacity:1" transform="rotate(90 579.51 229.904)scale(.89175)"/><path d="M607.5 344V195l-10-10m10 10h99" style="fill:none;stroke:#000;stroke-width:1;stroke-linecap:butt;stroke-linejoin:miter;stroke-miterlimit:10;stroke-dasharray:none;stroke-opacity:1" transform="rotate(90 579.51 229.904)scale(.89175)"/><text xml:space="preserve" transform="translate(508.893 207.74)scale(.89175)"><tspan x="0" y="0" style="font-variant:normal;font-weight:400;font-size:12px;font-family:&quot;Liberation Sans&quot;;writing-mode:lr-tb;fill:#000;fill-opacity:1;fill-rule:nonzero;stroke:none">«executionEnvironement» </tspan></text><text xml:space="preserve" transform="translate(508.893 220.224)scale(.89175)"><tspan x="0" y="0" style="font-variant:normal;font-weight:700;font-size:12px;font-family:&quot;Liberation Sans&quot;;writing-mode:lr-tb;fill:#000;fill-opacity:1;fill-rule:nonzero;stroke:none">JVM</tspan></text><path d="M607.08 260h89.84v39.23h-89.84z" style="fill:#fff;fill-opacity:1;fill-rule:nonzero;stroke:#000;stroke-width:1;stroke-linecap:butt;stroke-linejoin:miter;stroke-miterlimit:10;stroke-dasharray:none;stroke-opacity:1" transform="translate(-7.877 -4.052)scale(.89175)"/><text xml:space="preserve" transform="translate(544.535 242.518)scale(.89175)"><tspan x="0" y="0" style="font-variant:normal;font-weight:400;font-size:12px;font-family:&quot;Liberation Sans&quot;;writing-mode:lr-tb;fill:#000;fill-opacity:1;fill-rule:nonzero;stroke:none">&lt;&lt;artifact&gt;&gt;</tspan></text><text xml:space="preserve" transform="translate(543.351 255.894)scale(.89175)"><tspan x="0" y="0" style="font-variant:normal;font-weight:700;font-size:12px;font-family:&quot;Liberation Sans&quot;;writing-mode:lr-tb;fill:#000;fill-opacity:1;fill-rule:nonzero;stroke:none">JavaRMI.jar</tspan></text></svg>