<svg xmlns="http://www.w3.org/2000/svg" width="760" height="587.84" viewBox="0 0 760 587.84"><defs><clipPath id="a" clipPathUnits="userSpaceOnUse"><path d="M0 0h760.312v587.516H0Z" clip-rule="evenodd"/></clipPath></defs><path d="M0 0h760v588H0Z" clip-path="url(#a)" style="fill:#fff;fill-opacity:1;fill-rule:nonzero;stroke:none"/><path d="M430 120H110v19h-1.4l.01-1.24" style="fill:none;stroke:#000;stroke-width:1;stroke-linecap:butt;stroke-linejoin:miter;stroke-miterlimit:10;stroke-dasharray:none;stroke-opacity:1" transform="translate(9.019 11.507)scale(.894)"/><path d="m108.57 143.01-3.45-7.03 3.49 1.78 3.51-1.72z" style="fill:#000;fill-opacity:1;fill-rule:nonzero;stroke:#000;stroke-width:1;stroke-linecap:butt;stroke-linejoin:miter;stroke-miterlimit:10;stroke-dasharray:none;stroke-opacity:1" transform="translate(9.019 11.507)scale(.894)"/><path d="M590 210h140v183.63" style="fill:none;stroke:#000;stroke-width:1;stroke-linecap:butt;stroke-linejoin:miter;stroke-miterlimit:10;stroke-dasharray:none;stroke-opacity:1" transform="translate(9.019 11.507)scale(.894)"/><path d="m730 398.88-3.5-7 3.5 1.75 3.5-1.75z" style="fill:#000;fill-opacity:1;fill-rule:nonzero;stroke:#000;stroke-width:1;stroke-linecap:butt;stroke-linejoin:miter;stroke-miterlimit:10;stroke-dasharray:none;stroke-opacity:1" transform="translate(9.019 11.507)scale(.894)"/><path d="M430 100h150l10 10v200H440l-10-10z" style="fill:#fff;fill-opacity:1;fill-rule:nonzero;stroke:#000;stroke-width:1;stroke-linecap:butt;stroke-linejoin:miter;stroke-miterlimit:10;stroke-dasharray:none;stroke-opacity:1" transform="translate(9.019 11.507)scale(.894)"/><path d="M430 100h150l10 10H440v200l-10-10z" style="fill:#000;fill-opacity:.5;fill-rule:nonzero;stroke:none" transform="translate(9.019 11.507)scale(.894)"/><path d="M430 100h150l10 10v200H440l-10-10zm10 210V110h150m-160-10 10 10" style="fill:none;stroke:#000;stroke-width:1;stroke-linecap:butt;stroke-linejoin:miter;stroke-miterlimit:10;stroke-dasharray:none;stroke-opacity:1" transform="translate(9.019 11.507)scale(.894)"/><text xml:space="preserve" transform="translate(401.007 205.057)scale(.894)"><tspan x="0" y="0" style="font-variant:normal;font-weight:400;font-size:12px;font-family:&quot;Liberation Sans&quot;;writing-mode:lr-tb;fill:#000;fill-opacity:1;fill-rule:nonzero;stroke:none">         Gérer les demandes </tspan></text><text xml:space="preserve" transform="translate(437.969 217.573)scale(.894)"><tspan x="0" y="0" style="font-variant:normal;font-weight:400;font-size:12px;font-family:&quot;Liberation Sans&quot;;writing-mode:lr-tb;fill:#000;fill-opacity:1;fill-rule:nonzero;stroke:none">      de chat</tspan></text><path d="M440 110h30v30h-30z" style="fill:#fff;fill-opacity:1;fill-rule:nonzero;stroke:#000;stroke-width:1;stroke-linecap:butt;stroke-linejoin:miter;stroke-miterlimit:10;stroke-dasharray:none;stroke-opacity:1" transform="translate(9.019 11.507)scale(.894)"/><text xml:space="preserve" transform="translate(412.353 127.279)"><tspan x="0" y="0" style="font-variant:normal;font-weight:400;font-size:10.72px;font-family:&quot;Liberation Sans&quot;;writing-mode:lr-tb;fill:#000;fill-opacity:1;fill-rule:nonzero;stroke:none">1</tspan></text><path d="M430.8 417.24 330 417.2l-94.23.77" style="fill:none;stroke:#000;stroke-width:1;stroke-linecap:butt;stroke-linejoin:miter;stroke-miterlimit:10;stroke-dasharray:none;stroke-opacity:1" transform="translate(9.019 11.507)scale(.894)"/><path d="m230.52 418.01 6.97-3.56-1.72 3.52 1.78 3.48z" style="fill:#000;fill-opacity:1;fill-rule:nonzero;stroke:#000;stroke-width:1;stroke-linecap:butt;stroke-linejoin:miter;stroke-miterlimit:10;stroke-dasharray:none;stroke-opacity:1" transform="translate(9.019 11.507)scale(.894)"/><path d="M430 333h150l10 10v110H440l-10-10z" style="fill:#fff;fill-opacity:1;fill-rule:nonzero;stroke:#000;stroke-width:1;stroke-linecap:butt;stroke-linejoin:miter;stroke-miterlimit:10;stroke-dasharray:none;stroke-opacity:1" transform="translate(9.019 11.507)scale(.894)"/><path d="M430 333h150l10 10H440v110l-10-10z" style="fill:#000;fill-opacity:.5;fill-rule:nonzero;stroke:none" transform="translate(9.019 11.507)scale(.894)"/><path d="M430 333h150l10 10v110H440l-10-10zm10 120V343h150m-160-10 10 10" style="fill:none;stroke:#000;stroke-width:1;stroke-linecap:butt;stroke-linejoin:miter;stroke-miterlimit:10;stroke-dasharray:none;stroke-opacity:1" transform="translate(9.019 11.507)scale(.894)"/><text xml:space="preserve" transform="translate(403.089 373.128)scale(.894)"><tspan x="0" y="0" style="font-variant:normal;font-weight:400;font-size:12px;font-family:&quot;Liberation Sans&quot;;writing-mode:lr-tb;fill:#000;fill-opacity:1;fill-rule:nonzero;stroke:none">         Gérer la session de </tspan></text><text xml:space="preserve" transform="translate(422.757 385.644)scale(.894)"><tspan x="0" y="0" style="font-variant:normal;font-weight:400;font-size:12px;font-family:&quot;Liberation Sans&quot;;writing-mode:lr-tb;fill:#000;fill-opacity:1;fill-rule:nonzero;stroke:none">     converstion ID</tspan></text><path d="M440 343h30v30h-30z" style="fill:#fff;fill-opacity:1;fill-rule:nonzero;stroke:#000;stroke-width:1;stroke-linecap:butt;stroke-linejoin:miter;stroke-miterlimit:10;stroke-dasharray:none;stroke-opacity:1" transform="translate(9.019 11.507)scale(.894)"/><text xml:space="preserve" transform="translate(412.353 335.576)"><tspan x="0" y="0" style="font-variant:normal;font-weight:400;font-size:10.72px;font-family:&quot;Liberation Sans&quot;;writing-mode:lr-tb;fill:#000;fill-opacity:1;fill-rule:nonzero;stroke:none">2</tspan></text><path d="M430 590H159.8V444.49" style="fill:none;stroke:#000;stroke-width:1;stroke-linecap:butt;stroke-linejoin:miter;stroke-miterlimit:10;stroke-dasharray:none;stroke-opacity:1" transform="translate(9.019 11.507)scale(.894)"/><path d="m159.8 439.24 3.5 7-3.5-1.75-3.5 1.75z" style="fill:#000;fill-opacity:1;fill-rule:nonzero;stroke:#000;stroke-width:1;stroke-linecap:butt;stroke-linejoin:miter;stroke-miterlimit:10;stroke-dasharray:none;stroke-opacity:1" transform="translate(9.019 11.507)scale(.894)"/><path d="M590 580h140V436.37" style="fill:none;stroke:#000;stroke-width:1;stroke-linecap:butt;stroke-linejoin:miter;stroke-miterlimit:10;stroke-dasharray:none;stroke-opacity:1" transform="translate(9.019 11.507)scale(.894)"/><path d="m730 431.12 3.5 7-3.5-1.75-3.5 1.75z" style="fill:#000;fill-opacity:1;fill-rule:nonzero;stroke:#000;stroke-width:1;stroke-linecap:butt;stroke-linejoin:miter;stroke-miterlimit:10;stroke-dasharray:none;stroke-opacity:1" transform="translate(9.019 11.507)scale(.894)"/><path d="M430 530h150l10 10v80H440l-10-10z" style="fill:#fff;fill-opacity:1;fill-rule:nonzero;stroke:#000;stroke-width:1;stroke-linecap:butt;stroke-linejoin:miter;stroke-miterlimit:10;stroke-dasharray:none;stroke-opacity:1" transform="translate(9.019 11.507)scale(.894)"/><path d="M430 530h150l10 10H440v80l-10-10z" style="fill:#000;fill-opacity:.5;fill-rule:nonzero;stroke:none" transform="translate(9.019 11.507)scale(.894)"/><path d="M430 530h150l10 10v80H440l-10-10zm10 90v-80h150m-160-10 10 10" style="fill:none;stroke:#000;stroke-width:1;stroke-linecap:butt;stroke-linejoin:miter;stroke-miterlimit:10;stroke-dasharray:none;stroke-opacity:1" transform="translate(9.019 11.507)scale(.894)"/><text xml:space="preserve" transform="translate(411.442 535.835)scale(.894)"><tspan x="0" y="0" style="font-variant:normal;font-weight:400;font-size:12px;font-family:&quot;Liberation Sans&quot;;writing-mode:lr-tb;fill:#000;fill-opacity:1;fill-rule:nonzero;stroke:none">         Gérer la fin de la</tspan></text><text xml:space="preserve" transform="translate(446.322 548.351)scale(.894)"><tspan x="0" y="0" style="font-variant:normal;font-weight:400;font-size:12px;font-family:&quot;Liberation Sans&quot;;writing-mode:lr-tb;fill:#000;fill-opacity:1;fill-rule:nonzero;stroke:none">session</tspan></text><path d="M440 540h30v30h-30z" style="fill:#fff;fill-opacity:1;fill-rule:nonzero;stroke:#000;stroke-width:1;stroke-linecap:butt;stroke-linejoin:miter;stroke-miterlimit:10;stroke-dasharray:none;stroke-opacity:1" transform="translate(9.019 11.507)scale(.894)"/><text xml:space="preserve" transform="translate(412.353 511.685)"><tspan x="0" y="0" style="font-variant:normal;font-weight:400;font-size:10.72px;font-family:&quot;Liberation Sans&quot;;writing-mode:lr-tb;fill:#000;fill-opacity:1;fill-rule:nonzero;stroke:none">3</tspan></text><path d="M110 175v196.63" style="fill:none;stroke:#000;stroke-width:1;stroke-linecap:butt;stroke-linejoin:miter;stroke-miterlimit:10;stroke-dasharray:none;stroke-opacity:1" transform="translate(9.019 11.507)scale(.894)"/><path d="m110 376.88-3.5-7 3.5 1.75 3.5-1.75z" style="fill:#000;fill-opacity:1;fill-rule:nonzero;stroke:#000;stroke-width:1;stroke-linecap:butt;stroke-linejoin:miter;stroke-miterlimit:10;stroke-dasharray:none;stroke-opacity:1" transform="translate(9.019 11.507)scale(.894)"/><path d="M200 175H20v-30h180" style="fill:#fff;fill-opacity:1;fill-rule:nonzero;stroke:#000;stroke-width:1;stroke-linecap:butt;stroke-linejoin:miter;stroke-miterlimit:10;stroke-dasharray:none;stroke-opacity:1" transform="translate(9.019 11.507)scale(.894)"/><path d="M50 145v30" style="fill:none;stroke:#000;stroke-width:1;stroke-linecap:butt;stroke-linejoin:miter;stroke-miterlimit:10;stroke-dasharray:none;stroke-opacity:1" transform="translate(9.019 11.507)scale(.894)"/><text xml:space="preserve" transform="translate(30.921 157.675)scale(.894)"><tspan x="0" y="0" style="font-variant:normal;font-weight:400;font-size:12px;font-family:&quot;Liberation Sans&quot;;writing-mode:lr-tb;fill:#000;fill-opacity:1;fill-rule:nonzero;stroke:none">D1</tspan></text><text xml:space="preserve" transform="translate(54.766 157.675)scale(.894)"><tspan x="0" y="0" style="font-variant:normal;font-weight:400;font-size:12px;font-family:&quot;Liberation Sans&quot;;writing-mode:lr-tb;fill:#000;fill-opacity:1;fill-rule:nonzero;stroke:none"> Membres sur le réseau</tspan></text><path d="M230 393h193.63" style="fill:none;stroke:#000;stroke-width:1;stroke-linecap:butt;stroke-linejoin:miter;stroke-miterlimit:10;stroke-dasharray:none;stroke-opacity:1" transform="translate(9.019 11.507)scale(.894)"/><path d="m428.88 393-7 3.5 1.75-3.5-1.75-3.5z" style="fill:#000;fill-opacity:1;fill-rule:nonzero;stroke:#000;stroke-width:1;stroke-linecap:butt;stroke-linejoin:miter;stroke-miterlimit:10;stroke-dasharray:none;stroke-opacity:1" transform="translate(9.019 11.507)scale(.894)"/><path d="M80 378h150v60H80Z" style="fill:#fff;fill-opacity:1;fill-rule:nonzero;stroke:#000;stroke-width:1;stroke-linecap:butt;stroke-linejoin:miter;stroke-miterlimit:10;stroke-dasharray:none;stroke-opacity:1" transform="translate(9.019 11.507)scale(.894)"/><text xml:space="preserve" transform="translate(127.459 379.386)scale(.894)"><tspan x="0" y="0" style="font-variant:normal;font-weight:400;font-size:12px;font-family:&quot;Liberation Sans&quot;;writing-mode:lr-tb;fill:#000;fill-opacity:1;fill-rule:nonzero;stroke:none">Membre</tspan></text><path d="M810 430H650v-30h160" style="fill:#fff;fill-opacity:1;fill-rule:nonzero;stroke:#000;stroke-width:1;stroke-linecap:butt;stroke-linejoin:miter;stroke-miterlimit:10;stroke-dasharray:none;stroke-opacity:1" transform="translate(9.019 11.507)scale(.894)"/><path d="M680 400v30" style="fill:none;stroke:#000;stroke-width:1;stroke-linecap:butt;stroke-linejoin:miter;stroke-miterlimit:10;stroke-dasharray:none;stroke-opacity:1" transform="translate(9.019 11.507)scale(.894)"/><text xml:space="preserve" transform="translate(594.138 385.644)scale(.894)"><tspan x="0" y="0" style="font-variant:normal;font-weight:400;font-size:12px;font-family:&quot;Liberation Sans&quot;;writing-mode:lr-tb;fill:#000;fill-opacity:1;fill-rule:nonzero;stroke:none">D2     Sessions multiples</tspan></text><text xml:space="preserve" transform="translate(176.6 108.506)scale(.894)"><tspan x="0" y="0" style="font-variant:normal;font-weight:400;font-size:12px;font-family:&quot;Liberation Sans&quot;;writing-mode:lr-tb;fill:#000;fill-opacity:1;fill-rule:nonzero;stroke:none">Lister les membres sur le réseau</tspan></text><text xml:space="preserve" transform="translate(47.893 239.029)scale(.894)"><tspan x="0" y="0" style="font-variant:normal;font-weight:400;font-size:12px;font-family:&quot;Liberation Sans&quot;;writing-mode:lr-tb;fill:#000;fill-opacity:1;fill-rule:nonzero;stroke:none">Obtenir la</tspan></text><text xml:space="preserve" transform="translate(51.47 251.545)scale(.894)"><tspan x="0" y="0" style="font-variant:normal;font-weight:400;font-size:12px;font-family:&quot;Liberation Sans&quot;;writing-mode:lr-tb;fill:#000;fill-opacity:1;fill-rule:nonzero;stroke:none">liste des</tspan></text><text xml:space="preserve" transform="translate(48.787 264.955)scale(.894)"><tspan x="0" y="0" style="font-variant:normal;font-weight:400;font-size:12px;font-family:&quot;Liberation Sans&quot;;writing-mode:lr-tb;fill:#000;fill-opacity:1;fill-rule:nonzero;stroke:none">membres</tspan></text><path d="M160.4 377.94V180.9l262.91-.05" style="fill:none;stroke:#000;stroke-width:1;stroke-linecap:butt;stroke-linejoin:miter;stroke-miterlimit:10;stroke-dasharray:none;stroke-opacity:1" transform="translate(9.019 11.507)scale(.894)"/><path d="m428.56 180.85-7 3.5 1.75-3.5-1.75-3.5z" style="fill:#000;fill-opacity:1;fill-rule:nonzero;stroke:#000;stroke-width:1;stroke-linecap:butt;stroke-linejoin:miter;stroke-miterlimit:10;stroke-dasharray:none;stroke-opacity:1" transform="translate(9.019 11.507)scale(.894)"/><text xml:space="preserve" transform="translate(237.546 154.993)scale(.894)"><tspan x="0" y="0" style="font-variant:normal;font-weight:400;font-size:12px;font-family:&quot;Liberation Sans&quot;;writing-mode:lr-tb;fill:#000;fill-opacity:1;fill-rule:nonzero;stroke:none">Demande de chat vers</tspan></text><text xml:space="preserve" transform="translate(250.663 168.403)scale(.894)"><tspan x="0" y="0" style="font-variant:normal;font-weight:400;font-size:12px;font-family:&quot;Liberation Sans&quot;;writing-mode:lr-tb;fill:#000;fill-opacity:1;fill-rule:nonzero;stroke:none">un autre membre</tspan></text><text xml:space="preserve" transform="translate(323.733 45.926)scale(.894)"><tspan x="0" y="0" dx="0 0 0 0 0 0 0 0 0 -0.43359324" style="font-variant:normal;font-weight:700;font-size:24px;font-family:&quot;Liberation Sans&quot;;writing-mode:lr-tb;fill:#000;fill-opacity:1;fill-rule:nonzero;stroke:none">DFD LeveL 1</tspan></text><text xml:space="preserve" transform="translate(340.51 76.322)scale(.894)"><tspan x="0" y="0" style="font-variant:normal;font-weight:400;font-size:12px;font-family:&quot;Liberation Sans&quot;;writing-mode:lr-tb;fill:#000;fill-opacity:1;fill-rule:nonzero;stroke:none">Application de chats</tspan></text><path d="M430 200H169.7v171.45" style="fill:none;stroke:#000;stroke-width:1;stroke-linecap:butt;stroke-linejoin:miter;stroke-miterlimit:10;stroke-dasharray:none;stroke-opacity:1" transform="translate(9.019 11.507)scale(.894)"/><path d="m169.7 376.7-3.5-7 3.5 1.75 3.5-1.75z" style="fill:#000;fill-opacity:1;fill-rule:nonzero;stroke:#000;stroke-width:1;stroke-linecap:butt;stroke-linejoin:miter;stroke-miterlimit:10;stroke-dasharray:none;stroke-opacity:1" transform="translate(9.019 11.507)scale(.894)"/><text xml:space="preserve" transform="translate(232.322 184.495)scale(.894)"><tspan x="0" y="0" style="font-variant:normal;font-weight:400;font-size:12px;font-family:&quot;Liberation Sans&quot;;writing-mode:lr-tb;fill:#000;fill-opacity:1;fill-rule:nonzero;stroke:none">Notification de demande</tspan></text><path d="M192.5 378H180V220.5l243.15.04" style="fill:none;stroke:#000;stroke-width:1;stroke-linecap:butt;stroke-linejoin:miter;stroke-miterlimit:10;stroke-dasharray:none;stroke-opacity:1" transform="translate(9.019 11.507)scale(.894)"/><path d="m428.4 220.54-7 3.5 1.75-3.5-1.75-3.5z" style="fill:#000;fill-opacity:1;fill-rule:nonzero;stroke:#000;stroke-width:1;stroke-linecap:butt;stroke-linejoin:miter;stroke-miterlimit:10;stroke-dasharray:none;stroke-opacity:1" transform="translate(9.019 11.507)scale(.894)"/><text xml:space="preserve" transform="translate(245.746 203.269)scale(.894)"><tspan x="0" y="0" style="font-variant:normal;font-weight:400;font-size:12px;font-family:&quot;Liberation Sans&quot;;writing-mode:lr-tb;fill:#000;fill-opacity:1;fill-rule:nonzero;stroke:none">Acceptation / refus</tspan></text><path d="M429.68 240.28 190 240.3l-.05 131.27" style="fill:none;stroke:#000;stroke-width:1;stroke-linecap:butt;stroke-linejoin:miter;stroke-miterlimit:10;stroke-dasharray:none;stroke-opacity:1" transform="translate(9.019 11.507)scale(.894)"/><path d="m189.95 376.82-3.5-7 3.5 1.75 3.5-1.75z" style="fill:#000;fill-opacity:1;fill-rule:nonzero;stroke:#000;stroke-width:1;stroke-linecap:butt;stroke-linejoin:miter;stroke-miterlimit:10;stroke-dasharray:none;stroke-opacity:1" transform="translate(9.019 11.507)scale(.894)"/><text xml:space="preserve" transform="translate(220.7 221.149)scale(.894)"><tspan x="0" y="0" style="font-variant:normal;font-weight:400;font-size:12px;font-family:&quot;Liberation Sans&quot;;writing-mode:lr-tb;fill:#000;fill-opacity:1;fill-rule:nonzero;stroke:none">Réception acceptation / refus</tspan></text><path d="M430 260.02 200 260v111.57" style="fill:none;stroke:#000;stroke-width:1;stroke-linecap:butt;stroke-linejoin:miter;stroke-miterlimit:10;stroke-dasharray:none;stroke-opacity:1" transform="translate(9.019 11.507)scale(.894)"/><path d="m200 376.82-3.5-7 3.5 1.75 3.5-1.75z" style="fill:#000;fill-opacity:1;fill-rule:nonzero;stroke:#000;stroke-width:1;stroke-linecap:butt;stroke-linejoin:miter;stroke-miterlimit:10;stroke-dasharray:none;stroke-opacity:1" transform="translate(9.019 11.507)scale(.894)"/><text xml:space="preserve" transform="translate(246.933 239.029)scale(.894)"><tspan x="0" y="0" style="font-variant:normal;font-weight:400;font-size:12px;font-family:&quot;Liberation Sans&quot;;writing-mode:lr-tb;fill:#000;fill-opacity:1;fill-rule:nonzero;stroke:none">Réception timeout</tspan></text><text xml:space="preserve" transform="translate(548.21 182.707)scale(.894)"><tspan x="0" y="0" style="font-variant:normal;font-weight:400;font-size:12px;font-family:&quot;Liberation Sans&quot;;writing-mode:lr-tb;fill:#000;fill-opacity:1;fill-rule:nonzero;stroke:none">Création de la session</tspan></text><text xml:space="preserve" transform="translate(575.644 196.117)scale(.894)"><tspan x="0" y="0" style="font-variant:normal;font-weight:400;font-size:12px;font-family:&quot;Liberation Sans&quot;;writing-mode:lr-tb;fill:#000;fill-opacity:1;fill-rule:nonzero;stroke:none">avec un ID</tspan></text><text xml:space="preserve" transform="translate(244.251 357.036)scale(.894)"><tspan x="0" y="0" style="font-variant:normal;font-weight:400;font-size:12px;font-family:&quot;Liberation Sans&quot;;writing-mode:lr-tb;fill:#000;fill-opacity:1;fill-rule:nonzero;stroke:none">Envoyer des messages</tspan></text><text xml:space="preserve" transform="translate(243.664 379.386)scale(.894)"><tspan x="0" y="0" style="font-variant:normal;font-weight:400;font-size:12px;font-family:&quot;Liberation Sans&quot;;writing-mode:lr-tb;fill:#000;fill-opacity:1;fill-rule:nonzero;stroke:none">Recevoir des messages</tspan></text><path d="M190.25 438.48 190.3 570h233.33" style="fill:none;stroke:#000;stroke-width:1;stroke-linecap:butt;stroke-linejoin:miter;stroke-miterlimit:10;stroke-dasharray:none;stroke-opacity:1" transform="translate(9.019 11.507)scale(.894)"/><path d="m428.88 570-7 3.5 1.75-3.5-1.75-3.5z" style="fill:#000;fill-opacity:1;fill-rule:nonzero;stroke:#000;stroke-width:1;stroke-linecap:butt;stroke-linejoin:miter;stroke-miterlimit:10;stroke-dasharray:none;stroke-opacity:1" transform="translate(9.019 11.507)scale(.894)"/><text xml:space="preserve" transform="translate(243.958 517.061)scale(.894)"><tspan x="0" y="0" style="font-variant:normal;font-weight:400;font-size:12px;font-family:&quot;Liberation Sans&quot;;writing-mode:lr-tb;fill:#000;fill-opacity:1;fill-rule:nonzero;stroke:none">Demande de fermeture</tspan></text><text xml:space="preserve" transform="translate(237.993 534.941)scale(.894)"><tspan x="0" y="0" style="font-variant:normal;font-weight:400;font-size:12px;font-family:&quot;Liberation Sans&quot;;writing-mode:lr-tb;fill:#000;fill-opacity:1;fill-rule:nonzero;stroke:none">Notification de fermeture</tspan></text><text xml:space="preserve" transform="translate(552.973 512.591)scale(.894)"><tspan x="0" y="0" style="font-variant:normal;font-weight:400;font-size:12px;font-family:&quot;Liberation Sans&quot;;writing-mode:lr-tb;fill:#000;fill-opacity:1;fill-rule:nonzero;stroke:none">Suppression de la</tspan></text><text xml:space="preserve" transform="translate(570.88 526.001)scale(.894)"><tspan x="0" y="0" style="font-variant:normal;font-weight:400;font-size:12px;font-family:&quot;Liberation Sans&quot;;writing-mode:lr-tb;fill:#000;fill-opacity:1;fill-rule:nonzero;stroke:none">session ID</tspan></text></svg>