<?xml version="1.0" encoding="us-ascii" standalone="no"?><svg xmlns="http://www.w3.org/2000/svg" xmlns:xlink="http://www.w3.org/1999/xlink" contentStyleType="text/css" height="1029px" preserveAspectRatio="none" style="width:855px;height:1029px;background:#FFFFFF;" version="1.1" viewBox="0 0 855 1029" width="855px" zoomAndPan="magnify"><defs/><g><text fill="#000000" font-family="sans-serif" font-size="14" font-weight="bold" lengthAdjust="spacing" textLength="174" x="341.75" y="29.5332">Diagramme de sequence</text><rect fill="none" height="718.1875" style="stroke:#000000;stroke-width:1.5;" width="838.5" x="10" y="257.9766"/><rect fill="none" height="342" style="stroke:#000000;stroke-width:1.5;" width="818.5" x="20" y="627.1641"/><line style="stroke:#181818;stroke-width:0.5;stroke-dasharray:5.0,5.0;" x1="46" x2="46" y1="76.2188" y2="993.1641"/><line style="stroke:#181818;stroke-width:0.5;stroke-dasharray:5.0,5.0;" x1="272" x2="272" y1="76.2188" y2="993.1641"/><line style="stroke:#181818;stroke-width:0.5;stroke-dasharray:5.0,5.0;" x1="620" x2="620" y1="76.2188" y2="993.1641"/><rect fill="#E2E2F0" height="31.6094" rx="2.5" ry="2.5" style="stroke:#181818;stroke-width:0.5;" width="33" x="30" y="43.6094"/><text fill="#000000" font-family="sans-serif" font-size="14" lengthAdjust="spacing" textLength="19" x="37" y="65.1426">m1</text><rect fill="#E2E2F0" height="31.6094" rx="2.5" ry="2.5" style="stroke:#181818;stroke-width:0.5;" width="33" x="30" y="992.1641"/><text fill="#000000" font-family="sans-serif" font-size="14" lengthAdjust="spacing" textLength="19" x="37" y="1013.6973">m1</text><rect fill="#E2E2F0" height="31.6094" rx="2.5" ry="2.5" style="stroke:#181818;stroke-width:0.5;" width="33" x="256" y="43.6094"/><text fill="#000000" font-family="sans-serif" font-size="14" lengthAdjust="spacing" textLength="19" x="263" y="65.1426">m2</text><rect fill="#E2E2F0" height="31.6094" rx="2.5" ry="2.5" style="stroke:#181818;stroke-width:0.5;" width="33" x="256" y="992.1641"/><text fill="#000000" font-family="sans-serif" font-size="14" lengthAdjust="spacing" textLength="19" x="263" y="1013.6973">m2</text><rect fill="#E2E2F0" height="31.6094" rx="2.5" ry="2.5" style="stroke:#181818;stroke-width:0.5;" width="69" x="586" y="43.6094"/><text fill="#000000" font-family="sans-serif" font-size="14" lengthAdjust="spacing" textLength="55" x="593" y="65.1426">directory</text><rect fill="#E2E2F0" height="31.6094" rx="2.5" ry="2.5" style="stroke:#181818;stroke-width:0.5;" width="69" x="586" y="992.1641"/><text fill="#000000" font-family="sans-serif" font-size="14" lengthAdjust="spacing" textLength="55" x="593" y="1013.6973">directory</text><polygon fill="#181818" points="608.5,104.5703,618.5,108.5703,608.5,112.5703,612.5,108.5703" style="stroke:#181818;stroke-width:1.0;"/><line style="stroke:#181818;stroke-width:1.0;" x1="46.5" x2="614.5" y1="108.5703" y2="108.5703"/><text fill="#000000" font-family="sans-serif" font-size="13" lengthAdjust="spacing" textLength="358" x="53.5" y="103.7139">Je publie mon adresse IP et mon nom pour rejoindre le r&#233;seau</text><line style="stroke:#181818;stroke-width:1.0;" x1="620.5" x2="662.5" y1="138.9219" y2="138.9219"/><line style="stroke:#181818;stroke-width:1.0;" x1="662.5" x2="662.5" y1="138.9219" y2="151.9219"/><line style="stroke:#181818;stroke-width:1.0;" x1="621.5" x2="662.5" y1="151.9219" y2="151.9219"/><polygon fill="#181818" points="631.5,147.9219,621.5,151.9219,631.5,155.9219,627.5,151.9219" style="stroke:#181818;stroke-width:1.0;"/><text fill="#000000" font-family="sans-serif" font-size="13" lengthAdjust="spacing" textLength="199" x="627.5" y="134.0654">Mise &#224; jour des utilisateurs r&#233;seau</text><polygon fill="#181818" points="608.5,178.2734,618.5,182.2734,608.5,186.2734,612.5,182.2734" style="stroke:#181818;stroke-width:1.0;"/><line style="stroke:#181818;stroke-width:1.0;" x1="46.5" x2="614.5" y1="182.2734" y2="182.2734"/><text fill="#000000" font-family="sans-serif" font-size="13" lengthAdjust="spacing" textLength="204" x="53.5" y="177.417">Je demande la liste des utilisateurs</text><polygon fill="#181818" points="57.5,208.625,47.5,212.625,57.5,216.625,53.5,212.625" style="stroke:#181818;stroke-width:1.0;"/><line style="stroke:#181818;stroke-width:1.0;stroke-dasharray:2.0,2.0;" x1="51.5" x2="619.5" y1="212.625" y2="212.625"/><text fill="#000000" font-family="sans-serif" font-size="13" lengthAdjust="spacing" textLength="339" x="63.5" y="207.7686">Envoie la liste des noms des membres courants du r&#233;seau</text><polygon fill="#181818" points="260.5,238.9766,270.5,242.9766,260.5,246.9766,264.5,242.9766" style="stroke:#181818;stroke-width:1.0;"/><line style="stroke:#181818;stroke-width:1.0;" x1="46.5" x2="266.5" y1="242.9766" y2="242.9766"/><text fill="#000000" font-family="sans-serif" font-size="13" lengthAdjust="spacing" textLength="202" x="53.5" y="238.1201">demande de cr&#233;er un nouveau chat</text><path d="M10,257.9766 L71,257.9766 L71,266.3281 L61,276.3281 L10,276.3281 L10,257.9766 " fill="#EEEEEE" style="stroke:#000000;stroke-width:1.5;"/><rect fill="none" height="718.1875" style="stroke:#000000;stroke-width:1.5;" width="838.5" x="10" y="257.9766"/><text fill="#000000" font-family="sans-serif" font-size="13" font-weight="bold" lengthAdjust="spacing" textLength="16" x="25" y="272.4717">alt</text><text fill="#000000" font-family="sans-serif" font-size="11" font-weight="bold" lengthAdjust="spacing" textLength="146" x="86" y="271.3955">[R&#233;ponse tardive/absente]</text><line style="stroke:#181818;stroke-width:1.0;" x1="46.5" x2="88.5" y1="298.6797" y2="298.6797"/><line style="stroke:#181818;stroke-width:1.0;" x1="88.5" x2="88.5" y1="298.6797" y2="311.6797"/><line style="stroke:#181818;stroke-width:1.0;" x1="47.5" x2="88.5" y1="311.6797" y2="311.6797"/><polygon fill="#181818" points="57.5,307.6797,47.5,311.6797,57.5,315.6797,53.5,311.6797" style="stroke:#181818;stroke-width:1.0;"/><text fill="#000000" font-family="sans-serif" font-size="13" lengthAdjust="spacing" textLength="85" x="53.5" y="293.8232">Timeout expir&#233;</text><polygon fill="#181818" points="57.5,338.0313,47.5,342.0313,57.5,346.0313,53.5,342.0313" style="stroke:#181818;stroke-width:1.0;"/><line style="stroke:#181818;stroke-width:1.0;stroke-dasharray:2.0,2.0;" x1="51.5" x2="271.5" y1="342.0313" y2="342.0313"/><text fill="#000000" font-family="sans-serif" font-size="13" lengthAdjust="spacing" textLength="54" x="63.5" y="337.1748">J'accepte</text><polygon fill="#181818" points="260.5,368.3828,270.5,372.3828,260.5,376.3828,264.5,372.3828" style="stroke:#181818;stroke-width:1.0;"/><line style="stroke:#181818;stroke-width:1.0;" x1="46.5" x2="266.5" y1="372.3828" y2="372.3828"/><text fill="#000000" font-family="sans-serif" font-size="13" lengthAdjust="spacing" textLength="92" x="53.5" y="367.5264">Je ferme le chat</text><line style="stroke:#000000;stroke-width:1.0;stroke-dasharray:2.0,2.0;" x1="10" x2="848.5" y1="381.3828" y2="381.3828"/><text fill="#000000" font-family="sans-serif" font-size="11" font-weight="bold" lengthAdjust="spacing" textLength="107" x="15" y="392.8018">[Demande refus&#233;e]</text><polygon fill="#181818" points="57.5,414.5703,47.5,418.5703,57.5,422.5703,53.5,418.5703" style="stroke:#181818;stroke-width:1.0;"/><line style="stroke:#181818;stroke-width:1.0;stroke-dasharray:2.0,2.0;" x1="51.5" x2="271.5" y1="418.5703" y2="418.5703"/><text fill="#000000" font-family="sans-serif" font-size="13" lengthAdjust="spacing" textLength="52" x="63.5" y="413.7139">Je refuse</text><line style="stroke:#000000;stroke-width:1.0;stroke-dasharray:2.0,2.0;" x1="10" x2="848.5" y1="427.5703" y2="427.5703"/><text fill="#000000" font-family="sans-serif" font-size="11" font-weight="bold" lengthAdjust="spacing" textLength="113" x="15" y="438.9893">[Demande accept&#233;e]</text><polygon fill="#181818" points="57.5,460.7578,47.5,464.7578,57.5,468.7578,53.5,464.7578" style="stroke:#181818;stroke-width:1.0;"/><line style="stroke:#181818;stroke-width:1.0;stroke-dasharray:2.0,2.0;" x1="51.5" x2="271.5" y1="464.7578" y2="464.7578"/><text fill="#000000" font-family="sans-serif" font-size="13" lengthAdjust="spacing" textLength="54" x="63.5" y="459.9014">J'accepte</text><line style="stroke:#181818;stroke-width:1.0;" x1="46.5" x2="88.5" y1="495.1094" y2="495.1094"/><line style="stroke:#181818;stroke-width:1.0;" x1="88.5" x2="88.5" y1="495.1094" y2="508.1094"/><line style="stroke:#181818;stroke-width:1.0;" x1="47.5" x2="88.5" y1="508.1094" y2="508.1094"/><polygon fill="#181818" points="57.5,504.1094,47.5,508.1094,57.5,512.1094,53.5,508.1094" style="stroke:#181818;stroke-width:1.0;"/><text fill="#000000" font-family="sans-serif" font-size="13" lengthAdjust="spacing" textLength="130" x="53.5" y="490.2529">Etablissement du chat</text><line style="stroke:#181818;stroke-width:1.0;" x1="272.5" x2="314.5" y1="538.4609" y2="538.4609"/><line style="stroke:#181818;stroke-width:1.0;" x1="314.5" x2="314.5" y1="538.4609" y2="551.4609"/><line style="stroke:#181818;stroke-width:1.0;" x1="273.5" x2="314.5" y1="551.4609" y2="551.4609"/><polygon fill="#181818" points="283.5,547.4609,273.5,551.4609,283.5,555.4609,279.5,551.4609" style="stroke:#181818;stroke-width:1.0;"/><text fill="#000000" font-family="sans-serif" font-size="13" lengthAdjust="spacing" textLength="130" x="279.5" y="533.6045">Etablissement du chat</text><polygon fill="#181818" points="260.5,577.8125,270.5,581.8125,260.5,585.8125,264.5,581.8125" style="stroke:#181818;stroke-width:1.0;"/><line style="stroke:#181818;stroke-width:1.0;" x1="46.5" x2="266.5" y1="581.8125" y2="581.8125"/><text fill="#000000" font-family="sans-serif" font-size="13" lengthAdjust="spacing" textLength="88" x="53.5" y="576.9561">Envoi message</text><polygon fill="#181818" points="57.5,608.1641,47.5,612.1641,57.5,616.1641,53.5,612.1641" style="stroke:#181818;stroke-width:1.0;"/><line style="stroke:#181818;stroke-width:1.0;" x1="51.5" x2="271.5" y1="612.1641" y2="612.1641"/><text fill="#000000" font-family="sans-serif" font-size="13" lengthAdjust="spacing" textLength="148" x="63.5" y="607.3076">Envoi d'un autre message</text><path d="M20,627.1641 L81,627.1641 L81,635.5156 L71,645.5156 L20,645.5156 L20,627.1641 " fill="#EEEEEE" style="stroke:#000000;stroke-width:1.5;"/><rect fill="none" height="342" style="stroke:#000000;stroke-width:1.5;" width="818.5" x="20" y="627.1641"/><text fill="#000000" font-family="sans-serif" font-size="13" font-weight="bold" lengthAdjust="spacing" textLength="16" x="35" y="641.6592">alt</text><text fill="#000000" font-family="sans-serif" font-size="11" font-weight="bold" lengthAdjust="spacing" textLength="222" x="96" y="640.583">[Conversation termin&#233;e par commande]</text><polygon fill="#181818" points="260.5,663.8672,270.5,667.8672,260.5,671.8672,264.5,667.8672" style="stroke:#181818;stroke-width:1.0;"/><line style="stroke:#181818;stroke-width:1.0;" x1="46.5" x2="266.5" y1="667.8672" y2="667.8672"/><text fill="#000000" font-family="sans-serif" font-size="13" lengthAdjust="spacing" textLength="156" x="53.5" y="663.0107">Annonce fermeture du chat</text><polygon fill="#181818" points="608.5,694.2188,618.5,698.2188,608.5,702.2188,612.5,698.2188" style="stroke:#181818;stroke-width:1.0;"/><line style="stroke:#181818;stroke-width:1.0;" x1="46.5" x2="614.5" y1="698.2188" y2="698.2188"/><text fill="#000000" font-family="sans-serif" font-size="13" lengthAdjust="spacing" textLength="91" x="53.5" y="693.3623">Annonce d&#233;part</text><line style="stroke:#181818;stroke-width:1.0;" x1="620.5" x2="662.5" y1="728.5703" y2="728.5703"/><line style="stroke:#181818;stroke-width:1.0;" x1="662.5" x2="662.5" y1="728.5703" y2="741.5703"/><line style="stroke:#181818;stroke-width:1.0;" x1="621.5" x2="662.5" y1="741.5703" y2="741.5703"/><polygon fill="#181818" points="631.5,737.5703,621.5,741.5703,631.5,745.5703,627.5,741.5703" style="stroke:#181818;stroke-width:1.0;"/><text fill="#000000" font-family="sans-serif" font-size="13" lengthAdjust="spacing" textLength="199" x="627.5" y="723.7139">Mise &#224; jour des utilisateurs r&#233;seau</text><line style="stroke:#181818;stroke-width:1.0;" x1="46.5" x2="88.5" y1="771.9219" y2="771.9219"/><line style="stroke:#181818;stroke-width:1.0;" x1="88.5" x2="88.5" y1="771.9219" y2="784.9219"/><line style="stroke:#181818;stroke-width:1.0;" x1="47.5" x2="88.5" y1="784.9219" y2="784.9219"/><polygon fill="#181818" points="57.5,780.9219,47.5,784.9219,57.5,788.9219,53.5,784.9219" style="stroke:#181818;stroke-width:1.0;"/><text fill="#000000" font-family="sans-serif" font-size="13" lengthAdjust="spacing" textLength="106" x="53.5" y="767.0654">Fermeture du chat</text><line style="stroke:#181818;stroke-width:1.0;" x1="272.5" x2="314.5" y1="815.2734" y2="815.2734"/><line style="stroke:#181818;stroke-width:1.0;" x1="314.5" x2="314.5" y1="815.2734" y2="828.2734"/><line style="stroke:#181818;stroke-width:1.0;" x1="273.5" x2="314.5" y1="828.2734" y2="828.2734"/><polygon fill="#181818" points="283.5,824.2734,273.5,828.2734,283.5,832.2734,279.5,828.2734" style="stroke:#181818;stroke-width:1.0;"/><text fill="#000000" font-family="sans-serif" font-size="13" lengthAdjust="spacing" textLength="106" x="279.5" y="810.417">Fermeture du chat</text><line style="stroke:#000000;stroke-width:1.0;stroke-dasharray:2.0,2.0;" x1="20" x2="838.5" y1="837.2734" y2="837.2734"/><text fill="#000000" font-family="sans-serif" font-size="11" font-weight="bold" lengthAdjust="spacing" textLength="287" x="25" y="848.6924">[Conversation termin&#233;e par d&#233;connexion impr&#233;vue]</text><line style="stroke:#181818;stroke-width:1.0;" x1="46.5" x2="88.5" y1="874.4609" y2="874.4609"/><line style="stroke:#181818;stroke-width:1.0;" x1="88.5" x2="88.5" y1="874.4609" y2="887.4609"/><line style="stroke:#181818;stroke-width:1.0;" x1="47.5" x2="88.5" y1="887.4609" y2="887.4609"/><polygon fill="#181818" points="57.5,883.4609,47.5,887.4609,57.5,891.4609,53.5,887.4609" style="stroke:#181818;stroke-width:1.0;"/><text fill="#000000" font-family="sans-serif" font-size="13" lengthAdjust="spacing" textLength="106" x="53.5" y="869.6045">Fermeture du chat</text><polygon fill="#181818" points="57.5,913.8125,47.5,917.8125,57.5,921.8125,53.5,917.8125" style="stroke:#181818;stroke-width:1.0;"/><line style="stroke:#181818;stroke-width:1.0;" x1="51.5" x2="271.5" y1="917.8125" y2="917.8125"/><text fill="#000000" font-family="sans-serif" font-size="13" lengthAdjust="spacing" textLength="88" x="63.5" y="912.9561">Envoi message</text><line style="stroke:#181818;stroke-width:1.0;" x1="272.5" x2="314.5" y1="948.1641" y2="948.1641"/><line style="stroke:#181818;stroke-width:1.0;" x1="314.5" x2="314.5" y1="948.1641" y2="961.1641"/><line style="stroke:#181818;stroke-width:1.0;" x1="273.5" x2="314.5" y1="961.1641" y2="961.1641"/><polygon fill="#181818" points="283.5,957.1641,273.5,961.1641,283.5,965.1641,279.5,961.1641" style="stroke:#181818;stroke-width:1.0;"/><text fill="#000000" font-family="sans-serif" font-size="13" lengthAdjust="spacing" textLength="334" x="279.5" y="943.3076">Fermeture du chat (absence de confirmation de r&#233;c&#233;ption)</text><!--SRC=[dLDBQjn05Dph58_PE5cOe5bgOGXn0XamX90BzBJUJDheTSlz4VPjilKvvcAfxXufqJWn8K82wVsgNdKfcZWmRMwDEdebmjGp1Nv8R3Llcb7vQBGPbOsqaNP3Af2q5-5j3M_NuTvurj7vfvBrV3GX-gUcaVRwPlxgTanZsW-6IPmbrNiEWUdp5-9O8jO9ZIvvzDyxOv4diFMdvy0gDVEOtmRU6VIVVj1zRkevK8fcC455JZuiZPd3GgcZNTvQbCNgWoAKHtxP-mlj-aRQxgETdBce1zjGNeHbZrL8WmN4G32ji6NRpO2uDLBiAULrquGQqjzLRDGGwUlfUNGMAqNbUpFnExKFR05NnxGTVJF2BaNYnz5WJYFRoezsLqfh7YFFY7dD0tif4XO47Z3vzap4yo4545acxCunNjVLgQl2DHAqYGfdYfCKSCsx5pIKPnf_ILQEHLN85u8wSkquIqtz5GHIAS82SpuhzC7PYJqEoS0k4UiP2su4Aq9zAPGRmdK6U6-jWxEh435XsCnWBbfiCPVsE0COknJyj-CM2cttwS_GLPsNoIB-Ark2ddRMycDE6Hc1E2N-Hy3sGl7NcD2ROZvTFUlimNYfXFhoIsheb3_VDcpx_Fm4]--></g></svg>