<svg xmlns="http://www.w3.org/2000/svg" xmlns:xlink="http://www.w3.org/1999/xlink" contentStyleType="text/css" height="764px" preserveAspectRatio="none" style="width:733px;height:764px;background:#FFFFFF;" version="1.1" viewBox="0 0 733 764" width="733px" zoomAndPan="magnify"><defs/><g><text fill="#000000" font-family="sans-serif" font-size="14" font-weight="bold" lengthAdjust="spacing" textLength="196" x="267.5" y="27.9951">Diagramme de sequence</text><rect fill="none" height="505.4688" style="stroke:#000000;stroke-width:1.5;" width="695" x="10" y="207.125"/><rect fill="none" height="258.7344" style="stroke:#000000;stroke-width:1.5;" width="675" x="20" y="446.8594"/><line style="stroke:#181818;stroke-width:0.5;stroke-dasharray:5.0,5.0;" x1="48" x2="48" y1="73.5938" y2="729.5938"/><line style="stroke:#181818;stroke-width:0.5;stroke-dasharray:5.0,5.0;" x1="301" x2="301" y1="73.5938" y2="729.5938"/><line style="stroke:#181818;stroke-width:0.5;stroke-dasharray:5.0,5.0;" x1="690" x2="690" y1="73.5938" y2="729.5938"/><rect fill="#E2E2F0" height="30.2969" rx="2.5" ry="2.5" style="stroke:#181818;stroke-width:0.5;" width="36" x="30" y="42.2969"/><text fill="#000000" font-family="sans-serif" font-size="14" lengthAdjust="spacing" textLength="22" x="37" y="62.292">m1</text><rect fill="#E2E2F0" height="30.2969" rx="2.5" ry="2.5" style="stroke:#181818;stroke-width:0.5;" width="36" x="30" y="728.5938"/><text fill="#000000" font-family="sans-serif" font-size="14" lengthAdjust="spacing" textLength="22" x="37" y="748.5889">m1</text><rect fill="#E2E2F0" height="30.2969" rx="2.5" ry="2.5" style="stroke:#181818;stroke-width:0.5;" width="36" x="283" y="42.2969"/><text fill="#000000" font-family="sans-serif" font-size="14" lengthAdjust="spacing" textLength="22" x="290" y="62.292">m2</text><rect fill="#E2E2F0" height="30.2969" rx="2.5" ry="2.5" style="stroke:#181818;stroke-width:0.5;" width="36" x="283" y="728.5938"/><text fill="#000000" font-family="sans-serif" font-size="14" lengthAdjust="spacing" textLength="22" x="290" y="748.5889">m2</text><rect fill="#E2E2F0" height="30.2969" rx="2.5" ry="2.5" style="stroke:#181818;stroke-width:0.5;" width="74" x="653" y="42.2969"/><text fill="#000000" font-family="sans-serif" font-size="14" lengthAdjust="spacing" textLength="60" x="660" y="62.292">directory</text><rect fill="#E2E2F0" height="30.2969" rx="2.5" ry="2.5" style="stroke:#181818;stroke-width:0.5;" width="74" x="653" y="728.5938"/><text fill="#000000" font-family="sans-serif" font-size="14" lengthAdjust="spacing" textLength="60" x="660" y="748.5889">directory</text><polygon fill="#181818" points="678,100.7266,688,104.7266,678,108.7266,682,104.7266" style="stroke:#181818;stroke-width:1.0;"/><line style="stroke:#181818;stroke-width:1.0;" x1="48" x2="684" y1="104.7266" y2="104.7266"/><text fill="#000000" font-family="sans-serif" font-size="13" lengthAdjust="spacing" textLength="395" x="55" y="99.6606">Je publie mon adresse IP et mon nom pour rejoindre le réseau</text><polygon fill="#181818" points="678,129.8594,688,133.8594,678,137.8594,682,133.8594" style="stroke:#181818;stroke-width:1.0;"/><line style="stroke:#181818;stroke-width:1.0;" x1="48" x2="684" y1="133.8594" y2="133.8594"/><text fill="#000000" font-family="sans-serif" font-size="13" lengthAdjust="spacing" textLength="222" x="55" y="128.7935">Je demande la liste des utilisateurs</text><polygon fill="#181818" points="59,158.9922,49,162.9922,59,166.9922,55,162.9922" style="stroke:#181818;stroke-width:1.0;"/><line style="stroke:#181818;stroke-width:1.0;stroke-dasharray:2.0,2.0;" x1="53" x2="689" y1="162.9922" y2="162.9922"/><text fill="#000000" font-family="sans-serif" font-size="13" lengthAdjust="spacing" textLength="375" x="65" y="157.9263">Envoie la liste des noms des membres courants du réseau</text><polygon fill="#181818" points="289,188.125,299,192.125,289,196.125,293,192.125" style="stroke:#181818;stroke-width:1.0;"/><line style="stroke:#181818;stroke-width:1.0;" x1="48" x2="295" y1="192.125" y2="192.125"/><text fill="#000000" font-family="sans-serif" font-size="13" lengthAdjust="spacing" textLength="229" x="55" y="187.0591">demande de créer un nouveau chat</text><path d="M10,207.125 L74,207.125 L74,214.2578 L64,224.2578 L10,224.2578 L10,207.125 " fill="#EEEEEE" style="stroke:#000000;stroke-width:1.5;"/><rect fill="none" height="505.4688" style="stroke:#000000;stroke-width:1.5;" width="695" x="10" y="207.125"/><text fill="#000000" font-family="sans-serif" font-size="13" font-weight="bold" lengthAdjust="spacing" textLength="19" x="25" y="220.1919">alt</text><text fill="#000000" font-family="sans-serif" font-size="11" font-weight="bold" lengthAdjust="spacing" textLength="123" x="89" y="219.3354">[Demande refusée]</text><polygon fill="#181818" points="59,241.3906,49,245.3906,59,249.3906,55,245.3906" style="stroke:#181818;stroke-width:1.0;"/><line style="stroke:#181818;stroke-width:1.0;stroke-dasharray:2.0,2.0;" x1="53" x2="300" y1="245.3906" y2="245.3906"/><text fill="#000000" font-family="sans-serif" font-size="13" lengthAdjust="spacing" textLength="55" x="65" y="240.3247">Je refuse</text><line style="stroke:#000000;stroke-width:1.0;stroke-dasharray:2.0,2.0;" x1="10" x2="705" y1="254.3906" y2="254.3906"/><text fill="#000000" font-family="sans-serif" font-size="11" font-weight="bold" lengthAdjust="spacing" textLength="133" x="15" y="264.6011">[Demande acceptée]</text><polygon fill="#181818" points="59,285.3281,49,289.3281,59,293.3281,55,289.3281" style="stroke:#181818;stroke-width:1.0;"/><line style="stroke:#181818;stroke-width:1.0;stroke-dasharray:2.0,2.0;" x1="53" x2="300" y1="289.3281" y2="289.3281"/><text fill="#000000" font-family="sans-serif" font-size="13" lengthAdjust="spacing" textLength="57" x="65" y="284.2622">J'accepte</text><line style="stroke:#181818;stroke-width:1.0;" x1="48" x2="90" y1="318.4609" y2="318.4609"/><line style="stroke:#181818;stroke-width:1.0;" x1="90" x2="90" y1="318.4609" y2="331.4609"/><line style="stroke:#181818;stroke-width:1.0;" x1="49" x2="90" y1="331.4609" y2="331.4609"/><polygon fill="#181818" points="59,327.4609,49,331.4609,59,335.4609,55,331.4609" style="stroke:#181818;stroke-width:1.0;"/><text fill="#000000" font-family="sans-serif" font-size="13" lengthAdjust="spacing" textLength="143" x="55" y="313.395">Etablissement du chat</text><line style="stroke:#181818;stroke-width:1.0;" x1="301" x2="343" y1="360.5938" y2="360.5938"/><line style="stroke:#181818;stroke-width:1.0;" x1="343" x2="343" y1="360.5938" y2="373.5938"/><line style="stroke:#181818;stroke-width:1.0;" x1="302" x2="343" y1="373.5938" y2="373.5938"/><polygon fill="#181818" points="312,369.5938,302,373.5938,312,377.5938,308,373.5938" style="stroke:#181818;stroke-width:1.0;"/><text fill="#000000" font-family="sans-serif" font-size="13" lengthAdjust="spacing" textLength="143" x="308" y="355.5278">Etablissement du chat</text><polygon fill="#181818" points="289,398.7266,299,402.7266,289,406.7266,293,402.7266" style="stroke:#181818;stroke-width:1.0;"/><line style="stroke:#181818;stroke-width:1.0;" x1="48" x2="295" y1="402.7266" y2="402.7266"/><text fill="#000000" font-family="sans-serif" font-size="13" lengthAdjust="spacing" textLength="97" x="55" y="397.6606">Envoi message</text><polygon fill="#181818" points="59,427.8594,49,431.8594,59,435.8594,55,431.8594" style="stroke:#181818;stroke-width:1.0;"/><line style="stroke:#181818;stroke-width:1.0;" x1="53" x2="300" y1="431.8594" y2="431.8594"/><text fill="#000000" font-family="sans-serif" font-size="13" lengthAdjust="spacing" textLength="166" x="65" y="426.7935">Envoi d'un autre message</text><path d="M20,446.8594 L84,446.8594 L84,453.9922 L74,463.9922 L20,463.9922 L20,446.8594 " fill="#EEEEEE" style="stroke:#000000;stroke-width:1.5;"/><rect fill="none" height="258.7344" style="stroke:#000000;stroke-width:1.5;" width="675" x="20" y="446.8594"/><text fill="#000000" font-family="sans-serif" font-size="13" font-weight="bold" lengthAdjust="spacing" textLength="19" x="35" y="459.9263">alt</text><text fill="#000000" font-family="sans-serif" font-size="11" font-weight="bold" lengthAdjust="spacing" textLength="254" x="99" y="459.0698">[Conversation terminée par commande]</text><polygon fill="#181818" points="289,481.125,299,485.125,289,489.125,293,485.125" style="stroke:#181818;stroke-width:1.0;"/><line style="stroke:#181818;stroke-width:1.0;" x1="48" x2="295" y1="485.125" y2="485.125"/><text fill="#000000" font-family="sans-serif" font-size="13" lengthAdjust="spacing" textLength="176" x="55" y="480.0591">Annonce fermeture du chat</text><line style="stroke:#181818;stroke-width:1.0;" x1="48" x2="90" y1="514.2578" y2="514.2578"/><line style="stroke:#181818;stroke-width:1.0;" x1="90" x2="90" y1="514.2578" y2="527.2578"/><line style="stroke:#181818;stroke-width:1.0;" x1="49" x2="90" y1="527.2578" y2="527.2578"/><polygon fill="#181818" points="59,523.2578,49,527.2578,59,531.2578,55,527.2578" style="stroke:#181818;stroke-width:1.0;"/><text fill="#000000" font-family="sans-serif" font-size="13" lengthAdjust="spacing" textLength="119" x="55" y="509.1919">Fermeture du chat</text><line style="stroke:#181818;stroke-width:1.0;" x1="301" x2="343" y1="556.3906" y2="556.3906"/><line style="stroke:#181818;stroke-width:1.0;" x1="343" x2="343" y1="556.3906" y2="569.3906"/><line style="stroke:#181818;stroke-width:1.0;" x1="302" x2="343" y1="569.3906" y2="569.3906"/><polygon fill="#181818" points="312,565.3906,302,569.3906,312,573.3906,308,569.3906" style="stroke:#181818;stroke-width:1.0;"/><text fill="#000000" font-family="sans-serif" font-size="13" lengthAdjust="spacing" textLength="119" x="308" y="551.3247">Fermeture du chat</text><line style="stroke:#000000;stroke-width:1.0;stroke-dasharray:2.0,2.0;" x1="20" x2="695" y1="578.3906" y2="578.3906"/><text fill="#000000" font-family="sans-serif" font-size="11" font-weight="bold" lengthAdjust="spacing" textLength="330" x="25" y="588.6011">[Conversation terminée par déconnexion imprévue]</text><line style="stroke:#181818;stroke-width:1.0;" x1="48" x2="90" y1="613.3281" y2="613.3281"/><line style="stroke:#181818;stroke-width:1.0;" x1="90" x2="90" y1="613.3281" y2="626.3281"/><line style="stroke:#181818;stroke-width:1.0;" x1="49" x2="90" y1="626.3281" y2="626.3281"/><polygon fill="#181818" points="59,622.3281,49,626.3281,59,630.3281,55,626.3281" style="stroke:#181818;stroke-width:1.0;"/><text fill="#000000" font-family="sans-serif" font-size="13" lengthAdjust="spacing" textLength="119" x="55" y="608.2622">Fermeture du chat</text><polygon fill="#181818" points="59,651.4609,49,655.4609,59,659.4609,55,655.4609" style="stroke:#181818;stroke-width:1.0;"/><line style="stroke:#181818;stroke-width:1.0;" x1="53" x2="300" y1="655.4609" y2="655.4609"/><text fill="#000000" font-family="sans-serif" font-size="13" lengthAdjust="spacing" textLength="97" x="65" y="650.395">Envoi message</text><line style="stroke:#181818;stroke-width:1.0;" x1="301" x2="343" y1="684.5938" y2="684.5938"/><line style="stroke:#181818;stroke-width:1.0;" x1="343" x2="343" y1="684.5938" y2="697.5938"/><line style="stroke:#181818;stroke-width:1.0;" x1="302" x2="343" y1="697.5938" y2="697.5938"/><polygon fill="#181818" points="312,693.5938,302,697.5938,312,701.5938,308,697.5938" style="stroke:#181818;stroke-width:1.0;"/><text fill="#000000" font-family="sans-serif" font-size="13" lengthAdjust="spacing" textLength="375" x="308" y="679.5278">Fermeture du chat (absence de confirmation de récéption)</text><!--SRC=[ZPDDRjim48NtFCN0cwGBB-Ib5W6AfW7gLQymfiOk2msfyiTeZkHp-69vfAG0TjkWXWo8RvuutpnAsULHQFFi-1HPLMWGIlAhYBUoCHF7xAoRs6VQQBSXJgJTdRoRvTsjFBWeDeVusgfHJYxb-6gCTjkdTTNlXQPo69sG1ayyH4b9wDjtajmK7vIcK2AU_ncSHvr06w-N95pQLkyxzxIlyCeU4unC8zGg92hPOS5PIanaLlzs-wHT_zMVWxlpesbgDofw015P460cYEMcj-xwjI4kYv94AfMwdE4X-uEpuJ7Jy-AASYm9BgExkVr-qSJ8YC5N7rihKxunFioQp8q1dXcv8IqLf3qipM2lLFyepiXjPCoM4fzaVcB9WOO7q7F9Y7cjL_mlmPyb8a678yaIrNcm4OuRqMX3DeJVqk2pzm5l3ntXb5omsKhmRkhwbxyNP_u_YosU3pY6wyK6x-LtBJcTS1Rd8l_PiBlBv2CIUkH3gXz7E_BWZoxg33Iq5zDUBrDTVZBYX_f_0m00]--></g></svg>