<?xml version="1.0" encoding="us-ascii" standalone="no"?><svg xmlns="http://www.w3.org/2000/svg" xmlns:xlink="http://www.w3.org/1999/xlink" contentStyleType="text/css" height="999px" preserveAspectRatio="none" style="width:957px;height:999px;background:#FFFFFF;" version="1.1" viewBox="0 0 957 999" width="957px" zoomAndPan="magnify"><defs/><g><text fill="#000000" font-family="sans-serif" font-size="14" font-weight="bold" lengthAdjust="spacing" textLength="174" x="391.25" y="29.5332">Diagramme de sequence</text><rect fill="none" height="687.8359" style="stroke:#000000;stroke-width:1.5;" width="887.5" x="10" y="257.9766"/><rect fill="none" height="342" style="stroke:#000000;stroke-width:1.5;" width="867.5" x="20" y="596.8125"/><line style="stroke:#181818;stroke-width:0.5;stroke-dasharray:5.0,5.0;" x1="46" x2="46" y1="76.2188" y2="962.8125"/><line style="stroke:#181818;stroke-width:0.5;stroke-dasharray:5.0,5.0;" x1="272" x2="272" y1="76.2188" y2="962.8125"/><line style="stroke:#181818;stroke-width:0.5;stroke-dasharray:5.0,5.0;" x1="620" x2="620" y1="76.2188" y2="962.8125"/><rect fill="#E2E2F0" height="31.6094" rx="2.5" ry="2.5" style="stroke:#181818;stroke-width:0.5;" width="33" x="30" y="43.6094"/><text fill="#000000" font-family="sans-serif" font-size="14" lengthAdjust="spacing" textLength="19" x="37" y="65.1426">m1</text><rect fill="#E2E2F0" height="31.6094" rx="2.5" ry="2.5" style="stroke:#181818;stroke-width:0.5;" width="33" x="30" y="961.8125"/><text fill="#000000" font-family="sans-serif" font-size="14" lengthAdjust="spacing" textLength="19" x="37" y="983.3457">m1</text><rect fill="#E2E2F0" height="31.6094" rx="2.5" ry="2.5" style="stroke:#181818;stroke-width:0.5;" width="33" x="256" y="43.6094"/><text fill="#000000" font-family="sans-serif" font-size="14" lengthAdjust="spacing" textLength="19" x="263" y="65.1426">m2</text><rect fill="#E2E2F0" height="31.6094" rx="2.5" ry="2.5" style="stroke:#181818;stroke-width:0.5;" width="33" x="256" y="961.8125"/><text fill="#000000" font-family="sans-serif" font-size="14" lengthAdjust="spacing" textLength="19" x="263" y="983.3457">m2</text><rect fill="#E2E2F0" height="31.6094" rx="2.5" ry="2.5" style="stroke:#181818;stroke-width:0.5;" width="69" x="586" y="43.6094"/><text fill="#000000" font-family="sans-serif" font-size="14" lengthAdjust="spacing" textLength="55" x="593" y="65.1426">directory</text><rect fill="#E2E2F0" height="31.6094" rx="2.5" ry="2.5" style="stroke:#181818;stroke-width:0.5;" width="69" x="586" y="961.8125"/><text fill="#000000" font-family="sans-serif" font-size="14" lengthAdjust="spacing" textLength="55" x="593" y="983.3457">directory</text><polygon fill="#181818" points="608.5,104.5703,618.5,108.5703,608.5,112.5703,612.5,108.5703" style="stroke:#181818;stroke-width:1.0;"/><line style="stroke:#181818;stroke-width:1.0;" x1="46.5" x2="614.5" y1="108.5703" y2="108.5703"/><text fill="#000000" font-family="sans-serif" font-size="13" lengthAdjust="spacing" textLength="248" x="53.5" y="103.7139">Je publie mon nom pour rejoindre le r&#233;seau</text><line style="stroke:#181818;stroke-width:1.0;" x1="620.5" x2="662.5" y1="138.9219" y2="138.9219"/><line style="stroke:#181818;stroke-width:1.0;" x1="662.5" x2="662.5" y1="138.9219" y2="151.9219"/><line style="stroke:#181818;stroke-width:1.0;" x1="621.5" x2="662.5" y1="151.9219" y2="151.9219"/><polygon fill="#181818" points="631.5,147.9219,621.5,151.9219,631.5,155.9219,627.5,151.9219" style="stroke:#181818;stroke-width:1.0;"/><text fill="#000000" font-family="sans-serif" font-size="13" lengthAdjust="spacing" textLength="323" x="627.5" y="134.0654">Entre le nom et l'adresse IP dans les utilisateurs r&#233;seau</text><polygon fill="#181818" points="608.5,178.2734,618.5,182.2734,608.5,186.2734,612.5,182.2734" style="stroke:#181818;stroke-width:1.0;"/><line style="stroke:#181818;stroke-width:1.0;" x1="46.5" x2="614.5" y1="182.2734" y2="182.2734"/><text fill="#000000" font-family="sans-serif" font-size="13" lengthAdjust="spacing" textLength="204" x="53.5" y="177.417">Je demande la liste des utilisateurs</text><polygon fill="#181818" points="57.5,208.625,47.5,212.625,57.5,216.625,53.5,212.625" style="stroke:#181818;stroke-width:1.0;"/><line style="stroke:#181818;stroke-width:1.0;stroke-dasharray:2.0,2.0;" x1="51.5" x2="619.5" y1="212.625" y2="212.625"/><text fill="#000000" font-family="sans-serif" font-size="13" lengthAdjust="spacing" textLength="339" x="63.5" y="207.7686">Envoie la liste des noms des membres courants du r&#233;seau</text><polygon fill="#181818" points="260.5,238.9766,270.5,242.9766,260.5,246.9766,264.5,242.9766" style="stroke:#181818;stroke-width:1.0;"/><line style="stroke:#181818;stroke-width:1.0;" x1="46.5" x2="266.5" y1="242.9766" y2="242.9766"/><text fill="#000000" font-family="sans-serif" font-size="13" lengthAdjust="spacing" textLength="202" x="53.5" y="238.1201">demande de cr&#233;er un nouveau chat</text><path d="M10,257.9766 L71,257.9766 L71,266.3281 L61,276.3281 L10,276.3281 L10,257.9766 " fill="#EEEEEE" style="stroke:#000000;stroke-width:1.5;"/><rect fill="none" height="687.8359" style="stroke:#000000;stroke-width:1.5;" width="887.5" x="10" y="257.9766"/><text fill="#000000" font-family="sans-serif" font-size="13" font-weight="bold" lengthAdjust="spacing" textLength="16" x="25" y="272.4717">alt</text><text fill="#000000" font-family="sans-serif" font-size="11" font-weight="bold" lengthAdjust="spacing" textLength="146" x="86" y="271.3955">[R&#233;ponse tardive/absente]</text><line style="stroke:#181818;stroke-width:1.0;" x1="272.5" x2="314.5" y1="298.6797" y2="298.6797"/><line style="stroke:#181818;stroke-width:1.0;" x1="314.5" x2="314.5" y1="298.6797" y2="311.6797"/><line style="stroke:#181818;stroke-width:1.0;" x1="273.5" x2="314.5" y1="311.6797" y2="311.6797"/><polygon fill="#181818" points="283.5,307.6797,273.5,311.6797,283.5,315.6797,279.5,311.6797" style="stroke:#181818;stroke-width:1.0;"/><text fill="#000000" font-family="sans-serif" font-size="13" lengthAdjust="spacing" textLength="85" x="279.5" y="293.8232">Timeout expir&#233;</text><polygon fill="#181818" points="57.5,338.0313,47.5,342.0313,57.5,346.0313,53.5,342.0313" style="stroke:#181818;stroke-width:1.0;"/><line style="stroke:#181818;stroke-width:1.0;stroke-dasharray:2.0,2.0;" x1="51.5" x2="271.5" y1="342.0313" y2="342.0313"/><text fill="#000000" font-family="sans-serif" font-size="13" lengthAdjust="spacing" textLength="52" x="63.5" y="337.1748">Je refuse</text><line style="stroke:#000000;stroke-width:1.0;stroke-dasharray:2.0,2.0;" x1="10" x2="897.5" y1="351.0313" y2="351.0313"/><text fill="#000000" font-family="sans-serif" font-size="11" font-weight="bold" lengthAdjust="spacing" textLength="107" x="15" y="362.4502">[Demande refus&#233;e]</text><polygon fill="#181818" points="57.5,384.2188,47.5,388.2188,57.5,392.2188,53.5,388.2188" style="stroke:#181818;stroke-width:1.0;"/><line style="stroke:#181818;stroke-width:1.0;stroke-dasharray:2.0,2.0;" x1="51.5" x2="271.5" y1="388.2188" y2="388.2188"/><text fill="#000000" font-family="sans-serif" font-size="13" lengthAdjust="spacing" textLength="52" x="63.5" y="383.3623">Je refuse</text><line style="stroke:#000000;stroke-width:1.0;stroke-dasharray:2.0,2.0;" x1="10" x2="897.5" y1="397.2188" y2="397.2188"/><text fill="#000000" font-family="sans-serif" font-size="11" font-weight="bold" lengthAdjust="spacing" textLength="113" x="15" y="408.6377">[Demande accept&#233;e]</text><polygon fill="#181818" points="57.5,430.4063,47.5,434.4063,57.5,438.4063,53.5,434.4063" style="stroke:#181818;stroke-width:1.0;"/><line style="stroke:#181818;stroke-width:1.0;stroke-dasharray:2.0,2.0;" x1="51.5" x2="271.5" y1="434.4063" y2="434.4063"/><text fill="#000000" font-family="sans-serif" font-size="13" lengthAdjust="spacing" textLength="54" x="63.5" y="429.5498">J'accepte</text><line style="stroke:#181818;stroke-width:1.0;" x1="46.5" x2="88.5" y1="464.7578" y2="464.7578"/><line style="stroke:#181818;stroke-width:1.0;" x1="88.5" x2="88.5" y1="464.7578" y2="477.7578"/><line style="stroke:#181818;stroke-width:1.0;" x1="47.5" x2="88.5" y1="477.7578" y2="477.7578"/><polygon fill="#181818" points="57.5,473.7578,47.5,477.7578,57.5,481.7578,53.5,477.7578" style="stroke:#181818;stroke-width:1.0;"/><text fill="#000000" font-family="sans-serif" font-size="13" lengthAdjust="spacing" textLength="130" x="53.5" y="459.9014">Etablissement du chat</text><line style="stroke:#181818;stroke-width:1.0;" x1="272.5" x2="314.5" y1="508.1094" y2="508.1094"/><line style="stroke:#181818;stroke-width:1.0;" x1="314.5" x2="314.5" y1="508.1094" y2="521.1094"/><line style="stroke:#181818;stroke-width:1.0;" x1="273.5" x2="314.5" y1="521.1094" y2="521.1094"/><polygon fill="#181818" points="283.5,517.1094,273.5,521.1094,283.5,525.1094,279.5,521.1094" style="stroke:#181818;stroke-width:1.0;"/><text fill="#000000" font-family="sans-serif" font-size="13" lengthAdjust="spacing" textLength="130" x="279.5" y="503.2529">Etablissement du chat</text><polygon fill="#181818" points="260.5,547.4609,270.5,551.4609,260.5,555.4609,264.5,551.4609" style="stroke:#181818;stroke-width:1.0;"/><line style="stroke:#181818;stroke-width:1.0;" x1="46.5" x2="266.5" y1="551.4609" y2="551.4609"/><text fill="#000000" font-family="sans-serif" font-size="13" lengthAdjust="spacing" textLength="88" x="53.5" y="546.6045">Envoi message</text><polygon fill="#181818" points="57.5,577.8125,47.5,581.8125,57.5,585.8125,53.5,581.8125" style="stroke:#181818;stroke-width:1.0;"/><line style="stroke:#181818;stroke-width:1.0;" x1="51.5" x2="271.5" y1="581.8125" y2="581.8125"/><text fill="#000000" font-family="sans-serif" font-size="13" lengthAdjust="spacing" textLength="148" x="63.5" y="576.9561">Envoi d'un autre message</text><path d="M20,596.8125 L81,596.8125 L81,605.1641 L71,615.1641 L20,615.1641 L20,596.8125 " fill="#EEEEEE" style="stroke:#000000;stroke-width:1.5;"/><rect fill="none" height="342" style="stroke:#000000;stroke-width:1.5;" width="867.5" x="20" y="596.8125"/><text fill="#000000" font-family="sans-serif" font-size="13" font-weight="bold" lengthAdjust="spacing" textLength="16" x="35" y="611.3076">alt</text><text fill="#000000" font-family="sans-serif" font-size="11" font-weight="bold" lengthAdjust="spacing" textLength="222" x="96" y="610.2314">[Conversation termin&#233;e par commande]</text><polygon fill="#181818" points="260.5,633.5156,270.5,637.5156,260.5,641.5156,264.5,637.5156" style="stroke:#181818;stroke-width:1.0;"/><line style="stroke:#181818;stroke-width:1.0;" x1="46.5" x2="266.5" y1="637.5156" y2="637.5156"/><text fill="#000000" font-family="sans-serif" font-size="13" lengthAdjust="spacing" textLength="156" x="53.5" y="632.6592">Annonce fermeture du chat</text><polygon fill="#181818" points="608.5,663.8672,618.5,667.8672,608.5,671.8672,612.5,667.8672" style="stroke:#181818;stroke-width:1.0;"/><line style="stroke:#181818;stroke-width:1.0;" x1="46.5" x2="614.5" y1="667.8672" y2="667.8672"/><text fill="#000000" font-family="sans-serif" font-size="13" lengthAdjust="spacing" textLength="91" x="53.5" y="663.0107">Annonce d&#233;part</text><line style="stroke:#181818;stroke-width:1.0;" x1="620.5" x2="662.5" y1="698.2188" y2="698.2188"/><line style="stroke:#181818;stroke-width:1.0;" x1="662.5" x2="662.5" y1="698.2188" y2="711.2188"/><line style="stroke:#181818;stroke-width:1.0;" x1="621.5" x2="662.5" y1="711.2188" y2="711.2188"/><polygon fill="#181818" points="631.5,707.2188,621.5,711.2188,631.5,715.2188,627.5,711.2188" style="stroke:#181818;stroke-width:1.0;"/><text fill="#000000" font-family="sans-serif" font-size="13" lengthAdjust="spacing" textLength="248" x="627.5" y="693.3623">Retire le nom et l'IP des utilisateurs r&#233;seau</text><line style="stroke:#181818;stroke-width:1.0;" x1="46.5" x2="88.5" y1="741.5703" y2="741.5703"/><line style="stroke:#181818;stroke-width:1.0;" x1="88.5" x2="88.5" y1="741.5703" y2="754.5703"/><line style="stroke:#181818;stroke-width:1.0;" x1="47.5" x2="88.5" y1="754.5703" y2="754.5703"/><polygon fill="#181818" points="57.5,750.5703,47.5,754.5703,57.5,758.5703,53.5,754.5703" style="stroke:#181818;stroke-width:1.0;"/><text fill="#000000" font-family="sans-serif" font-size="13" lengthAdjust="spacing" textLength="106" x="53.5" y="736.7139">Fermeture du chat</text><line style="stroke:#181818;stroke-width:1.0;" x1="272.5" x2="314.5" y1="784.9219" y2="784.9219"/><line style="stroke:#181818;stroke-width:1.0;" x1="314.5" x2="314.5" y1="784.9219" y2="797.9219"/><line style="stroke:#181818;stroke-width:1.0;" x1="273.5" x2="314.5" y1="797.9219" y2="797.9219"/><polygon fill="#181818" points="283.5,793.9219,273.5,797.9219,283.5,801.9219,279.5,797.9219" style="stroke:#181818;stroke-width:1.0;"/><text fill="#000000" font-family="sans-serif" font-size="13" lengthAdjust="spacing" textLength="106" x="279.5" y="780.0654">Fermeture du chat</text><line style="stroke:#000000;stroke-width:1.0;stroke-dasharray:2.0,2.0;" x1="20" x2="887.5" y1="806.9219" y2="806.9219"/><text fill="#000000" font-family="sans-serif" font-size="11" font-weight="bold" lengthAdjust="spacing" textLength="287" x="25" y="818.3408">[Conversation termin&#233;e par d&#233;connexion impr&#233;vue]</text><line style="stroke:#181818;stroke-width:1.0;" x1="46.5" x2="88.5" y1="844.1094" y2="844.1094"/><line style="stroke:#181818;stroke-width:1.0;" x1="88.5" x2="88.5" y1="844.1094" y2="857.1094"/><line style="stroke:#181818;stroke-width:1.0;" x1="47.5" x2="88.5" y1="857.1094" y2="857.1094"/><polygon fill="#181818" points="57.5,853.1094,47.5,857.1094,57.5,861.1094,53.5,857.1094" style="stroke:#181818;stroke-width:1.0;"/><text fill="#000000" font-family="sans-serif" font-size="13" lengthAdjust="spacing" textLength="106" x="53.5" y="839.2529">Fermeture du chat</text><polygon fill="#181818" points="57.5,883.4609,47.5,887.4609,57.5,891.4609,53.5,887.4609" style="stroke:#181818;stroke-width:1.0;"/><line style="stroke:#181818;stroke-width:1.0;" x1="51.5" x2="271.5" y1="887.4609" y2="887.4609"/><text fill="#000000" font-family="sans-serif" font-size="13" lengthAdjust="spacing" textLength="88" x="63.5" y="882.6045">Envoi message</text><line style="stroke:#181818;stroke-width:1.0;" x1="272.5" x2="314.5" y1="917.8125" y2="917.8125"/><line style="stroke:#181818;stroke-width:1.0;" x1="314.5" x2="314.5" y1="917.8125" y2="930.8125"/><line style="stroke:#181818;stroke-width:1.0;" x1="273.5" x2="314.5" y1="930.8125" y2="930.8125"/><polygon fill="#181818" points="283.5,926.8125,273.5,930.8125,283.5,934.8125,279.5,930.8125" style="stroke:#181818;stroke-width:1.0;"/><text fill="#000000" font-family="sans-serif" font-size="13" lengthAdjust="spacing" textLength="334" x="279.5" y="912.9561">Fermeture du chat (absence de confirmation de r&#233;c&#233;ption)</text><!--SRC=[ZLD1Rjim4Bpp5GjVt1w2GZxw4A1eMg0v5K4_G9Dhbu58gkHII9wKT-HZ7LAMKgj9KCC6hDtPtTdPaJZfcJOtJf-Izfx9CcN-NJWOtgX19t763Je8RNot8Pt9TwlmRWhlBiFM9JOIqsFB9ZwvBEbHATzTNSzF-rkceHnwn-HZe10z3R4aeE-Z2pOnWLjwVigiYvgB_Yh_6cJ2r4eMwhSQHJapVVz1LeUCNAOYhdTP2vUKbswLni9gJxTrSQy3jkyr0IuriAfzeN1rxJjC7wDRuK4ajp-U_G5Ko60Vw85WkPZjT_jv8Bu6AKvKgWPb18RCBorAzq9tpqz335X9TB9kv4_wa3bWdFAxreP-Ei-n2F73uD2dnXk_kbJYOyci5FVeS7CUs88Ok21VW1SuRGmFSW7SJZ6UTe06ed4-AEx1gUxOU9-PlP6Sjc_gGQQSzOcdYhEaPBSGGfTwspbVbVWImyW9nt3mYd3oBe0RmNLGsJVAYl0v3_WSGeI9wGWaIq6pcS4CMiu_GosqXeSRu1MxtR6ubT-gpzwosCAbstzxdSCaqx_9TeLtrWLF4qFWXvfoVi34iV1_3knMqh_7X3uqjvd9f34SNV8J8TjUJ0F1wkD7nS7Mtny0]--></g></svg>