<?plantuml 1.2026.1?><svg xmlns="http://www.w3.org/2000/svg" xmlns:xlink="http://www.w3.org/1999/xlink" contentStyleType="text/css" data-diagram-type="SEQUENCE" height="880px" preserveAspectRatio="none" style="width:784px;height:880px;background:#FFFFFF;" version="1.1" viewBox="0 0 784 880" width="784px" zoomAndPan="magnify"><title>Diagramme de sequence</title><defs/><g><text fill="#000000" font-family="sans-serif" font-size="14" font-weight="bold" lengthAdjust="spacing" textLength="195.248" x="293.5798" y="27.9951">Diagramme de sequence</text><rect fill="none" height="620.6719" style="stroke:#000000;stroke-width:1.5;" width="749.4229" x="10" y="207.125"/><rect fill="none" height="258.7344" style="stroke:#000000;stroke-width:1.5;" width="729.4229" x="20" y="562.0625"/><g class="participant-lifeline" data-entity-uid="part1" data-qualified-name="m1" id="part1-lifeline"><g><title>m1</title><rect fill="#000000" fill-opacity="0.00000" height="771.2031" width="8" x="44.2725" y="73.5938"/><line style="stroke:#181818;stroke-width:0.5;stroke-dasharray:5,5;" x1="48" x2="48" y1="73.5938" y2="844.7969"/></g></g><g class="participant-lifeline" data-entity-uid="part2" data-qualified-name="m2" id="part2-lifeline"><g><title>m2</title><rect fill="#000000" fill-opacity="0.00000" height="771.2031" width="8" x="315.5391" y="73.5938"/><line style="stroke:#181818;stroke-width:0.5;stroke-dasharray:5,5;" x1="319.2666" x2="319.2666" y1="73.5938" y2="844.7969"/></g></g><g class="participant-lifeline" data-entity-uid="part3" data-qualified-name="registry" id="part3-lifeline"><g><title>registry</title><rect fill="#000000" fill-opacity="0.00000" height="771.2031" width="8" x="740.4229" y="73.5938"/><line style="stroke:#181818;stroke-width:0.5;stroke-dasharray:5,5;" x1="743.438" x2="743.438" y1="73.5938" y2="844.7969"/></g></g><g class="participant participant-head" data-entity-uid="part1" data-qualified-name="m1" id="part1-head"><rect fill="#E2E2F0" height="30.2969" rx="2.5" ry="2.5" style="stroke:#181818;stroke-width:0.5;" width="36.5449" x="30" y="42.2969"/><text fill="#000000" font-family="sans-serif" font-size="14" lengthAdjust="spacing" textLength="22.5449" x="37" y="62.292">m1</text></g><g class="participant participant-tail" data-entity-uid="part1" data-qualified-name="m1" id="part1-tail"><rect fill="#E2E2F0" height="30.2969" rx="2.5" ry="2.5" style="stroke:#181818;stroke-width:0.5;" width="36.5449" x="30" y="843.7969"/><text fill="#000000" font-family="sans-serif" font-size="14" lengthAdjust="spacing" textLength="22.5449" x="37" y="863.792">m1</text></g><g class="participant participant-head" data-entity-uid="part2" data-qualified-name="m2" id="part2-head"><rect fill="#E2E2F0" height="30.2969" rx="2.5" ry="2.5" style="stroke:#181818;stroke-width:0.5;" width="36.5449" x="301.2666" y="42.2969"/><text fill="#000000" font-family="sans-serif" font-size="14" lengthAdjust="spacing" textLength="22.5449" x="308.2666" y="62.292">m2</text></g><g class="participant participant-tail" data-entity-uid="part2" data-qualified-name="m2" id="part2-tail"><rect fill="#E2E2F0" height="30.2969" rx="2.5" ry="2.5" style="stroke:#181818;stroke-width:0.5;" width="36.5449" x="301.2666" y="843.7969"/><text fill="#000000" font-family="sans-serif" font-size="14" lengthAdjust="spacing" textLength="22.5449" x="308.2666" y="863.792">m2</text></g><g class="participant participant-head" data-entity-uid="part3" data-qualified-name="registry" id="part3-head"><rect fill="#E2E2F0" height="30.2969" rx="2.5" ry="2.5" style="stroke:#181818;stroke-width:0.5;" width="67.9697" x="710.438" y="42.2969"/><text fill="#000000" font-family="sans-serif" font-size="14" lengthAdjust="spacing" textLength="53.9697" x="717.438" y="62.292">registry</text></g><g class="participant participant-tail" data-entity-uid="part3" data-qualified-name="registry" id="part3-tail"><rect fill="#E2E2F0" height="30.2969" rx="2.5" ry="2.5" style="stroke:#181818;stroke-width:0.5;" width="67.9697" x="710.438" y="843.7969"/><text fill="#000000" font-family="sans-serif" font-size="14" lengthAdjust="spacing" textLength="53.9697" x="717.438" y="863.792">registry</text></g><g class="message" data-entity-1="part1" data-entity-2="part3" id="msg1"><polygon fill="#181818" points="732.4229,100.7266,742.4229,104.7266,732.4229,108.7266,736.4229,104.7266" style="stroke:#181818;stroke-width:1;"/><line style="stroke:#181818;stroke-width:1;" x1="48.2725" x2="738.4229" y1="104.7266" y2="104.7266"/><text fill="#000000" font-family="sans-serif" font-size="13" lengthAdjust="spacing" textLength="317.1479" x="55.2725" y="99.6606">Je publie mon identity pour rejoindre le r&#195;&#169;seau</text></g><g class="message" data-entity-1="part1" data-entity-2="part3" id="msg2"><polygon fill="#181818" points="732.4229,129.8594,742.4229,133.8594,732.4229,137.8594,736.4229,133.8594" style="stroke:#181818;stroke-width:1;"/><line style="stroke:#181818;stroke-width:1;" x1="48.2725" x2="738.4229" y1="133.8594" y2="133.8594"/><text fill="#000000" font-family="sans-serif" font-size="13" lengthAdjust="spacing" textLength="227.9189" x="55.2725" y="128.7935">Je demande la liste des utilisateurs</text></g><g class="message" data-entity-1="part3" data-entity-2="part1" id="msg3"><polygon fill="#181818" points="59.2725,158.9922,49.2725,162.9922,59.2725,166.9922,55.2725,162.9922" style="stroke:#181818;stroke-width:1;"/><line style="stroke:#181818;stroke-width:1;stroke-dasharray:2,2;" x1="53.2725" x2="743.4229" y1="162.9922" y2="162.9922"/><text fill="#000000" font-family="sans-serif" font-size="13" lengthAdjust="spacing" textLength="394.4053" x="65.2725" y="157.9263">Envoie la liste des noms des membres courants du r&#195;&#169;seau</text></g><g class="message" data-entity-1="part1" data-entity-2="part2" id="msg4"><polygon fill="#181818" points="307.5391,188.125,317.5391,192.125,307.5391,196.125,311.5391,192.125" style="stroke:#181818;stroke-width:1;"/><line style="stroke:#181818;stroke-width:1;" x1="48.2725" x2="313.5391" y1="192.125" y2="192.125"/><text fill="#000000" font-family="sans-serif" font-size="13" lengthAdjust="spacing" textLength="247.2666" x="55.2725" y="187.0591">demande de cr&#195;&#169;er un nouveau chat</text></g><path d="M10,207.125 L74.4429,207.125 L74.4429,214.2578 L64.4429,224.2578 L10,224.2578 L10,207.125" fill="#EEEEEE" style="stroke:#000000;stroke-width:1.5;"/><rect fill="none" height="620.6719" style="stroke:#000000;stroke-width:1.5;" width="749.4229" x="10" y="207.125"/><text fill="#000000" font-family="sans-serif" font-size="13" font-weight="bold" lengthAdjust="spacing" textLength="19.4429" x="25" y="220.1919">alt</text><text fill="#000000" font-family="sans-serif" font-size="11" font-weight="bold" lengthAdjust="spacing" textLength="131.5488" x="89.4429" y="219.3354">[Demande refus&#195;&#169;e]</text><g class="message" data-entity-1="part2" data-entity-2="part1" id="msg5"><polygon fill="#181818" points="59.2725,241.3906,49.2725,245.3906,59.2725,249.3906,55.2725,245.3906" style="stroke:#181818;stroke-width:1;"/><line style="stroke:#181818;stroke-width:1;stroke-dasharray:2,2;" x1="53.2725" x2="318.5391" y1="245.3906" y2="245.3906"/><text fill="#000000" font-family="sans-serif" font-size="13" lengthAdjust="spacing" textLength="56.894" x="65.2725" y="240.3247">Je refuse</text></g><line style="stroke:#000000;stroke-width:1;stroke-dasharray:2,2;" x1="10" x2="759.4229" y1="254.3906" y2="254.3906"/><text fill="#000000" font-family="sans-serif" font-size="11" font-weight="bold" lengthAdjust="spacing" textLength="316.0566" x="15" y="264.6011">[Demande accept&#195;&#169;e mais annul&#195;&#169;e par timeout]</text><g class="message" data-entity-1="part1" data-entity-2="part1" id="msg6"><line style="stroke:#181818;stroke-width:1;" x1="48.2725" x2="90.2725" y1="289.3281" y2="289.3281"/><line style="stroke:#181818;stroke-width:1;" x1="90.2725" x2="90.2725" y1="289.3281" y2="302.3281"/><line style="stroke:#181818;stroke-width:1;" x1="49.2725" x2="90.2725" y1="302.3281" y2="302.3281"/><polygon fill="#181818" points="59.2725,298.3281,49.2725,302.3281,59.2725,306.3281,55.2725,302.3281" style="stroke:#181818;stroke-width:1;"/><text fill="#000000" font-family="sans-serif" font-size="13" lengthAdjust="spacing" textLength="112.4297" x="55.2725" y="284.2622">Timeout expir&#195;&#169;</text></g><g class="message" data-entity-1="part2" data-entity-2="part1" id="msg7"><polygon fill="#181818" points="59.2725,327.4609,49.2725,331.4609,59.2725,335.4609,55.2725,331.4609" style="stroke:#181818;stroke-width:1;"/><line style="stroke:#181818;stroke-width:1;stroke-dasharray:2,2;" x1="53.2725" x2="318.5391" y1="331.4609" y2="331.4609"/><text fill="#000000" font-family="sans-serif" font-size="13" lengthAdjust="spacing" textLength="59.0142" x="65.2725" y="326.395">J'accepte</text></g><g class="message" data-entity-1="part1" data-entity-2="part2" id="msg8"><polygon fill="#181818" points="307.5391,356.5938,317.5391,360.5938,307.5391,364.5938,311.5391,360.5938" style="stroke:#181818;stroke-width:1;"/><line style="stroke:#181818;stroke-width:1;" x1="48.2725" x2="313.5391" y1="360.5938" y2="360.5938"/><text fill="#000000" font-family="sans-serif" font-size="13" lengthAdjust="spacing" textLength="102.8701" x="55.2725" y="355.5278">Je ferme le chat</text></g><line style="stroke:#000000;stroke-width:1;stroke-dasharray:2,2;" x1="10" x2="759.4229" y1="369.5938" y2="369.5938"/><text fill="#000000" font-family="sans-serif" font-size="11" font-weight="bold" lengthAdjust="spacing" textLength="140.5562" x="15" y="379.8042">[Demande accept&#195;&#169;e]</text><g class="message" data-entity-1="part2" data-entity-2="part1" id="msg9"><polygon fill="#181818" points="59.2725,400.5313,49.2725,404.5313,59.2725,408.5313,55.2725,404.5313" style="stroke:#181818;stroke-width:1;"/><line style="stroke:#181818;stroke-width:1;stroke-dasharray:2,2;" x1="53.2725" x2="318.5391" y1="404.5313" y2="404.5313"/><text fill="#000000" font-family="sans-serif" font-size="13" lengthAdjust="spacing" textLength="59.0142" x="65.2725" y="399.4653">J'accepte</text></g><g class="message" data-entity-1="part1" data-entity-2="part1" id="msg10"><line style="stroke:#181818;stroke-width:1;" x1="48.2725" x2="90.2725" y1="433.6641" y2="433.6641"/><line style="stroke:#181818;stroke-width:1;" x1="90.2725" x2="90.2725" y1="433.6641" y2="446.6641"/><line style="stroke:#181818;stroke-width:1;" x1="49.2725" x2="90.2725" y1="446.6641" y2="446.6641"/><polygon fill="#181818" points="59.2725,442.6641,49.2725,446.6641,59.2725,450.6641,55.2725,446.6641" style="stroke:#181818;stroke-width:1;"/><text fill="#000000" font-family="sans-serif" font-size="13" lengthAdjust="spacing" textLength="145.501" x="55.2725" y="428.5981">Etablissement du chat</text></g><g class="message" data-entity-1="part2" data-entity-2="part2" id="msg11"><line style="stroke:#181818;stroke-width:1;" x1="319.5391" x2="361.5391" y1="475.7969" y2="475.7969"/><line style="stroke:#181818;stroke-width:1;" x1="361.5391" x2="361.5391" y1="475.7969" y2="488.7969"/><line style="stroke:#181818;stroke-width:1;" x1="320.5391" x2="361.5391" y1="488.7969" y2="488.7969"/><polygon fill="#181818" points="330.5391,484.7969,320.5391,488.7969,330.5391,492.7969,326.5391,488.7969" style="stroke:#181818;stroke-width:1;"/><text fill="#000000" font-family="sans-serif" font-size="13" lengthAdjust="spacing" textLength="145.501" x="326.5391" y="470.731">Etablissement du chat</text></g><g class="message" data-entity-1="part1" data-entity-2="part2" id="msg12"><polygon fill="#181818" points="307.5391,513.9297,317.5391,517.9297,307.5391,521.9297,311.5391,517.9297" style="stroke:#181818;stroke-width:1;"/><line style="stroke:#181818;stroke-width:1;" x1="48.2725" x2="313.5391" y1="517.9297" y2="517.9297"/><text fill="#000000" font-family="sans-serif" font-size="13" lengthAdjust="spacing" textLength="98.2681" x="55.2725" y="512.8638">Envoi message</text></g><g class="message" data-entity-1="part2" data-entity-2="part1" id="msg13"><polygon fill="#181818" points="59.2725,543.0625,49.2725,547.0625,59.2725,551.0625,55.2725,547.0625" style="stroke:#181818;stroke-width:1;"/><line style="stroke:#181818;stroke-width:1;" x1="53.2725" x2="318.5391" y1="547.0625" y2="547.0625"/><text fill="#000000" font-family="sans-serif" font-size="13" lengthAdjust="spacing" textLength="169.4824" x="65.2725" y="541.9966">Envoi d'un autre message</text></g><path d="M20,562.0625 L84.4429,562.0625 L84.4429,569.1953 L74.4429,579.1953 L20,579.1953 L20,562.0625" fill="#EEEEEE" style="stroke:#000000;stroke-width:1.5;"/><rect fill="none" height="258.7344" style="stroke:#000000;stroke-width:1.5;" width="729.4229" x="20" y="562.0625"/><text fill="#000000" font-family="sans-serif" font-size="13" font-weight="bold" lengthAdjust="spacing" textLength="19.4429" x="35" y="575.1294">alt</text><text fill="#000000" font-family="sans-serif" font-size="11" font-weight="bold" lengthAdjust="spacing" textLength="259.9395" x="99.4429" y="574.2729">[Conversation termin&#195;&#169;e par commande]</text><g class="message" data-entity-1="part1" data-entity-2="part2" id="msg14"><polygon fill="#181818" points="307.5391,596.3281,317.5391,600.3281,307.5391,604.3281,311.5391,600.3281" style="stroke:#181818;stroke-width:1;"/><line style="stroke:#181818;stroke-width:1;" x1="48.2725" x2="313.5391" y1="600.3281" y2="600.3281"/><text fill="#000000" font-family="sans-serif" font-size="13" lengthAdjust="spacing" textLength="179.3086" x="55.2725" y="595.2622">Annonce fermeture du chat</text></g><g class="message" data-entity-1="part1" data-entity-2="part1" id="msg15"><line style="stroke:#181818;stroke-width:1;" x1="48.2725" x2="90.2725" y1="629.4609" y2="629.4609"/><line style="stroke:#181818;stroke-width:1;" x1="90.2725" x2="90.2725" y1="629.4609" y2="642.4609"/><line style="stroke:#181818;stroke-width:1;" x1="49.2725" x2="90.2725" y1="642.4609" y2="642.4609"/><polygon fill="#181818" points="59.2725,638.4609,49.2725,642.4609,59.2725,646.4609,55.2725,642.4609" style="stroke:#181818;stroke-width:1;"/><text fill="#000000" font-family="sans-serif" font-size="13" lengthAdjust="spacing" textLength="121.3672" x="55.2725" y="624.395">Fermeture du chat</text></g><g class="message" data-entity-1="part2" data-entity-2="part2" id="msg16"><line style="stroke:#181818;stroke-width:1;" x1="319.5391" x2="361.5391" y1="671.5938" y2="671.5938"/><line style="stroke:#181818;stroke-width:1;" x1="361.5391" x2="361.5391" y1="671.5938" y2="684.5938"/><line style="stroke:#181818;stroke-width:1;" x1="320.5391" x2="361.5391" y1="684.5938" y2="684.5938"/><polygon fill="#181818" points="330.5391,680.5938,320.5391,684.5938,330.5391,688.5938,326.5391,684.5938" style="stroke:#181818;stroke-width:1;"/><text fill="#000000" font-family="sans-serif" font-size="13" lengthAdjust="spacing" textLength="121.3672" x="326.5391" y="666.5278">Fermeture du chat</text></g><line style="stroke:#000000;stroke-width:1;stroke-dasharray:2,2;" x1="20" x2="749.4229" y1="693.5938" y2="693.5938"/><text fill="#000000" font-family="sans-serif" font-size="11" font-weight="bold" lengthAdjust="spacing" textLength="357.5269" x="25" y="703.8042">[Conversation termin&#195;&#169;e par d&#195;&#169;connexion impr&#195;&#169;vue]</text><g class="message" data-entity-1="part1" data-entity-2="part1" id="msg17"><line style="stroke:#181818;stroke-width:1;" x1="48.2725" x2="90.2725" y1="728.5313" y2="728.5313"/><line style="stroke:#181818;stroke-width:1;" x1="90.2725" x2="90.2725" y1="728.5313" y2="741.5313"/><line style="stroke:#181818;stroke-width:1;" x1="49.2725" x2="90.2725" y1="741.5313" y2="741.5313"/><polygon fill="#181818" points="59.2725,737.5313,49.2725,741.5313,59.2725,745.5313,55.2725,741.5313" style="stroke:#181818;stroke-width:1;"/><text fill="#000000" font-family="sans-serif" font-size="13" lengthAdjust="spacing" textLength="121.3672" x="55.2725" y="723.4653">Fermeture du chat</text></g><g class="message" data-entity-1="part2" data-entity-2="part1" id="msg18"><polygon fill="#181818" points="59.2725,766.6641,49.2725,770.6641,59.2725,774.6641,55.2725,770.6641" style="stroke:#181818;stroke-width:1;"/><line style="stroke:#181818;stroke-width:1;" x1="53.2725" x2="318.5391" y1="770.6641" y2="770.6641"/><text fill="#000000" font-family="sans-serif" font-size="13" lengthAdjust="spacing" textLength="98.2681" x="65.2725" y="765.5981">Envoi message</text></g><g class="message" data-entity-1="part2" data-entity-2="part2" id="msg19"><line style="stroke:#181818;stroke-width:1;" x1="319.5391" x2="361.5391" y1="799.7969" y2="799.7969"/><line style="stroke:#181818;stroke-width:1;" x1="361.5391" x2="361.5391" y1="799.7969" y2="812.7969"/><line style="stroke:#181818;stroke-width:1;" x1="320.5391" x2="361.5391" y1="812.7969" y2="812.7969"/><polygon fill="#181818" points="330.5391,808.7969,320.5391,812.7969,330.5391,816.7969,326.5391,812.7969" style="stroke:#181818;stroke-width:1;"/><text fill="#000000" font-family="sans-serif" font-size="13" lengthAdjust="spacing" textLength="410.8838" x="326.5391" y="794.731">Fermeture du chat (absence de confirmation de r&#195;&#169;c&#195;&#169;ption)</text></g><?plantuml-src ZLDBSjim3Dth51XlaYwya9TQP2RJj0klUm6OWbrq153bnvEiUvfUexbOG59o9cwJgKO_FZm2ZmzauZGHR1uOJm5524Q2I3ypgQDDDsD8x7X6JR2HVWCOGVehUDVWtLiuq8bZ2ayrk0wwJlhjtJeQzWHpFanC85w1HzB4wGbcduDD-U5Pnq1W-iBphp-_8s6kyo_f1jWNmO9ggYU4oT02HCY9RO29SeZGhVpjzaxwuOkUFL_nrKkiFq9o2FPrfi7MOM2-gYwxOIrfjwj12f3LakIpiS1znzJXbE1XuGKwvbXvdUoQYFs2KaTJf0iJdQCvLIe8SWHKpLCRcxsGMCZdr6omDF2j0K2FCrSfbmgmlsdPQ9LTt3fIa6ff5VbUxLUPRtEOUGcjOJ6IMBEAEJMFqKk1TuAjUhNT_8qHJzHcBBs0ySRSmvoisMkysFVPwvc2TP5jToGJplhgXFDIPNTWrrBYNjNRlcsBJDdIhHekf7xu-kzWMy7VmMhHXqh6ykkyAZsMCCjS6t7Ez9zb-ojlFj83jtY8vN3MpUVro46Qh74v9gwyvW9zwaZ7yhm0?></g></svg>