<?plantuml 1.2026.2?><svg xmlns="http://www.w3.org/2000/svg" xmlns:xlink="http://www.w3.org/1999/xlink" contentStyleType="text/css" data-diagram-type="SEQUENCE" height="880px" preserveAspectRatio="none" style="width:742px;height:880px;background:#FFFFFF;" version="1.1" viewBox="0 0 742 880" width="742px" zoomAndPan="magnify"><title>Diagramme de sequence</title><defs/><g><text fill="#000000" font-family="sans-serif" font-size="14" font-weight="bold" lengthAdjust="spacing" textLength="195.248" x="272.7373" y="27.9951">Diagramme de sequence</text><rect fill="none" height="620.6719" style="stroke:#000000;stroke-width:1.5;" width="707.7378" x="10" y="207.125"/><rect fill="none" height="258.7344" style="stroke:#000000;stroke-width:1.5;" width="687.7378" x="20" y="562.0625"/><g class="participant-lifeline" data-entity-uid="part1" data-qualified-name="m1" id="part1-lifeline"><g><title>m1</title><rect fill="#000000" fill-opacity="0.00000" height="771.2031" width="8" x="44.2725" y="73.5938"/><line style="stroke:#181818;stroke-width:0.5;stroke-dasharray:5,5;" x1="48" x2="48" y1="73.5938" y2="844.7969"/></g></g><g class="participant-lifeline" data-entity-uid="part2" data-qualified-name="m2" id="part2-lifeline"><g><title>m2</title><rect fill="#000000" fill-opacity="0.00000" height="771.2031" width="8" x="301.644" y="73.5938"/><line style="stroke:#181818;stroke-width:0.5;stroke-dasharray:5,5;" x1="305.3716" x2="305.3716" y1="73.5938" y2="844.7969"/></g></g><g class="participant-lifeline" data-entity-uid="part3" data-qualified-name="registry" id="part3-lifeline"><g><title>registry</title><rect fill="#000000" fill-opacity="0.00000" height="771.2031" width="8" x="698.7378" y="73.5938"/><line style="stroke:#181818;stroke-width:0.5;stroke-dasharray:5,5;" x1="701.7529" x2="701.7529" y1="73.5938" y2="844.7969"/></g></g><g class="participant participant-head" data-entity-uid="part1" data-qualified-name="m1" id="part1-head"><rect fill="#E2E2F0" height="30.2969" rx="2.5" ry="2.5" style="stroke:#181818;stroke-width:0.5;" width="36.5449" x="30" y="42.2969"/><text fill="#000000" font-family="sans-serif" font-size="14" lengthAdjust="spacing" textLength="22.5449" x="37" y="62.292">m1</text></g><g class="participant participant-tail" data-entity-uid="part1" data-qualified-name="m1" id="part1-tail"><rect fill="#E2E2F0" height="30.2969" rx="2.5" ry="2.5" style="stroke:#181818;stroke-width:0.5;" width="36.5449" x="30" y="843.7969"/><text fill="#000000" font-family="sans-serif" font-size="14" lengthAdjust="spacing" textLength="22.5449" x="37" y="863.792">m1</text></g><g class="participant participant-head" data-entity-uid="part2" data-qualified-name="m2" id="part2-head"><rect fill="#E2E2F0" height="30.2969" rx="2.5" ry="2.5" style="stroke:#181818;stroke-width:0.5;" width="36.5449" x="287.3716" y="42.2969"/><text fill="#000000" font-family="sans-serif" font-size="14" lengthAdjust="spacing" textLength="22.5449" x="294.3716" y="62.292">m2</text></g><g class="participant participant-tail" data-entity-uid="part2" data-qualified-name="m2" id="part2-tail"><rect fill="#E2E2F0" height="30.2969" rx="2.5" ry="2.5" style="stroke:#181818;stroke-width:0.5;" width="36.5449" x="287.3716" y="843.7969"/><text fill="#000000" font-family="sans-serif" font-size="14" lengthAdjust="spacing" textLength="22.5449" x="294.3716" y="863.792">m2</text></g><g class="participant participant-head" data-entity-uid="part3" data-qualified-name="registry" id="part3-head"><rect fill="#E2E2F0" height="30.2969" rx="2.5" ry="2.5" style="stroke:#181818;stroke-width:0.5;" width="67.9697" x="668.7529" y="42.2969"/><text fill="#000000" font-family="sans-serif" font-size="14" lengthAdjust="spacing" textLength="53.9697" x="675.7529" y="62.292">registry</text></g><g class="participant participant-tail" data-entity-uid="part3" data-qualified-name="registry" id="part3-tail"><rect fill="#E2E2F0" height="30.2969" rx="2.5" ry="2.5" style="stroke:#181818;stroke-width:0.5;" width="67.9697" x="668.7529" y="843.7969"/><text fill="#000000" font-family="sans-serif" font-size="14" lengthAdjust="spacing" textLength="53.9697" x="675.7529" y="863.792">registry</text></g><g class="message" data-entity-1="part1" data-entity-2="part3" id="msg1"><polygon fill="#181818" points="690.7378,100.7266,700.7378,104.7266,690.7378,108.7266,694.7378,104.7266" style="stroke:#181818;stroke-width:1;"/><line style="stroke:#181818;stroke-width:1;" x1="48.2725" x2="696.7378" y1="104.7266" y2="104.7266"/><text fill="#000000" font-family="sans-serif" font-size="13" lengthAdjust="spacing" textLength="303.2529" x="55.2725" y="99.6606">Je publie mon identity pour rejoindre le r&#233;seau</text></g><g class="message" data-entity-1="part1" data-entity-2="part3" id="msg2"><polygon fill="#181818" points="690.7378,129.8594,700.7378,133.8594,690.7378,137.8594,694.7378,133.8594" style="stroke:#181818;stroke-width:1;"/><line style="stroke:#181818;stroke-width:1;" x1="48.2725" x2="696.7378" y1="133.8594" y2="133.8594"/><text fill="#000000" font-family="sans-serif" font-size="13" lengthAdjust="spacing" textLength="227.9189" x="55.2725" y="128.7935">Je demande la liste des utilisateurs</text></g><g class="message" data-entity-1="part3" data-entity-2="part1" id="msg3"><polygon fill="#181818" points="59.2725,158.9922,49.2725,162.9922,59.2725,166.9922,55.2725,162.9922" style="stroke:#181818;stroke-width:1;"/><line style="stroke:#181818;stroke-width:1;stroke-dasharray:2,2;" x1="53.2725" x2="701.7378" y1="162.9922" y2="162.9922"/><text fill="#000000" font-family="sans-serif" font-size="13" lengthAdjust="spacing" textLength="380.5103" x="65.2725" y="157.9263">Envoie la liste des noms des membres courants du r&#233;seau</text></g><g class="message" data-entity-1="part1" data-entity-2="part2" id="msg4"><polygon fill="#181818" points="293.644,188.125,303.644,192.125,293.644,196.125,297.644,192.125" style="stroke:#181818;stroke-width:1;"/><line style="stroke:#181818;stroke-width:1;" x1="48.2725" x2="299.644" y1="192.125" y2="192.125"/><text fill="#000000" font-family="sans-serif" font-size="13" lengthAdjust="spacing" textLength="233.3716" x="55.2725" y="187.0591">demande de cr&#233;er un nouveau chat</text></g><path d="M10,207.125 L74.4429,207.125 L74.4429,214.2578 L64.4429,224.2578 L10,224.2578 L10,207.125" fill="#EEEEEE" style="stroke:#000000;stroke-width:1.5;"/><rect fill="none" height="620.6719" style="stroke:#000000;stroke-width:1.5;" width="707.7378" x="10" y="207.125"/><text fill="#000000" font-family="sans-serif" font-size="13" font-weight="bold" lengthAdjust="spacing" textLength="19.4429" x="25" y="220.1919">alt</text><text fill="#000000" font-family="sans-serif" font-size="11" font-weight="bold" lengthAdjust="spacing" textLength="119.4961" x="89.4429" y="219.3354">[Demande refus&#233;e]</text><g class="message" data-entity-1="part2" data-entity-2="part1" id="msg5"><polygon fill="#181818" points="59.2725,241.3906,49.2725,245.3906,59.2725,249.3906,55.2725,245.3906" style="stroke:#181818;stroke-width:1;"/><line style="stroke:#181818;stroke-width:1;stroke-dasharray:2,2;" x1="53.2725" x2="304.644" y1="245.3906" y2="245.3906"/><text fill="#000000" font-family="sans-serif" font-size="13" lengthAdjust="spacing" textLength="56.894" x="65.2725" y="240.3247">Je refuse</text></g><line style="stroke:#000000;stroke-width:1;stroke-dasharray:2,2;" x1="10" x2="717.7378" y1="254.3906" y2="254.3906"/><text fill="#000000" font-family="sans-serif" font-size="11" font-weight="bold" lengthAdjust="spacing" textLength="291.9512" x="15" y="264.6011">[Demande accept&#233;e mais annul&#233;e par timeout]</text><g class="message" data-entity-1="part1" data-entity-2="part1" id="msg6"><line style="stroke:#181818;stroke-width:1;" x1="48.2725" x2="90.2725" y1="289.3281" y2="289.3281"/><line style="stroke:#181818;stroke-width:1;" x1="90.2725" x2="90.2725" y1="289.3281" y2="302.3281"/><line style="stroke:#181818;stroke-width:1;" x1="49.2725" x2="90.2725" y1="302.3281" y2="302.3281"/><polygon fill="#181818" points="59.2725,298.3281,49.2725,302.3281,59.2725,306.3281,55.2725,302.3281" style="stroke:#181818;stroke-width:1;"/><text fill="#000000" font-family="sans-serif" font-size="13" lengthAdjust="spacing" textLength="98.5347" x="55.2725" y="284.2622">Timeout expir&#233;</text></g><g class="message" data-entity-1="part2" data-entity-2="part1" id="msg7"><polygon fill="#181818" points="59.2725,327.4609,49.2725,331.4609,59.2725,335.4609,55.2725,331.4609" style="stroke:#181818;stroke-width:1;"/><line style="stroke:#181818;stroke-width:1;stroke-dasharray:2,2;" x1="53.2725" x2="304.644" y1="331.4609" y2="331.4609"/><text fill="#000000" font-family="sans-serif" font-size="13" lengthAdjust="spacing" textLength="59.0142" x="65.2725" y="326.395">J'accepte</text></g><g class="message" data-entity-1="part1" data-entity-2="part2" id="msg8"><polygon fill="#181818" points="293.644,356.5938,303.644,360.5938,293.644,364.5938,297.644,360.5938" style="stroke:#181818;stroke-width:1;"/><line style="stroke:#181818;stroke-width:1;" x1="48.2725" x2="299.644" y1="360.5938" y2="360.5938"/><text fill="#000000" font-family="sans-serif" font-size="13" lengthAdjust="spacing" textLength="102.8701" x="55.2725" y="355.5278">Je ferme le chat</text></g><line style="stroke:#000000;stroke-width:1;stroke-dasharray:2,2;" x1="10" x2="717.7378" y1="369.5938" y2="369.5938"/><text fill="#000000" font-family="sans-serif" font-size="11" font-weight="bold" lengthAdjust="spacing" textLength="128.5034" x="15" y="379.8042">[Demande accept&#233;e]</text><g class="message" data-entity-1="part2" data-entity-2="part1" id="msg9"><polygon fill="#181818" points="59.2725,400.5313,49.2725,404.5313,59.2725,408.5313,55.2725,404.5313" style="stroke:#181818;stroke-width:1;"/><line style="stroke:#181818;stroke-width:1;stroke-dasharray:2,2;" x1="53.2725" x2="304.644" y1="404.5313" y2="404.5313"/><text fill="#000000" font-family="sans-serif" font-size="13" lengthAdjust="spacing" textLength="59.0142" x="65.2725" y="399.4653">J'accepte</text></g><g class="message" data-entity-1="part1" data-entity-2="part1" id="msg10"><line style="stroke:#181818;stroke-width:1;" x1="48.2725" x2="90.2725" y1="433.6641" y2="433.6641"/><line style="stroke:#181818;stroke-width:1;" x1="90.2725" x2="90.2725" y1="433.6641" y2="446.6641"/><line style="stroke:#181818;stroke-width:1;" x1="49.2725" x2="90.2725" y1="446.6641" y2="446.6641"/><polygon fill="#181818" points="59.2725,442.6641,49.2725,446.6641,59.2725,450.6641,55.2725,446.6641" style="stroke:#181818;stroke-width:1;"/><text fill="#000000" font-family="sans-serif" font-size="13" lengthAdjust="spacing" textLength="145.501" x="55.2725" y="428.5981">Etablissement du chat</text></g><g class="message" data-entity-1="part2" data-entity-2="part2" id="msg11"><line style="stroke:#181818;stroke-width:1;" x1="305.644" x2="347.644" y1="475.7969" y2="475.7969"/><line style="stroke:#181818;stroke-width:1;" x1="347.644" x2="347.644" y1="475.7969" y2="488.7969"/><line style="stroke:#181818;stroke-width:1;" x1="306.644" x2="347.644" y1="488.7969" y2="488.7969"/><polygon fill="#181818" points="316.644,484.7969,306.644,488.7969,316.644,492.7969,312.644,488.7969" style="stroke:#181818;stroke-width:1;"/><text fill="#000000" font-family="sans-serif" font-size="13" lengthAdjust="spacing" textLength="145.501" x="312.644" y="470.731">Etablissement du chat</text></g><g class="message" data-entity-1="part1" data-entity-2="part2" id="msg12"><polygon fill="#181818" points="293.644,513.9297,303.644,517.9297,293.644,521.9297,297.644,517.9297" style="stroke:#181818;stroke-width:1;"/><line style="stroke:#181818;stroke-width:1;" x1="48.2725" x2="299.644" y1="517.9297" y2="517.9297"/><text fill="#000000" font-family="sans-serif" font-size="13" lengthAdjust="spacing" textLength="98.2681" x="55.2725" y="512.8638">Envoi message</text></g><g class="message" data-entity-1="part2" data-entity-2="part1" id="msg13"><polygon fill="#181818" points="59.2725,543.0625,49.2725,547.0625,59.2725,551.0625,55.2725,547.0625" style="stroke:#181818;stroke-width:1;"/><line style="stroke:#181818;stroke-width:1;" x1="53.2725" x2="304.644" y1="547.0625" y2="547.0625"/><text fill="#000000" font-family="sans-serif" font-size="13" lengthAdjust="spacing" textLength="169.4824" x="65.2725" y="541.9966">Envoi d'un autre message</text></g><path d="M20,562.0625 L84.4429,562.0625 L84.4429,569.1953 L74.4429,579.1953 L20,579.1953 L20,562.0625" fill="#EEEEEE" style="stroke:#000000;stroke-width:1.5;"/><rect fill="none" height="258.7344" style="stroke:#000000;stroke-width:1.5;" width="687.7378" x="20" y="562.0625"/><text fill="#000000" font-family="sans-serif" font-size="13" font-weight="bold" lengthAdjust="spacing" textLength="19.4429" x="35" y="575.1294">alt</text><text fill="#000000" font-family="sans-serif" font-size="11" font-weight="bold" lengthAdjust="spacing" textLength="247.8867" x="99.4429" y="574.2729">[Conversation termin&#233;e par commande]</text><g class="message" data-entity-1="part1" data-entity-2="part2" id="msg14"><polygon fill="#181818" points="293.644,596.3281,303.644,600.3281,293.644,604.3281,297.644,600.3281" style="stroke:#181818;stroke-width:1;"/><line style="stroke:#181818;stroke-width:1;" x1="48.2725" x2="299.644" y1="600.3281" y2="600.3281"/><text fill="#000000" font-family="sans-serif" font-size="13" lengthAdjust="spacing" textLength="179.3086" x="55.2725" y="595.2622">Annonce fermeture du chat</text></g><g class="message" data-entity-1="part1" data-entity-2="part1" id="msg15"><line style="stroke:#181818;stroke-width:1;" x1="48.2725" x2="90.2725" y1="629.4609" y2="629.4609"/><line style="stroke:#181818;stroke-width:1;" x1="90.2725" x2="90.2725" y1="629.4609" y2="642.4609"/><line style="stroke:#181818;stroke-width:1;" x1="49.2725" x2="90.2725" y1="642.4609" y2="642.4609"/><polygon fill="#181818" points="59.2725,638.4609,49.2725,642.4609,59.2725,646.4609,55.2725,642.4609" style="stroke:#181818;stroke-width:1;"/><text fill="#000000" font-family="sans-serif" font-size="13" lengthAdjust="spacing" textLength="121.3672" x="55.2725" y="624.395">Fermeture du chat</text></g><g class="message" data-entity-1="part2" data-entity-2="part2" id="msg16"><line style="stroke:#181818;stroke-width:1;" x1="305.644" x2="347.644" y1="671.5938" y2="671.5938"/><line style="stroke:#181818;stroke-width:1;" x1="347.644" x2="347.644" y1="671.5938" y2="684.5938"/><line style="stroke:#181818;stroke-width:1;" x1="306.644" x2="347.644" y1="684.5938" y2="684.5938"/><polygon fill="#181818" points="316.644,680.5938,306.644,684.5938,316.644,688.5938,312.644,684.5938" style="stroke:#181818;stroke-width:1;"/><text fill="#000000" font-family="sans-serif" font-size="13" lengthAdjust="spacing" textLength="121.3672" x="312.644" y="666.5278">Fermeture du chat</text></g><line style="stroke:#000000;stroke-width:1;stroke-dasharray:2,2;" x1="20" x2="707.7378" y1="693.5938" y2="693.5938"/><text fill="#000000" font-family="sans-serif" font-size="11" font-weight="bold" lengthAdjust="spacing" textLength="321.3687" x="25" y="703.8042">[Conversation termin&#233;e par d&#233;connexion impr&#233;vue]</text><g class="message" data-entity-1="part1" data-entity-2="part1" id="msg17"><line style="stroke:#181818;stroke-width:1;" x1="48.2725" x2="90.2725" y1="728.5313" y2="728.5313"/><line style="stroke:#181818;stroke-width:1;" x1="90.2725" x2="90.2725" y1="728.5313" y2="741.5313"/><line style="stroke:#181818;stroke-width:1;" x1="49.2725" x2="90.2725" y1="741.5313" y2="741.5313"/><polygon fill="#181818" points="59.2725,737.5313,49.2725,741.5313,59.2725,745.5313,55.2725,741.5313" style="stroke:#181818;stroke-width:1;"/><text fill="#000000" font-family="sans-serif" font-size="13" lengthAdjust="spacing" textLength="121.3672" x="55.2725" y="723.4653">Fermeture du chat</text></g><g class="message" data-entity-1="part2" data-entity-2="part1" id="msg18"><polygon fill="#181818" points="59.2725,766.6641,49.2725,770.6641,59.2725,774.6641,55.2725,770.6641" style="stroke:#181818;stroke-width:1;"/><line style="stroke:#181818;stroke-width:1;" x1="53.2725" x2="304.644" y1="770.6641" y2="770.6641"/><text fill="#000000" font-family="sans-serif" font-size="13" lengthAdjust="spacing" textLength="98.2681" x="65.2725" y="765.5981">Envoi message</text></g><g class="message" data-entity-1="part2" data-entity-2="part2" id="msg19"><line style="stroke:#181818;stroke-width:1;" x1="305.644" x2="347.644" y1="799.7969" y2="799.7969"/><line style="stroke:#181818;stroke-width:1;" x1="347.644" x2="347.644" y1="799.7969" y2="812.7969"/><line style="stroke:#181818;stroke-width:1;" x1="306.644" x2="347.644" y1="812.7969" y2="812.7969"/><polygon fill="#181818" points="316.644,808.7969,306.644,812.7969,316.644,816.7969,312.644,812.7969" style="stroke:#181818;stroke-width:1;"/><text fill="#000000" font-family="sans-serif" font-size="13" lengthAdjust="spacing" textLength="383.0938" x="312.644" y="794.731">Fermeture du chat (absence de confirmation de r&#233;c&#233;ption)</text></g><?plantuml-src ZLDBRjj03Dth58GtIHTUo4ij0XHDi_2w5w17jCj2vAZpCP8Z-Ho-M3WpbWkxQL11WaJopUERnr7YD16idXaF0KK8He98lpEferKtOqZiU4PDi99-1HX1-hlqfgKtj-b01uuflDNY4dITzEkd9Hgs17FUJKmWNe57qiJf3MQVWotvvLd7G63wmlaK2NDTVIKRO5la2gffdX0covP4X9pO0aoKGuHkmQ_NJz8Ft_Ne-GwlNcBz499TiBSp1ROBI-QRth8PbePsEojHWAn6a8-60VSJKuTJWkSBAj0-HqDricdjjvSSTJH5kkBGEPgJ0K6G8w1gdafaba9Y8PzJsxnHm8-M07gTsIHSkM7xq7Xe4LiSsbEGQc8Lzt7NF_9k6SokX3QW64biECMEocBmGl-FOkjTZJP7OyG3jHKNzs5yCCym9nlkKY-cVVDwf61pOpiDoMIpBXuuBrLo1tPT6dnLzNPAsmPJDh95mHNK3oyV5vl-lulLdazqZEUJywhqMaeiizb_pFIV3VixJpvJ0e-uY-Kdh0VDwvw3D45Z_HtS-JINy4j7EfRd7G00?></g></svg>