<?xml version="1.0" encoding="us-ascii" standalone="no"?><svg xmlns="http://www.w3.org/2000/svg" xmlns:xlink="http://www.w3.org/1999/xlink" contentStyleType="text/css" height="397px" preserveAspectRatio="none" style="width:464px;height:397px;background:#FFFFFF;" version="1.1" viewBox="0 0 464 397" width="464px" zoomAndPan="magnify"><defs/><g><!--entity g--><g id="elem_g"><ellipse cx="31.5" cy="164.5" fill="#F1F1F1" rx="8" ry="8" style="stroke:#181818;stroke-width:0.5;"/><path d="M31.5,172.5 L31.5,199.5 M18.5,180.5 L44.5,180.5 M31.5,199.5 L18.5,214.5 M31.5,199.5 L44.5,214.5 " fill="none" style="stroke:#181818;stroke-width:0.5;"/><text fill="#000000" font-family="sans-serif" font-size="14" lengthAdjust="spacing" textLength="51" x="6" y="230.5332">Membre</text></g><g id="elem_UC1"><ellipse cx="288.141" cy="35.1282" fill="#F1F1F1" rx="133.641" ry="29.1282" style="stroke:#181818;stroke-width:0.5;"/><text fill="#000000" font-family="sans-serif" font-size="14" lengthAdjust="spacing" textLength="234" x="171.141" y="38.8567">Avoir la liste des membres connect&#233;s</text></g><g id="elem_UC2"><ellipse cx="287.8193" cy="118.9639" fill="#F1F1F1" rx="87.8193" ry="19.9639" style="stroke:#181818;stroke-width:0.5;"/><text fill="#000000" font-family="sans-serif" font-size="14" lengthAdjust="spacing" textLength="133" x="221.3193" y="122.6924">Envoyer un message</text></g><g id="elem_UC3"><ellipse cx="288.035" cy="194.807" fill="#F1F1F1" rx="89.535" ry="20.307" style="stroke:#181818;stroke-width:0.5;"/><text fill="#000000" font-family="sans-serif" font-size="14" lengthAdjust="spacing" textLength="137" x="219.535" y="198.5355">Recevoir un message</text></g><g id="elem_UC4"><ellipse cx="288.0677" cy="267.2135" fill="#F1F1F1" rx="71.5677" ry="16.7135" style="stroke:#181818;stroke-width:0.5;"/><text fill="#000000" font-family="sans-serif" font-size="14" lengthAdjust="spacing" textLength="92" x="239.0677" y="271.7301">Fermer le chat</text></g><g id="elem_UC5"><ellipse cx="287.8751" cy="355.075" fill="#F1F1F1" rx="170.8751" ry="36.575" style="stroke:#181818;stroke-width:0.5;"/><text fill="#000000" font-family="sans-serif" font-size="14" lengthAdjust="spacing" textLength="312" x="131.8751" y="358.8035">Consulter la liste et l'historique des conversations</text></g><!--link g to UC1--><g id="link_g_UC1"><path d="M52.55,155.78 C67.2,130.87 89.32,99.88 117,81 C135.82,68.16 158.08,58.9 180.19,52.22 " fill="none" id="g-UC1" style="stroke:#181818;stroke-width:1.0;"/></g><!--link g to UC2--><g id="link_g_UC2"><path d="M57.11,182.33 C73.69,174.2 96.24,163.91 117,157 C149.57,146.16 180.7893,138.6505 212.0093,132.3305 " fill="none" id="g-to-UC2" style="stroke:#181818;stroke-width:1.0;"/><polygon fill="#181818" points="217.89,131.14,208.2753,129.0052,212.9894,132.132,209.8626,136.8462,217.89,131.14" style="stroke:#181818;stroke-width:1.0;"/></g><!--reverse link g to UC3--><g id="link_g_UC3"><path d="M63.37,195 C95.82,195 148.37,195 198.22,195 " fill="none" id="g-backto-UC3" style="stroke:#181818;stroke-width:1.0;"/><polygon fill="#181818" points="57.37,195,66.37,199,62.37,195,66.37,191,57.37,195" style="stroke:#181818;stroke-width:1.0;"/></g><!--link g to UC4--><g id="link_g_UC4"><path d="M57.06,207.82 C73.62,216.02 96.17,226.33 117,233 C152.69,244.43 193.87,252.79 226.76,258.35 " fill="none" id="g-UC4" style="stroke:#181818;stroke-width:1.0;"/></g><!--link g to UC5--><g id="link_g_UC5"><path d="M55.44,234.15 C70.4,256.59 91.8,283.66 117,301 C133.2,312.15 151.82,321.09 170.67,328.23 " fill="none" id="g-UC5" style="stroke:#181818;stroke-width:1.0;"/></g><!--SRC=[POz1IWGn44NtVOhFR5pDGcTc9u8CkdCZU82O-QO3wGIhgXiyakVmOgRZD0JSVLBlLxqaVXYiG68O3PSez1PB7fot8dZXz2w4KuG1c9NUAR5xN4eK98SKrOWB5LCZ5RxaN5VyVEjkhRsTR_lYKrxA5mLphWLL5tYbxdhgbPxjmZ_iq6FFbAdkIeGVdLs9Oq-SIzOv6JjN6jBDM6EH-3d_kLVdXQ9k_VYcVHe2zllcluQ7vXXmtzuEs_2uXTCl]--></g></svg>