<?plantuml 1.2026.1?><svg xmlns="http://www.w3.org/2000/svg" xmlns:xlink="http://www.w3.org/1999/xlink" contentStyleType="text/css" data-diagram-type="DESCRIPTION" height="402px" preserveAspectRatio="none" style="width:494px;height:402px;background:#FFFFFF;" version="1.1" viewBox="0 0 494 402" width="494px" zoomAndPan="magnify"><defs/><g><!--entity g--><g class="entity" data-qualified-name="g" data-source-line="2" id="ent0002"><ellipse cx="34.793" cy="166.88" fill="#F1F1F1" rx="8" ry="8" style="stroke:#181818;stroke-width:0.5;"/><path d="M34.793,174.88 L34.793,201.88 M21.793,182.88 L47.793,182.88 M34.793,201.88 L21.793,216.88 M34.793,201.88 L47.793,216.88" fill="none" style="stroke:#181818;stroke-width:0.5;"/><text fill="#000000" font-family="sans-serif" font-size="14" lengthAdjust="spacing" textLength="57.5859" x="6" y="231.3751">Membre</text></g><!--entity UC1--><g class="entity" data-qualified-name="UC1" data-source-line="3" id="ent0003"><ellipse cx="306.2673" cy="36.5255" fill="#F1F1F1" rx="140.6273" ry="30.5255" style="stroke:#181818;stroke-width:0.5;"/><text fill="#000000" font-family="sans-serif" font-size="14" lengthAdjust="spacing" textLength="262.917" x="174.8088" y="41.1739">Avoir la liste des membres connect&#233;s</text></g><!--entity UC2--><g class="entity" data-qualified-name="UC2" data-source-line="4" id="ent0004"><ellipse cx="306.2741" cy="121.5288" fill="#F1F1F1" rx="86.9441" ry="19.7888" style="stroke:#181818;stroke-width:0.5;"/><text fill="#000000" font-family="sans-serif" font-size="14" lengthAdjust="spacing" textLength="146.7881" x="232.8801" y="126.1773">Envoyer un message</text></g><!--entity UC3--><g class="entity" data-qualified-name="UC3" data-source-line="5" id="ent0005"><ellipse cx="306.2747" cy="196.5329" fill="#F1F1F1" rx="88.6647" ry="20.1329" style="stroke:#181818;stroke-width:0.5;"/><text fill="#000000" font-family="sans-serif" font-size="14" lengthAdjust="spacing" textLength="150.7119" x="230.9188" y="201.1814">Recevoir un message</text></g><!--entity UC4--><g class="entity" data-qualified-name="UC4" data-source-line="6" id="ent0006"><ellipse cx="306.2698" cy="267.532" fill="#F1F1F1" rx="68.4598" ry="16.092" style="stroke:#181818;stroke-width:0.5;"/><text fill="#000000" font-family="sans-serif" font-size="14" lengthAdjust="spacing" textLength="102.4707" x="255.0345" y="272.1804">Fermer le chat</text></g><!--entity UC5--><g class="entity" data-qualified-name="UC5" data-source-line="7" id="ent0007"><ellipse cx="306.2667" cy="357.5273" fill="#F1F1F1" rx="182.6867" ry="38.9373" style="stroke:#181818;stroke-width:0.5;"/><text fill="#000000" font-family="sans-serif" font-size="14" lengthAdjust="spacing" textLength="350.0137" x="131.2599" y="362.1758">Consulter la liste et l'historique des conversations</text></g><!--link g to UC1--><g class="link" data-entity-1="ent0002" data-entity-2="ent0003" data-link-type="dependency" data-source-line="8" id="lnk8"><path d="M57.08,157.95 C72.5,133.46 95.52,103.01 123.59,84.53 C143.89,71.17 162.0047,63.2162 185.6547,56.2462" fill="none" id="g-to-UC1" style="stroke:#181818;stroke-width:1;"/><polygon fill="#181818" points="191.41,54.55,181.6463,53.2574,186.6139,55.9635,183.9079,60.9311,191.41,54.55" style="stroke:#181818;stroke-width:1;"/></g><!--link g to UC2--><g class="link" data-entity-1="ent0002" data-entity-2="ent0004" data-link-type="dependency" data-source-line="9" id="lnk9"><path d="M64.09,182.5 C81.02,174.56 103.15,164.96 123.59,158.53 C159.05,147.38 193.5962,139.8301 227.3062,133.7201" fill="none" id="g-to-UC2" style="stroke:#181818;stroke-width:1;"/><polygon fill="#181818" points="233.21,132.65,223.6409,130.3192,228.2902,133.5417,225.0677,138.191,233.21,132.65" style="stroke:#181818;stroke-width:1;"/></g><!--link g to UC3--><g class="link" data-entity-1="ent0002" data-entity-2="ent0005" data-link-type="dependency" data-source-line="10" id="lnk10"><path d="M63.87,196.53 C99.93,196.53 158.2,196.53 211.37,196.53" fill="none" id="g-to-UC3" style="stroke:#181818;stroke-width:1;"/><polygon fill="#181818" points="217.37,196.53,208.37,192.53,212.37,196.53,208.37,200.53,217.37,196.53" style="stroke:#181818;stroke-width:1;"/></g><!--link g to UC4--><g class="link" data-entity-1="ent0002" data-entity-2="ent0006" data-link-type="dependency" data-source-line="11" id="lnk11"><path d="M64.04,210.72 C80.95,218.72 103.08,228.32 123.59,234.53 C163.17,246.52 203.0542,253.9345 238.7842,259.2045" fill="none" id="g-to-UC4" style="stroke:#181818;stroke-width:1;"/><polygon fill="#181818" points="244.72,260.08,236.4,254.8096,239.7735,259.3504,235.2327,262.7239,244.72,260.08" style="stroke:#181818;stroke-width:1;"/></g><!--link g to UC5--><g class="link" data-entity-1="ent0002" data-entity-2="ent0007" data-link-type="dependency" data-source-line="12" id="lnk12"><path d="M59.79,235.12 C75.45,257.42 97.76,284.37 123.59,301.53 C140.49,312.77 154.1401,319.7383 173.6601,327.0383" fill="none" id="g-to-UC5" style="stroke:#181818;stroke-width:1;"/><polygon fill="#181818" points="179.28,329.14,172.2513,322.2409,174.5968,327.3886,169.4491,329.734,179.28,329.14" style="stroke:#181818;stroke-width:1;"/></g><?plantuml-src POynRi9044Lxd-AB9XK56Df824574oa7s2m_zahhNJ4pjfGZvHovM1O7h9NIlUBzFtyYFmsM8Q7h3TSWz1PoQfotBBXm-132ARe669NUAR4wJ3a8eaCCQiILYc4s5JwdL2f-ldLrZxqVDtNmbARyHS6OIa3LTNnOszfwe-TyuP_MrjgPCfIkIFZUsSFOrSOn9nsZiTfAGtpf2sO9j_5lUzayKTJT7t_EtZSTrklN-O4dRHTg5zejjFy5?></g></svg>